<svg id="AQA" xmlns="http://www.w3.org/2000/svg" width="106.645" height="49.366" viewBox="0 0 106.645 49.366">
    <rect id="Rectangle_7089" data-name="Rectangle 7089" width="106.645" height="49.366" fill="none"/>
    <g id="Group_35673" data-name="Group 35673" transform="translate(9.257 9.255)">
        <path id="Path_18652" data-name="Path 18652" d="M65.182,243.642a11.177,11.177,0,1,0-6.624,10.221l1.306,1.673s1.747,2.2,4.346-.771l-2.452-3.1a11.049,11.049,0,0,0,3.421-8.02ZM53.96,250.794a7.19,7.19,0,1,1,6.845-7.181,7.366,7.366,0,0,1-1.673,4.729l-2.731-3.45a5.075,5.075,0,0,0-.865.088,3.122,3.122,0,0,0-.925.308,2.275,2.275,0,0,0-.748.617,1.618,1.618,0,0,0-.308.993,1.542,1.542,0,0,0,.308.9l.645.925,1.388,1.808a6.8,6.8,0,0,1-1.936.275Zm-20.2-18.123a3.375,3.375,0,0,0-2.144-.47,8.515,8.515,0,0,0-1.985.6c-1.894,4.01-8.825,21.439-8.825,21.439h4.346c2.335-6.828,6.8-16.966,6.8-16.966.2.154,1.644,3.848,3.143,7.744H29.656c-.719,3.891,2.085,3.891,2.085,3.891l4.817-.018c1.146,2.978,2.057,5.4,2.057,5.4h4.656c-6.373-17.006-8.518-20.547-8.518-20.547a2.979,2.979,0,0,0-1-1.066Zm53.808,21.573C81.19,237.238,79.044,233.7,79.044,233.7a3.074,3.074,0,0,0-.993-1.058,3.376,3.376,0,0,0-2.144-.47,8.513,8.513,0,0,0-1.985.6C72,236.774,65.066,254.2,65.066,254.2h4.346c2.335-6.845,6.8-16.977,6.8-16.977.2.154,1.644,3.848,3.143,7.744H73.919C73.2,248.862,76,248.862,76,248.862l4.817-.029c1.146,2.978,2.054,5.4,2.054,5.4l4.684.014Z" transform="translate(-20.801 -225.466)" fill="#512e8f"/>
        <path id="Path_18653" data-name="Path 18653" d="M497.685,186.629a3.165,3.165,0,0,0-3.085,3.231v12.894c.617-1.277,1.644-3.45,2.731-5.4,3.952-8.048,9.134-7.212,12.616-8.077a5.852,5.852,0,0,0,3.006-2.679H497.685Zm13.9,8.329a10.474,10.474,0,0,1-5.184,5.785,12.083,12.083,0,0,1-6.287.617c-2.364-.154-3.921.029-4.877,2.556-.281.808-.617,2.144-.617,2.144h15.423a3.165,3.165,0,0,0,3.085-3.231l.029-16.195a28.245,28.245,0,0,1-1.575,8.329Z" transform="translate(-425.019 -186.6)" fill="#e1114c"/>
    </g>
</svg>
