<svg xmlns="http://www.w3.org/2000/svg" width="110.128" height="23.819" viewBox="0 0 110.128 23.819">
    <g id="besa-header-logo" transform="translate(-0.749)">
        <path id="Path_1846" data-name="Path 1846" d="M165.6,28.393V5.2" transform="translate(-88.149 -4.719)" fill="none" stroke="#1b294a" stroke-miterlimit="10" stroke-width="1"/>
        <path id="Path_1847" data-name="Path 1847" d="M32.329,35.661a7.359,7.359,0,0,1-5.582-2.213,8.15,8.15,0,0,1-2.165-5.919A8.18,8.18,0,0,1,26.8,21.61a7.467,7.467,0,0,1,5.63-2.213,7.584,7.584,0,0,1,5.582,2.117A7.5,7.5,0,0,1,40.172,27.1a7.451,7.451,0,0,1-.048,1.059.525.525,0,0,1-.529.481H28.046a.047.047,0,0,0-.048.048,4.468,4.468,0,0,0,1.347,3.08,4.255,4.255,0,0,0,3.032,1.155,3.816,3.816,0,0,0,3.609-1.973.429.429,0,0,1,.385-.241H39.21a.308.308,0,0,1,.289.385,7.129,7.129,0,0,1-2.454,3.176,7.61,7.61,0,0,1-4.716,1.4Zm3.128-12.367a4.371,4.371,0,0,0-3.08-1.155,4.255,4.255,0,0,0-3.032,1.155,4.713,4.713,0,0,0-1.4,3.032.168.168,0,0,0,.048.1h8.613a.047.047,0,0,0,.048-.048,3.828,3.828,0,0,0-1.2-3.08Zm7.218.866a4.214,4.214,0,0,1,1.684-3.368,6.772,6.772,0,0,1,4.427-1.4,6.617,6.617,0,0,1,4.379,1.347,4.836,4.836,0,0,1,1.684,3.272.368.368,0,0,1-.385.433h-2.55a.408.408,0,0,1-.385-.337,2.626,2.626,0,0,0-.77-1.492,2.969,2.969,0,0,0-2.069-.674,3.306,3.306,0,0,0-2.069.577,1.893,1.893,0,0,0-.722,1.54,1.666,1.666,0,0,0,.962,1.492,7.227,7.227,0,0,0,2.31.818c.914.192,1.829.385,2.743.626a5.075,5.075,0,0,1,2.31,1.347,3.721,3.721,0,0,1,.962,2.647,4.006,4.006,0,0,1-1.732,3.368,7.261,7.261,0,0,1-4.475,1.3,7.114,7.114,0,0,1-4.427-1.3,4.782,4.782,0,0,1-1.829-3.272.368.368,0,0,1,.385-.433h2.6a.408.408,0,0,1,.385.337,2.423,2.423,0,0,0,.818,1.492,3.189,3.189,0,0,0,2.117.674,3.557,3.557,0,0,0,2.117-.577,1.809,1.809,0,0,0,.77-1.54,1.79,1.79,0,0,0-.962-1.54,7.227,7.227,0,0,0-2.31-.818c-.914-.192-1.829-.385-2.743-.626a5,5,0,0,1-2.31-1.3,3.652,3.652,0,0,1-.914-2.6Zm22.857,11.5a7.94,7.94,0,0,0,4.812-1.492.363.363,0,0,1,.385-.048c.529.289,2.021,1.059,2.743,1.444a.263.263,0,0,0,.385-.241l-.048-7.362v-.529a8.134,8.134,0,1,0-8.276,8.228ZM65.29,22.668a4.9,4.9,0,1,1-4.475,4.475A4.852,4.852,0,0,1,65.29,22.668ZM14.525,19.444a7.94,7.94,0,0,0-4.812,1.492.363.363,0,0,1-.385.048C8.8,20.7,7.307,19.926,6.585,19.541a.263.263,0,0,0-.385.241l.048,7.362v.529a8.134,8.134,0,1,0,8.276-8.228Zm.241,12.992a4.9,4.9,0,1,1,4.475-4.475A4.852,4.852,0,0,1,14.765,32.437Z" transform="translate(-5.451 -12.034)" fill="#1b294a"/>
        <path id="Path_1848" data-name="Path 1848" d="M6.2,4.681v5.1a.429.429,0,0,0,.241.385l3.032,1.588V4.681A.482.482,0,0,0,8.991,4.2H6.729A.5.5,0,0,0,6.2,4.681Zm93.207,18.43.385.433c.048.1.144.1.241.1a.265.265,0,0,0,.241-.144l.289-.481A38.306,38.306,0,0,1,115.142,9.3a.047.047,0,0,0,.048-.048v-.1l-.577-1.011a.177.177,0,0,0-.144-.048l-.433.241a39.7,39.7,0,0,0-13.955,12.848.664.664,0,0,1-.192.144c-.1,0-.144-.048-.241-.1a34.94,34.94,0,0,0-5.919-5.053h-.048c-.048,0-.048,0-.1.048l-.674.962a.092.092,0,0,0,.048.144,32.778,32.778,0,0,1,6.448,5.774Z" transform="translate(-5.451 -4.2)" fill="#f08017"/>
        <path id="Path_1849" data-name="Path 1849" d="M190,18.553a21.318,21.318,0,0,1,3.9,3.272l.337.385a.368.368,0,0,0,.241.1c.1,0,.144-.048.241-.1l.289-.433a40.369,40.369,0,0,1,12.8-11.549c.337-.192.626-.385.914-.529a.231.231,0,0,0,.1-.289l-.529-.914c0-.048-.048-.048-.1-.1h-.144a42.955,42.955,0,0,0-13.473,11.549.365.365,0,0,1-.192.1c-.1,0-.192,0-.241-.1a34.723,34.723,0,0,0-3.994-3.08l-.1-.048-.433-.289a.119.119,0,0,0-.192.048l-.385.529c-.048.048-.048.1-.1.144-.048.1-.1.144-.144.241v.1c0,.048,0,.048.048.1l1.155.866Z" transform="translate(-100.185 -6.379)" fill="#f08017"/>
        <path id="Path_1850" data-name="Path 1850" d="M192.62,33.827l.337-.77c2.839-6.4,7.892-11.6,15.4-15.927.1-.048.1-.144.048-.241l-.048-.048c-.192-.289-.337-.626-.529-.914-.048-.048-.1-.1-.144-.048l-.1.048c-7.122,4.138-12.078,9-15.158,14.965a.48.48,0,0,1-.241.192.416.416,0,0,1-.289-.144,35.645,35.645,0,0,0-7.314-7.074h-.048c-.048,0-.048,0-.1.048l-.674.962a.119.119,0,0,0,.048.192,30.352,30.352,0,0,1,7.892,8.132l.433.722a.265.265,0,0,0,.241.144A.58.58,0,0,0,192.62,33.827Z" transform="translate(-97.557 -10.249)" fill="#f08017"/>
        <path id="Path_1851" data-name="Path 1851" d="M195.6,14.9a.325.325,0,0,1-.481.048c-1.107-.818-2.5-1.732-3.08-2.117-.048,0-.048-.048-.1,0-.048,0-.048.048-.1.048l-.577.914c-.048.1-.048.192.048.241.818.529,2.647,1.78,3.753,2.647l.241.192a.684.684,0,0,0,.289.1.265.265,0,0,0,.241-.144l.192-.289A43.09,43.09,0,0,1,208.878,5.851a.231.231,0,0,0,.1-.289l-.481-.866c-.048-.048-.1-.1-.144-.1H208.2A47.662,47.662,0,0,0,195.6,14.9Z" transform="translate(-101.448 -4.408)" fill="#f08017"/>
    </g>
</svg>
