<svg id="Group_44705" data-name="Group 44705" xmlns="http://www.w3.org/2000/svg" xmlns:xlink="http://www.w3.org/1999/xlink" width="191.196" height="58.123" viewBox="0 0 191.196 58.123">
    <defs>
        <clipPath id="clip-path">
            <rect id="Rectangle_9620" data-name="Rectangle 9620" width="191.196" height="58.123" fill="none"/>
        </clipPath>
        <clipPath id="clip-path-2">
            <rect id="Rectangle_9621" data-name="Rectangle 9621" width="191.195" height="58.123" fill="none"/>
        </clipPath>
    </defs>
    <g id="Group_44702" data-name="Group 44702" transform="translate(0 0)">
        <g id="Group_44701" data-name="Group 44701" clip-path="url(#clip-path)">
            <path id="Path_18846" data-name="Path 18846" d="M92.78,1.95H91.148L86.813,13.2h2.124l1.054-2.8h4l1.087,2.8h2.21ZM90.588,8.734l.815-2.21c.306-.868.474-1.36.578-1.751h.033c.1.373.257.882.563,1.734l.781,2.226Z" transform="translate(22.933 0.515)" fill="#2b2c2c"/>
            <path id="Path_18847" data-name="Path 18847" d="M109.357,4.331c-2.3,0-3.622,1.819-3.622,4.232a3.845,3.845,0,0,0,4.115,4.181A5.38,5.38,0,0,0,112.688,12l-.611-1.393a4.035,4.035,0,0,1-2.024.544,2.08,2.08,0,0,1-2.279-2.04h5.151V8.632c0-2.669-1.308-4.3-3.569-4.3m-1.6,3.365a1.646,1.646,0,0,1,1.563-1.819c1.072,0,1.531.9,1.547,1.819Z" transform="translate(27.932 1.144)" fill="#2b2c2c"/>
            <path id="Path_18848" data-name="Path 18848" d="M137.117,4.331c-2.3,0-3.623,1.819-3.623,4.232a3.845,3.845,0,0,0,4.115,4.181A5.382,5.382,0,0,0,140.448,12l-.611-1.393a4.04,4.04,0,0,1-2.025.544,2.077,2.077,0,0,1-2.277-2.04h5.15V8.632c0-2.669-1.31-4.3-3.569-4.3m-1.6,3.365a1.649,1.649,0,0,1,1.564-1.819c1.072,0,1.53.9,1.549,1.819Z" transform="translate(35.265 1.144)" fill="#2b2c2c"/>
            <path id="Path_18849" data-name="Path 18849" d="M149.9,2.542l-2.024.6V5.007h-1.445V6.589h1.445V11.06a2.057,2.057,0,0,0,2.294,2.158,4.6,4.6,0,0,0,2.346-.628L151.9,11.2a2.28,2.28,0,0,1-1.224.391c-.527,0-.783-.273-.783-1.021V6.589h.085v0h.655a1.268,1.268,0,0,0,1.292-.707l.4-.8.015-.029-.015-.032h-2.346V5.007H149.9Z" transform="translate(38.681 0.672)" fill="#2b2c2c"/>
            <path id="Path_18850" data-name="Path 18850" d="M103.583,4.33c-1.886,0-3.043,1-3.043,2.431,0,2.685,3.774,2.176,3.774,3.537,0,.611-.594.847-1.41.847a4.117,4.117,0,0,1-2.193-.661l-.091.214-.359,1.368a5.817,5.817,0,0,0,2.779.679c1.734,0,3.264-.729,3.264-2.5,0-2.805-3.775-2.312-3.775-3.586,0-.527.46-.731,1.139-.731a5.429,5.429,0,0,1,1.9.363l.379-1.44v-.13a7,7,0,0,0-2.364-.392" transform="translate(26.486 1.144)" fill="#2b2c2c"/>
            <path id="Path_18851" data-name="Path 18851" d="M115.268,4.33c-1.887,0-3.043,1-3.043,2.431,0,2.685,3.774,2.176,3.774,3.537,0,.611-.6.847-1.411.847a4.1,4.1,0,0,1-2.111-.612l-.417,1.594a5.89,5.89,0,0,0,2.664.617c1.733,0,3.264-.729,3.264-2.5,0-2.805-3.774-2.312-3.774-3.586,0-.527.46-.731,1.139-.731a5.455,5.455,0,0,1,1.887.358L117.63,4.8v-.08a6.976,6.976,0,0,0-2.361-.392" transform="translate(29.603 1.144)" fill="#2b2c2c"/>
            <path id="Path_18852" data-name="Path 18852" d="M120.585,4.33c-1.886,0-3.043,1-3.043,2.431,0,2.685,3.775,2.176,3.775,3.537,0,.611-.6.847-1.412.847a4.084,4.084,0,0,1-2.134-.627l-.418,1.6a5.888,5.888,0,0,0,2.688.628c1.734,0,3.265-.729,3.265-2.5,0-2.805-3.775-2.312-3.775-3.586,0-.527.459-.731,1.139-.731a5.414,5.414,0,0,1,1.877.355l.4-1.532v-.03a6.97,6.97,0,0,0-2.361-.392" transform="translate(31.001 1.144)" fill="#2b2c2c"/>
            <path id="Path_18853" data-name="Path 18853" d="M98.241,4.33c-1.885,0-3.042,1-3.042,2.431,0,2.685,3.774,2.176,3.774,3.537,0,.611-.594.847-1.411.847a4.116,4.116,0,0,1-2.192-.661l-.005.009.774,2.049a6.064,6.064,0,0,0,1.56.2c1.733,0,3.263-.729,3.263-2.5,0-2.805-3.774-2.312-3.774-3.586,0-.527.459-.731,1.138-.731a5.456,5.456,0,0,1,1.889.356l.392-1.5V4.722a7,7,0,0,0-2.365-.392" transform="translate(25.148 1.144)" fill="#2b2c2c"/>
            <path id="Path_18854" data-name="Path 18854" d="M122.931,4.218l-.039.021V12.6h2.021V6.928a3.223,3.223,0,0,1,1.922-.8c1.038,0,1.19.783,1.19,1.718V12.6h2.04V7.233l-.016-.3a3.134,3.134,0,0,1,1.9-.8c1.038,0,1.222.75,1.222,1.7V12.6H135.2V7.267c0-2.124-1.258-2.906-2.67-2.906A4.656,4.656,0,0,0,129.639,5.6a2.243,2.243,0,0,0-2.14-1.241,4.471,4.471,0,0,0-2.7,1.1h-.078A1.545,1.545,0,0,0,124,4.754l-1.029-.515Z" transform="translate(32.464 1.114)" fill="#2b2c2c"/>
            <path id="Path_18855" data-name="Path 18855" d="M140.107,4.218l-.039.021V12.6h2.021V6.979a3.289,3.289,0,0,1,1.973-.851c1.037,0,1.241.8,1.241,1.784V12.6h2.039V7.285c0-2.3-1.31-2.924-2.583-2.924a4.483,4.483,0,0,0-2.753,1.1H141.9a1.541,1.541,0,0,0-.721-.712l-1.029-.515Z" transform="translate(37.001 1.114)" fill="#2b2c2c"/>
            <path id="Path_18856" data-name="Path 18856" d="M30.764,1.849a5.656,5.656,0,0,0-5.916,5.832,5.254,5.254,0,0,0,5.661,5.645,7.178,7.178,0,0,0,3.46-.838,3.076,3.076,0,0,1-.472-1.66,5.281,5.281,0,0,1-2.752.78c-2.294,0-3.722-1.632-3.722-3.978,0-2.192,1.308-4.063,3.791-4.063A6.028,6.028,0,0,1,33.7,4.3V2.393a7.494,7.494,0,0,0-2.94-.544" transform="translate(6.564 0.488)" fill="#2b2c2c"/>
            <path id="Path_18857" data-name="Path 18857" d="M51.8,1.2H49.773V12.847a5.745,5.745,0,0,0,2.635.563c2.738,0,4.811-1.633,4.811-4.454a3.694,3.694,0,0,0-3.86-3.962,5.186,5.186,0,0,0-1.563.239Zm.934,10.523a3.128,3.128,0,0,1-.934-.135V6.933a2.918,2.918,0,0,1,1.224-.255,2.12,2.12,0,0,1,2.106,2.4,2.385,2.385,0,0,1-2.4,2.651" transform="translate(13.148 0.318)" fill="#2b2c2c"/>
            <path id="Path_18858" data-name="Path 18858" d="M71.711,1.271H69.67V5.165a6,6,0,0,0-1.088-.1,4.177,4.177,0,0,0-4.4,4.3c0,2.652,1.954,4.114,4.572,4.114a7.286,7.286,0,0,0,2.958-.6ZM68.718,11.794A2.292,2.292,0,0,1,66.253,9.33a2.373,2.373,0,0,1,2.447-2.6,3.952,3.952,0,0,1,.97.119V11.66a3.128,3.128,0,0,1-.952.134" transform="translate(16.954 0.336)" fill="#2b2c2c"/>
            <path id="Path_18859" data-name="Path 18859" d="M80.925,4.27c-2.3,0-3.622,1.819-3.622,4.234a3.846,3.846,0,0,0,4.115,4.182,5.39,5.39,0,0,0,2.838-.748l-.612-1.393a4.026,4.026,0,0,1-2.023.542,2.08,2.08,0,0,1-2.279-2.04h5.151V8.571c0-2.667-1.308-4.3-3.569-4.3m-1.6,3.366a1.646,1.646,0,0,1,1.563-1.819c1.072,0,1.531.9,1.549,1.819Z" transform="translate(20.421 1.128)" fill="#2b2c2c"/>
            <path id="Path_18860" data-name="Path 18860" d="M35.91,4.271a6.323,6.323,0,0,0-3.111.8l.664,1.311a4.535,4.535,0,0,1,2.109-.563c.934,0,1.546.407,1.546,1.343v.255l-1.378.051a4.985,4.985,0,0,0-2.073.46,2.3,2.3,0,0,0-1.36,2.193,2.509,2.509,0,0,0,2.67,2.566,3.3,3.3,0,0,0,2.311-.935h.169a1.762,1.762,0,0,0,.556.437l1.059.53.039.021.043-.021V7.98h-.013V7.194c0-1.939-1.072-2.923-3.231-2.923m-.356,6.815a1.061,1.061,0,0,1-1.191-1.1.974.974,0,0,1,.492-.918,2.558,2.558,0,0,1,1.174-.255l1.04-.033V10.46l.005.063a2.466,2.466,0,0,1-1.521.563" transform="translate(8.534 1.128)" fill="#2b2c2c"/>
            <path id="Path_18861" data-name="Path 18861" d="M38.928,4.131l-.039.02v8.366h2.023V6.839a3.231,3.231,0,0,1,1.923-.8c1.035,0,1.188.783,1.188,1.717v4.76h2.04V7.146l-.016-.3a3.137,3.137,0,0,1,1.9-.8c1.037,0,1.222.748,1.222,1.7v4.777H51.2V7.18c0-2.126-1.257-2.906-2.667-2.906a4.656,4.656,0,0,0-2.891,1.24A2.246,2.246,0,0,0,43.5,4.274a4.483,4.483,0,0,0-2.7,1.1h-.076A1.558,1.558,0,0,0,40,4.667l-1.032-.516Z" transform="translate(10.273 1.091)" fill="#2b2c2c"/>
            <path id="Path_18862" data-name="Path 18862" d="M60.751,4.3a2.987,2.987,0,0,0-2.209,1.066l-.224-.9H56.6v8.041h2.023V6.828a2.261,2.261,0,0,1,1.75-.99,2.015,2.015,0,0,1,1.243.464V4.454a2.571,2.571,0,0,0-.867-.152" transform="translate(14.953 1.136)" fill="#2b2c2c"/>
            <path id="Path_18863" data-name="Path 18863" d="M62.6,1.473A1.212,1.212,0,0,0,61.356,2.7,1.2,1.2,0,0,0,62.6,3.9a1.216,1.216,0,1,0,0-2.43m1.02,3.739H61.577v8.041h2.039Z" transform="translate(16.208 0.389)" fill="#2b2c2c"/>
            <path id="Path_18864" data-name="Path 18864" d="M78.962,4.024H75.807v0H74.579A3,3,0,0,0,71.3,6.985a2.815,2.815,0,0,0,1.343,2.5A1.968,1.968,0,0,0,71.67,11,1.135,1.135,0,0,0,72.2,12a2.165,2.165,0,0,0-1.446,1.938c0,1.393,1.375,2.361,3.739,2.361,2.787,0,4.25-1.19,4.25-2.651,0-3.009-5.287-1.666-5.287-3.111a1.132,1.132,0,0,1,.2-.6,3.34,3.34,0,0,0,.986.137c1.954,0,3.332-1.172,3.332-2.976A2.788,2.788,0,0,0,77.41,5.4h.231V5.387a1.09,1.09,0,0,0,.972-.609l.348-.7.014-.028ZM74.628,8.55a1.4,1.4,0,0,1-1.412-1.5,1.351,1.351,0,0,1,1.4-1.5,1.439,1.439,0,0,1,1.444,1.513A1.353,1.353,0,0,1,74.628,8.55m.135,6.323c-1.343,0-2.192-.493-2.192-1.292a1.356,1.356,0,0,1,.645-1.053c1.088.423,3.588.187,3.588,1.343,0,.6-.817,1-2.04,1" transform="translate(18.69 1.063)" fill="#2b2c2c"/>
            <rect id="Rectangle_9610" data-name="Rectangle 9610" width="1.508" height="11.168" transform="translate(31.899 19.097)" fill="#2b2c2c"/>
            <path id="Path_18865" data-name="Path 18865" d="M28.142,17.642H29.4l.187.984a4.376,4.376,0,0,1,2.779-1.187c1.27,0,2.439.747,2.439,2.848v5.371H33.311V20.777c0-1.135-.272-2.016-1.374-2.016a3.722,3.722,0,0,0-2.3,1.085v5.813H28.142Z" transform="translate(7.434 4.607)" fill="#2b2c2c"/>
            <path id="Path_18866" data-name="Path 18866" d="M35.627,24.3V19.283H34.254v-1.2h1.373V16.251l1.492-.474v2.3h2.406l-.407,1.2h-2v4.728c0,.712.288,1.018.813,1.018A2.473,2.473,0,0,0,39.22,24.6l.491,1.035a3.824,3.824,0,0,1-2.117.626A1.792,1.792,0,0,1,35.627,24.3" transform="translate(9.049 4.168)" fill="#2b2c2c"/>
            <path id="Path_18867" data-name="Path 18867" d="M40.618,21.979A2.447,2.447,0,0,0,43.143,24.6a4.122,4.122,0,0,0,2-.541L45.6,25.1a5.019,5.019,0,0,1-2.626.728c-2.659,0-3.88-1.949-3.88-4.236,0-2.44,1.339-4.15,3.388-4.15,2.1,0,3.306,1.608,3.306,4.167v.373Zm3.627-1.119c-.018-1.118-.559-2.236-1.764-2.236a2.015,2.015,0,0,0-1.863,2.236Z" transform="translate(10.327 4.607)" fill="#2b2c2c"/>
            <path id="Path_18868" data-name="Path 18868" d="M45.5,17.642h1.254l.169.984a2.975,2.975,0,0,1,2.253-1.187,1.876,1.876,0,0,1,.951.238L49.6,19a1.62,1.62,0,0,0-.779-.2,2.716,2.716,0,0,0-1.829,1.033v5.83H45.5Z" transform="translate(12.02 4.607)" fill="#2b2c2c"/>
            <path id="Path_18869" data-name="Path 18869" d="M49.722,17.642h1.254l.187.984a4.381,4.381,0,0,1,2.779-1.187c1.272,0,2.439.747,2.439,2.848v5.371H54.891V20.777c0-1.135-.271-2.016-1.374-2.016a3.725,3.725,0,0,0-2.3,1.085v5.813H49.722Z" transform="translate(13.135 4.607)" fill="#2b2c2c"/>
            <path id="Path_18870" data-name="Path 18870" d="M61.013,24.793a3.43,3.43,0,0,1-2.389,1.032,2.418,2.418,0,0,1-2.574-2.507A2.274,2.274,0,0,1,57.4,21.148a5.053,5.053,0,0,1,2.019-.407l1.489-.049v-.423a1.49,1.49,0,0,0-1.661-1.628,4.16,4.16,0,0,0-2.186.628l-.526-1.034a5.63,5.63,0,0,1,2.9-.8c1.815,0,2.967.862,2.967,2.794v2.915a12.16,12.16,0,0,0,.152,2.508H61.266Zm-1.406-2.983A3.221,3.221,0,0,0,58.2,22.1a1.226,1.226,0,0,0-.628,1.135,1.293,1.293,0,0,0,1.389,1.373,2.793,2.793,0,0,0,1.949-.915V21.757Z" transform="translate(14.807 4.607)" fill="#2b2c2c"/>
            <path id="Path_18871" data-name="Path 18871" d="M63.279,24.3V19.283H61.906v-1.2h1.373V16.251l1.493-.474v2.3h2.4l-.406,1.2h-2v4.728c0,.712.286,1.018.812,1.018a2.477,2.477,0,0,0,1.289-.425l.489,1.035a3.824,3.824,0,0,1-2.117.626A1.792,1.792,0,0,1,63.279,24.3" transform="translate(16.354 4.168)" fill="#2b2c2c"/>
            <path id="Path_18872" data-name="Path 18872" d="M67,15.733a.966.966,0,0,1,1.932,0,.958.958,0,0,1-.982.966A.931.931,0,0,1,67,15.733m.2,2.609H68.7v8.016H67.2Z" transform="translate(17.699 3.905)" fill="#2b2c2c"/>
            <path id="Path_18873" data-name="Path 18873" d="M69.561,21.64c0-2.372,1.509-4.2,3.813-4.2,2.27,0,3.8,1.831,3.8,4.2,0,2.356-1.508,4.186-3.813,4.186-2.286,0-3.8-1.829-3.8-4.186m6.065,0c0-1.727-.847-2.966-2.253-2.966-1.423,0-2.27,1.239-2.27,2.966,0,1.712.847,2.948,2.253,2.948,1.423,0,2.27-1.236,2.27-2.948" transform="translate(18.376 4.607)" fill="#2b2c2c"/>
            <path id="Path_18874" data-name="Path 18874" d="M76.665,17.642h1.254l.186.984a4.39,4.39,0,0,1,2.78-1.187c1.27,0,2.439.747,2.439,2.848v5.371H81.834V20.777c0-1.135-.271-2.016-1.373-2.016a3.725,3.725,0,0,0-2.3,1.085v5.813H76.665Z" transform="translate(20.252 4.607)" fill="#2b2c2c"/>
            <path id="Path_18875" data-name="Path 18875" d="M87.955,24.793a3.43,3.43,0,0,1-2.389,1.032,2.418,2.418,0,0,1-2.574-2.507,2.271,2.271,0,0,1,1.355-2.169,5.038,5.038,0,0,1,2.015-.407l1.492-.049v-.423a1.49,1.49,0,0,0-1.66-1.628,4.154,4.154,0,0,0-2.187.628l-.526-1.034a5.63,5.63,0,0,1,2.9-.8c1.814,0,2.967.862,2.967,2.794v2.915a12.16,12.16,0,0,0,.152,2.508H88.208Zm-1.406-2.983a3.221,3.221,0,0,0-1.406.288,1.226,1.226,0,0,0-.628,1.135A1.293,1.293,0,0,0,85.9,24.606a2.793,2.793,0,0,0,1.951-.915V21.757Z" transform="translate(21.924 4.607)" fill="#2b2c2c"/>
            <path id="Path_18876" data-name="Path 18876" d="M89.479,14.449h1.493v10c0,.609.185.8.592.8a1.741,1.741,0,0,0,.509-.1l.3,1.171a3.471,3.471,0,0,1-1.236.239,1.494,1.494,0,0,1-1.661-1.68Z" transform="translate(23.637 3.817)" fill="#2b2c2c"/>
            <path id="Path_18877" data-name="Path 18877" d="M95.631,15.106h5.642l-.458,1.287H97.14v3.542h3.642v1.288H97.14v3.762h4.2v1.287h-5.71Z" transform="translate(25.263 3.99)" fill="#2b2c2c"/>
            <path id="Path_18878" data-name="Path 18878" d="M101.193,22.534a4.117,4.117,0,0,1,4.221-4.3,4.558,4.558,0,0,1,1.269.152V14.448h1.493V26.057a6.088,6.088,0,0,1-2.678.56c-2.391,0-4.306-1.407-4.306-4.083m5.49,2.626v-5.49a3.373,3.373,0,0,0-1.168-.186,2.746,2.746,0,0,0-2.78,3.016,2.613,2.613,0,0,0,2.8,2.846,3.159,3.159,0,0,0,1.15-.186" transform="translate(26.732 3.817)" fill="#2b2c2c"/>
            <path id="Path_18879" data-name="Path 18879" d="M108.425,24.258a4.349,4.349,0,0,1-.221-1.525V17.6H109.7v4.863a3.354,3.354,0,0,0,.153,1.186,1.221,1.221,0,0,0,1.287.829,2.791,2.791,0,0,0,2.052-1V17.6h1.49v5.541a10.423,10.423,0,0,0,.169,2.474h-1.322l-.255-.9a3.873,3.873,0,0,1-2.609,1.068,2.272,2.272,0,0,1-2.235-1.526" transform="translate(28.584 4.649)" fill="#2b2c2c"/>
            <path id="Path_18880" data-name="Path 18880" d="M114.532,21.725a4.047,4.047,0,0,1,4.066-4.287,4.179,4.179,0,0,1,2.05.508v1.3a3.391,3.391,0,0,0-1.933-.576,2.673,2.673,0,0,0-2.642,2.966c0,1.881,1,2.949,2.54,2.949a3.756,3.756,0,0,0,1.915-.561l.441,1.051a4.707,4.707,0,0,1-2.559.747,3.775,3.775,0,0,1-3.878-4.1" transform="translate(30.256 4.607)" fill="#2b2c2c"/>
            <path id="Path_18881" data-name="Path 18881" d="M125.017,24.793a3.427,3.427,0,0,1-2.389,1.032,2.418,2.418,0,0,1-2.574-2.507,2.273,2.273,0,0,1,1.355-2.169,5.045,5.045,0,0,1,2.016-.407l1.49-.049v-.423a1.49,1.49,0,0,0-1.661-1.628,4.148,4.148,0,0,0-2.184.628l-.526-1.034a5.614,5.614,0,0,1,2.9-.8c1.814,0,2.966.862,2.966,2.794v2.915a12.031,12.031,0,0,0,.153,2.508h-1.289Zm-1.406-2.983a3.226,3.226,0,0,0-1.406.288,1.225,1.225,0,0,0-.627,1.135,1.293,1.293,0,0,0,1.389,1.373,2.789,2.789,0,0,0,1.948-.915V21.757Z" transform="translate(31.714 4.607)" fill="#2b2c2c"/>
            <path id="Path_18882" data-name="Path 18882" d="M127.284,24.3V19.283h-1.373v-1.2h1.373V16.251l1.492-.474v2.3h2.406l-.406,1.2h-2v4.728c0,.712.288,1.018.813,1.018a2.473,2.473,0,0,0,1.288-.425l.49,1.035a3.824,3.824,0,0,1-2.117.626,1.792,1.792,0,0,1-1.966-1.965" transform="translate(33.262 4.168)" fill="#2b2c2c"/>
            <path id="Path_18883" data-name="Path 18883" d="M131,15.733a.926.926,0,0,1,.949-.949.936.936,0,0,1,.985.949.961.961,0,0,1-.985.966.932.932,0,0,1-.949-.966m.2,2.609H132.7v8.016h-1.492Z" transform="translate(34.607 3.905)" fill="#2b2c2c"/>
            <path id="Path_18884" data-name="Path 18884" d="M133.565,21.64c0-2.372,1.509-4.2,3.813-4.2,2.27,0,3.8,1.831,3.8,4.2,0,2.356-1.508,4.186-3.813,4.186-2.286,0-3.8-1.829-3.8-4.186m6.065,0c0-1.727-.847-2.966-2.253-2.966-1.423,0-2.27,1.239-2.27,2.966,0,1.712.847,2.948,2.253,2.948,1.423,0,2.27-1.236,2.27-2.948" transform="translate(35.284 4.607)" fill="#2b2c2c"/>
            <path id="Path_18885" data-name="Path 18885" d="M140.669,17.642h1.254l.187.984a4.381,4.381,0,0,1,2.779-1.187c1.27,0,2.439.747,2.439,2.848v5.371h-1.489V20.777c0-1.135-.271-2.016-1.374-2.016a3.725,3.725,0,0,0-2.3,1.085v5.813h-1.493Z" transform="translate(37.16 4.607)" fill="#2b2c2c"/>
            <path id="Path_18886" data-name="Path 18886" d="M21.7,14.456a14.3,14.3,0,0,1-.6,3.715,9.092,9.092,0,0,1-1.408,2.793,9.82,9.82,0,0,1-3.4,2.724c-.077.043-.619.32-3.22,1.613l.029.059h.066V14.525h8.6v-.131H13.03V25.468l.1-.048c2.6-1.3,3.14-1.57,3.222-1.616a9.954,9.954,0,0,0,3.444-2.761,9.272,9.272,0,0,0,1.434-2.834,14.564,14.564,0,0,0,.6-3.748Z" transform="translate(3.442 3.802)" fill="#ffdd1f"/>
            <path id="Path_18887" data-name="Path 18887" d="M9.585,14.46v10.9H9.65l.03-.059c-2.6-1.295-3.143-1.571-3.22-1.613a9.873,9.873,0,0,1-3.4-2.724A9.1,9.1,0,0,1,1.65,18.171a14.183,14.183,0,0,1-.6-3.715l-.064,0v.066H9.65v-.131H.913l0,.068a14.57,14.57,0,0,0,.606,3.748,9.282,9.282,0,0,0,1.431,2.834A9.983,9.983,0,0,0,6.4,23.806c.082.044.623.32,3.222,1.614l.1.048V14.46Z" transform="translate(0.241 3.802)" fill="#ffdd1f"/>
            <path id="Path_18888" data-name="Path 18888" d="M21.781,2.169V2.1H13.029v9.021h8.818V2.1h-.066v.064h-.066v8.824H13.163V2.236h8.618V2.169h0Z" transform="translate(3.442 0.556)" fill="#262526"/>
            <path id="Path_18889" data-name="Path 18889" d="M9.653,2.169V2.1H.9v9.021H9.719V2.1H9.653v.064H9.588v8.824H1.036V2.236H9.653V2.169h0Z" transform="translate(0.238 0.556)" fill="#262526"/>
            <path id="Path_18890" data-name="Path 18890" d="M13.214,31.858l-.263-.14c-.391-.195-6.5-3.227-6.858-3.426C4.116,27.216,0,24.979,0,17.143V1.2H26.429V17.143c0,7.837-4.116,10.073-6.093,11.149-.363.2-6.5,3.25-6.858,3.426Z" transform="translate(0 0.318)" fill="#2b2c2c"/>
            <path id="Path_18891" data-name="Path 18891" d="M15.785,11.813V1.655H10.407V11.813H.453V17.19h9.953V29.752c1.435.716,2.686,1.337,2.686,1.337h0s1.254-.622,2.689-1.337V17.19h9.953V11.813Z" transform="translate(0.12 0.437)" fill="#fff"/>
            <rect id="Rectangle_9611" data-name="Rectangle 9611" width="9.955" height="10.158" transform="translate(0.571 2.09)" fill="#e43d33"/>
            <rect id="Rectangle_9612" data-name="Rectangle 9612" width="9.955" height="10.158" transform="translate(15.904 2.092)" fill="#e43d33"/>
            <path id="Path_18892" data-name="Path 18892" d="M10.407,13.943H.454c.057,7.283,3.791,9.391,5.794,10.48.2.111,2.329,1.173,4.159,2.083Z" transform="translate(0.12 3.683)" fill="#e43d33"/>
            <path id="Path_18893" data-name="Path 18893" d="M12.581,13.943V26.506c1.831-.91,3.956-1.972,4.159-2.083,2-1.088,5.738-3.2,5.794-10.48Z" transform="translate(3.323 3.683)" fill="#e43d33"/>
            <path id="Path_18894" data-name="Path 18894" d="M15.438,11.994l.2-.244-.258-.307-.259.307.2.244c0,.124.011,1.2-.623,1.587a1.491,1.491,0,0,0,.5-.014,3.222,3.222,0,0,0,.182.6,3.29,3.29,0,0,0,.183-.6,1.481,1.481,0,0,0,.494.014c-.635-.387-.627-1.463-.623-1.587" transform="translate(3.885 3.023)" fill="#2b2c2c"/>
            <path id="Path_18895" data-name="Path 18895" d="M16.72,10.547l.206-.244L16.665,10l-.259.308.206.244c0,.124.011,1.2-.623,1.587a1.443,1.443,0,0,0,.494-.014,3.2,3.2,0,0,0,.182.6,3.219,3.219,0,0,0,.185-.6,1.443,1.443,0,0,0,.494.014c-.635-.386-.627-1.463-.625-1.587" transform="translate(4.224 2.64)" fill="#2b2c2c"/>
            <path id="Path_18896" data-name="Path 18896" d="M18,11.994l.206-.244-.26-.307-.259.307.2.244c0,.124.011,1.2-.623,1.587a1.491,1.491,0,0,0,.5-.014,3.222,3.222,0,0,0,.182.6,3.362,3.362,0,0,0,.185-.6,1.483,1.483,0,0,0,.494.014c-.636-.387-.628-1.463-.625-1.587" transform="translate(4.562 3.023)" fill="#2b2c2c"/>
            <path id="Path_18897" data-name="Path 18897" d="M19.285,10.547l.2-.244L19.231,10l-.26.308.206.244c0,.124.011,1.2-.623,1.587a1.445,1.445,0,0,0,.494-.014,3.268,3.268,0,0,0,.183.6,3.268,3.268,0,0,0,.183-.6,1.441,1.441,0,0,0,.494.014c-.635-.386-.627-1.463-.623-1.587" transform="translate(4.901 2.64)" fill="#2b2c2c"/>
            <path id="Path_18898" data-name="Path 18898" d="M14.156,10.547l.206-.244L14.1,10l-.259.308.2.244c0,.124.013,1.2-.623,1.587a1.451,1.451,0,0,0,.5-.014,3.2,3.2,0,0,0,.182.6,3.219,3.219,0,0,0,.185-.6,1.443,1.443,0,0,0,.494.014c-.635-.386-.628-1.463-.624-1.587" transform="translate(3.546 2.64)" fill="#2b2c2c"/>
            <path id="Path_18899" data-name="Path 18899" d="M3.3,11.994,3.5,11.75l-.26-.307-.259.307.2.244c0,.124.013,1.2-.623,1.587a1.491,1.491,0,0,0,.5-.014,3.222,3.222,0,0,0,.182.6,3.362,3.362,0,0,0,.185-.6,1.491,1.491,0,0,0,.5.014c-.636-.387-.63-1.463-.626-1.587" transform="translate(0.677 3.023)" fill="#2b2c2c"/>
            <path id="Path_18900" data-name="Path 18900" d="M4.578,10.547l.206-.244L4.524,10l-.26.308.206.244c0,.124.013,1.2-.624,1.587a1.459,1.459,0,0,0,.5-.014,3.2,3.2,0,0,0,.182.6,3.152,3.152,0,0,0,.183-.6,1.441,1.441,0,0,0,.494.014c-.633-.386-.627-1.463-.623-1.587" transform="translate(1.016 2.64)" fill="#2b2c2c"/>
            <path id="Path_18901" data-name="Path 18901" d="M5.861,11.994l.2-.244-.26-.307-.258.307.2.244c0,.124.011,1.2-.623,1.587a1.481,1.481,0,0,0,.494-.014,3.342,3.342,0,0,0,.182.6,3.241,3.241,0,0,0,.185-.6,1.483,1.483,0,0,0,.494.014c-.636-.387-.627-1.463-.623-1.587" transform="translate(1.355 3.023)" fill="#2b2c2c"/>
            <path id="Path_18902" data-name="Path 18902" d="M7.143,10.547l.206-.244L7.088,10l-.259.308.2.244c0,.124.011,1.2-.622,1.587a1.443,1.443,0,0,0,.494-.014,3.2,3.2,0,0,0,.182.6,3.219,3.219,0,0,0,.185-.6,1.443,1.443,0,0,0,.494.014c-.635-.386-.627-1.463-.624-1.587" transform="translate(1.694 2.64)" fill="#2b2c2c"/>
            <path id="Path_18903" data-name="Path 18903" d="M2.014,10.547l.2-.244L1.958,10,1.7,10.3l.2.244c0,.124.013,1.2-.622,1.587a1.448,1.448,0,0,0,.5-.014,3.249,3.249,0,0,0,.181.6,3.219,3.219,0,0,0,.185-.6,1.443,1.443,0,0,0,.494.014c-.635-.386-.627-1.463-.623-1.587" transform="translate(0.339 2.64)" fill="#2b2c2c"/>
            <path id="Path_18904" data-name="Path 18904" d="M10.66,15.258l.2-.244-.259-.308-.26.308.206.244c0,.124.011,1.2-.624,1.585a1.489,1.489,0,0,0,.5-.014,3.232,3.232,0,0,0,.183.6,3.232,3.232,0,0,0,.183-.6,1.484,1.484,0,0,0,.494.014c-.636-.386-.627-1.461-.623-1.585" transform="translate(2.622 3.885)" fill="#2b2c2c"/>
            <path id="Path_18905" data-name="Path 18905" d="M10.66,19.612l.2-.245-.259-.306-.26.306.206.245c0,.123.011,1.2-.624,1.587a1.433,1.433,0,0,0,.5-.015,3.286,3.286,0,0,0,.183.6,3.285,3.285,0,0,0,.183-.6,1.428,1.428,0,0,0,.494.015c-.636-.386-.627-1.464-.623-1.587" transform="translate(2.622 5.035)" fill="#2b2c2c"/>
            <path id="Path_18906" data-name="Path 18906" d="M11.848,17.435l.206-.244-.26-.308-.259.308.206.244c0,.123.011,1.2-.623,1.587a1.465,1.465,0,0,0,.494-.015,3.217,3.217,0,0,0,.182.6,3.236,3.236,0,0,0,.185-.6,1.465,1.465,0,0,0,.494.015c-.635-.386-.627-1.464-.624-1.587" transform="translate(2.937 4.46)" fill="#2b2c2c"/>
            <path id="Path_18907" data-name="Path 18907" d="M9.457,17.435l.2-.244L9.4,16.883l-.259.308.2.244c0,.123.011,1.2-.623,1.587a1.474,1.474,0,0,0,.5-.015,3.217,3.217,0,0,0,.182.6,3.285,3.285,0,0,0,.183-.6,1.474,1.474,0,0,0,.5.015c-.636-.386-.627-1.464-.624-1.587" transform="translate(2.305 4.46)" fill="#2b2c2c"/>
            <path id="Path_18908" data-name="Path 18908" d="M11.848,21.788l.206-.244-.26-.307-.259.307.206.244c0,.124.011,1.2-.623,1.587a1.443,1.443,0,0,0,.494-.014,3.222,3.222,0,0,0,.182.6,3.241,3.241,0,0,0,.185-.6,1.443,1.443,0,0,0,.494.014c-.635-.386-.627-1.463-.624-1.587" transform="translate(2.937 5.61)" fill="#2b2c2c"/>
            <path id="Path_18909" data-name="Path 18909" d="M9.457,21.788l.2-.244L9.4,21.237l-.259.307.2.244c0,.124.011,1.2-.623,1.587a1.451,1.451,0,0,0,.5-.014,3.222,3.222,0,0,0,.182.6,3.29,3.29,0,0,0,.183-.6,1.451,1.451,0,0,0,.5.014c-.636-.386-.627-1.463-.624-1.587" transform="translate(2.305 5.61)" fill="#2b2c2c"/>
            <path id="Path_18910" data-name="Path 18910" d="M10.66,5.342l.2-.245-.259-.307-.26.307.206.245c0,.123.011,1.2-.624,1.585a1.449,1.449,0,0,0,.5-.014,3.286,3.286,0,0,0,.183.6,3.286,3.286,0,0,0,.183-.6,1.444,1.444,0,0,0,.494.014c-.636-.386-.627-1.463-.623-1.585" transform="translate(2.622 1.265)" fill="#2b2c2c"/>
            <path id="Path_18911" data-name="Path 18911" d="M11.848,3.165l.206-.244-.26-.308-.259.308.206.244c0,.124.011,1.2-.623,1.587a1.426,1.426,0,0,0,.494-.015,3.218,3.218,0,0,0,.182.6,3.236,3.236,0,0,0,.185-.6,1.426,1.426,0,0,0,.494.015c-.635-.387-.627-1.463-.624-1.587" transform="translate(2.937 0.69)" fill="#2b2c2c"/>
            <path id="Path_18912" data-name="Path 18912" d="M9.457,3.165l.2-.244L9.4,2.613l-.259.308.2.244c0,.124.011,1.2-.623,1.587a1.435,1.435,0,0,0,.5-.015,3.218,3.218,0,0,0,.182.6,3.286,3.286,0,0,0,.183-.6,1.435,1.435,0,0,0,.5.015c-.636-.387-.627-1.463-.624-1.587" transform="translate(2.305 0.69)" fill="#2b2c2c"/>
            <path id="Path_18913" data-name="Path 18913" d="M11.848,7.519l.206-.243-.26-.31-.259.31.206.243c0,.124.011,1.2-.623,1.587a1.465,1.465,0,0,0,.494-.015,3.218,3.218,0,0,0,.182.6,3.236,3.236,0,0,0,.185-.6,1.465,1.465,0,0,0,.494.015c-.635-.387-.627-1.463-.624-1.587" transform="translate(2.937 1.84)" fill="#2b2c2c"/>
            <path id="Path_18914" data-name="Path 18914" d="M9.457,7.519l.2-.243L9.4,6.967l-.259.31.2.243c0,.124.011,1.2-.623,1.587a1.474,1.474,0,0,0,.5-.015,3.217,3.217,0,0,0,.182.6,3.286,3.286,0,0,0,.183-.6,1.474,1.474,0,0,0,.5.015c-.636-.387-.627-1.463-.624-1.587" transform="translate(2.305 1.84)" fill="#2b2c2c"/>
            <path id="Path_18915" data-name="Path 18915" d="M8.192,6.607l.034.126L8.293,7c.1.48.2.608.43.608A.281.281,0,0,0,9,7.424l.051-.168.081-.062c.091,0,.135.095.137.307,0,.059.023.2.061.412a2.082,2.082,0,0,1,.033.368l-.049.264a3.557,3.557,0,0,1,.049.518,1.079,1.079,0,0,1-.1.5,1.048,1.048,0,0,1,.043.317l-.027.281a2.379,2.379,0,0,0-.047.292l.023.113.024.1-.024.043-.169-.068-.186-.1L8.707,10.4c-.166.147-.214.169-.643.287l-.185.077-.113.057c-.073,0-.106-.116-.106-.358a1.947,1.947,0,0,1,.051-.47,1.006,1.006,0,0,0-.3-.076L7.28,9.93l-.03,0L7.2,9.85l.052-.182.085-.2.2-.244.221-.128.3-.059c.182-.034.291-.13.291-.255s-.083-.2-.264-.267l-.363-.126L7.4,8.226c-.2-.12-.235-.135-.284-.135L7,8.24a.236.236,0,0,0,.236.257l.085-.018.086-.024.061.063,0,.037L7.448,8.7a1.15,1.15,0,0,1-.269.506l-.075.1a1.155,1.155,0,0,1-.458.667l-.092.067-.068.118-.166.2-.212.193-.169.152-.085.144-.067.042c-.075,0-.143-.077-.185-.21l-.123-.128-.148.024-.118.019H4.909a1.331,1.331,0,0,0-.463.085l-.087.027L4.3,10.656l-.019-.067a1.646,1.646,0,0,1,.253-.676.909.909,0,0,1,.23-.268.386.386,0,0,0-.236-.288l-.145-.042-.033-.04c0-.044.07-.1.195-.169a1.054,1.054,0,0,1,.464-.137.685.685,0,0,1,.43.18c.229.177.292.21.4.21A.364.364,0,0,0,6.2,9.02a.785.785,0,0,0-.222-.448,1.049,1.049,0,0,1-.307-.685.824.824,0,0,1,.1-.394l.083-.126.028-.082-.153-.1a1.443,1.443,0,0,0-.593.22l-.171.181.037.066.092.058.019.035-.035.066-.168.22a2.989,2.989,0,0,1-.355.37l-.083.085L4.4,8.614a1.318,1.318,0,0,1-.373.381l-.118.092L3.839,9.2l-.11.177-.2.263-.236.236a1.339,1.339,0,0,0-.236.521c-.059.187-.114.3-.147.3l-.064-.052c-.167-.191-.31-.3-.386-.3l-.095.042-.228.086-.314.059a.642.642,0,0,0-.461.253l-.076.058-.044-.1.009-.078.043-.228a1.808,1.808,0,0,1,.169-.549l.14-.262.042-.137a.459.459,0,0,0-.445-.4L1.112,9.04l.162-.2a1.023,1.023,0,0,1,.531-.219,1.153,1.153,0,0,1,.381.1L2.37,8.8l.188.043c.2,0,.388-.18.622-.582a.885.885,0,0,0,.152-.434c0-.214-.1-.344-.268-.344a.548.548,0,0,0-.365.159L2.57,7.9l0,.094,0,.023L2.5,8.143c-.08,0-.195-.115-.526-.516A.982.982,0,0,1,1.662,6.9c-.287-.364-.358-.52-.358-.779l.011-.173a.813.813,0,0,1-.254-.588l.061-.224A.841.841,0,0,1,.962,4.81l-.04-.18L.785,4.318.7,4.159c0-.1.068-.137.363-.21l-.015-.187.024-.2.059-.312a1.555,1.555,0,0,0,.037-.269A.848.848,0,0,0,1.1,2.709L1.03,2.514.978,2.4l.058-.046a1.407,1.407,0,0,1,.532.322,1.325,1.325,0,0,1,.65,1.047l.024.169a.743.743,0,0,1,.355.6,1.046,1.046,0,0,1-.167.54l-.169.263-.076.278a.973.973,0,0,0,.159.507c.129.228.24.32.375.32.222,0,.417-.388.417-.827V5.509l0-.15.02-.278c.015-.133.023-.214.025-.244l.009-.206,0-.133L3.1,4.339l-.185-.2A1.314,1.314,0,0,1,2.5,3.36a.431.431,0,0,1,.431-.448l.18.033V2.887c0-.373.076-.647.178-.647l.04.013.152.135.185.118.053.051L3.83,2.32l.119-.161.083-.124.042-.078.071-.062.073.121c.019.058.033.073.178.2l.1.11.068.168.025.068.168-.154.128-.075.092-.044.042.052.067.128a.639.639,0,0,1,.12.3v.185a.472.472,0,0,1,.381.527,1.2,1.2,0,0,1-.33.723c-.145.171-.162.2-.162.325,0,.624.435.987,1.2,1l.564.009a2.751,2.751,0,0,1,.92.152,2.238,2.238,0,0,0,.635.161L8.52,5.82l.051-.073c0-.118-.206-.215-.886-.406C6.294,4.948,5.7,4.387,5.7,3.465A1.3,1.3,0,0,1,7.06,2.2a2.925,2.925,0,0,1,.843.144l.346.128.182.034c.118,0,.178-.1.182-.3l.1-.143c.1,0,.247.12.383.311a1.092,1.092,0,0,1,.23.554.487.487,0,0,1-.3.444.829.829,0,0,1-.736.418,2.738,2.738,0,0,1-1.163-.461.834.834,0,0,0-.407-.152.219.219,0,0,0-.245.217c0,.123.094.2.34.288a1.2,1.2,0,0,1,.6.33A1.689,1.689,0,0,1,8.3,4.37,1.492,1.492,0,0,1,9.5,5.69a.907.907,0,0,1-.909.967,1.564,1.564,0,0,1-.4-.051" transform="translate(0.185 0.501)" fill="#2b2c2c"/>
            <path id="Path_18916" data-name="Path 18916" d="M8.86,10.225l-.032-.2.005-.068.027-.134.009-.109-.061-.254-.1-.135-.083-.161-.016-.07.059-.064.11.049.081.03c.051,0,.078-.082.078-.226a.515.515,0,0,0-.049-.293l-.129-.143-.11-.092L8.6,8.279l.071-.061.186.042.038.008L8.946,8.2l0-.033L8.918,7.99,8.868,7.8,8.8,7.734l-.021,0-.211.04-.033,0a.748.748,0,0,1-.657-.526l-.168-.549a1.147,1.147,0,0,0-.407-.516L7.139,6.1l-.153-.018-.048-.042.107-.051.278.025a2.136,2.136,0,0,1,.455.118,1.786,1.786,0,0,0,.566.124.593.593,0,0,0,.675-.609A1.082,1.082,0,0,0,8.675,4.9L8.4,4.715l-.043.044.009.107v.011L8.3,4.951l-.147-.168a.808.808,0,0,0-.675-.528L7.408,4.3l.042.123.068.152.025.076-.034.021-.145-.08-.125-.137L7.13,4.285a.768.768,0,0,0-.348-.295l-.2-.11-.1-.034-.046.044.033.091.086.169L6.506,4.2c-.064,0-.2-.133-.321-.312a.856.856,0,0,1-.152-.475.611.611,0,0,1,.623-.632,1.31,1.31,0,0,1,.635.212l.394.245a1.055,1.055,0,0,0,.464.153L8.4,3.35l.1-.042.04-.048-.023-.037-.051-.016-.186-.035-.228-.083a4.5,4.5,0,0,1-.422-.211,1.689,1.689,0,0,0-.277-.161l-.113-.081L7.276,2.6l.088.033.312.118.364.128a2.275,2.275,0,0,0,.561.118.279.279,0,0,0,.278-.279l-.148-.369L8.675,2.3l-.052.068.008.068.014.1-.168.2-.131-.027L7.8,2.53a2.845,2.845,0,0,0-.9-.193A1.085,1.085,0,0,0,5.737,3.381c0,.67.47,1.1,1.637,1.5,1.145.394,1.307.489,1.307.785a.356.356,0,0,1-.363.321l-.2-.018c-.039-.009-.23-.052-.574-.134A4.247,4.247,0,0,0,6.494,5.72a2.148,2.148,0,0,0-1.686.532l-.245.111-.057,0-.119-.008H4.372L4.134,6.5c-.09.142-.138.22-.142.228l-.1.051c-.076,0-.12-.057-.209-.26l-.176-.255-.169-.152L3.3,6.051l.03-.078.121-.22.07-.116c.053,0,.068.052.072.245l.068.228.094.2.076.044c.086,0,.2-.206.226-.423.024-.182.042-.238.082-.238l.035.019.077.15.109.128.1.061h.009c.068,0,.094-.044.109-.206l.009-.082-.018-.119-.011-.082.049-.087.064.035.083.083.168.085L5.038,5.6,4.96,5.409,4.9,5.3c-.067-.128-.12-.178-.183-.178l-.087.009-.1.042-.054.019-.039-.033a.77.77,0,0,1,.144-.345,1.646,1.646,0,0,0,.137-.661c.028-.44.086-.726.148-.726l.057.128,0,.116,0,.082.038.142c.072,0,.157-.109.225-.282l.043-.172L5.215,3.4l-.169-.311-.168-.051L4.818,3V2.792l-.016-.1-.034-.085-.042-.091a.931.931,0,0,0-.339.253l-.135.12-.043-.044.027-.137.008-.047a.588.588,0,0,0-.293-.477l-.053.07-.057.083-.1.118-.083.169-.018.1v.043L3.6,2.853l-.021-.01-.058-.085-.094-.1-.143-.094L3.2,2.505l-.03.076-.043.135-.011.135-.006.143V3.02l-.062.1-.1-.042-.12-.035a.211.211,0,0,0-.216.234.73.73,0,0,0,.137.441l.106.144.091.051.02-.178-.027-.143,0-.064.048-.087c.049,0,.078.053.11.195l.066.312.067.4.1.336a2.045,2.045,0,0,0,.144.3l.1.163-.035.039-.077-.025-.1-.034L3.3,5.111c-.137,0-.164.118-.164.681A3.338,3.338,0,0,0,3.3,6.826l.174.446.043.211A3.063,3.063,0,0,1,1.806,9.509a.691.691,0,0,0-.463.69l-.009.111a1.114,1.114,0,0,1,.287-.118c.25-.067.3-.1.336-.22l.035-.111c.011-.039.033-.054.228-.159l.134-.11.1-.11.032.029-.008.03L2.4,9.783l-.01.059a.456.456,0,0,0,.282.416.764.764,0,0,1,.11-.354l.152-.236a.652.652,0,0,0,.077-.362l-.02-.263-.005-.066.059-.067.058.024.033.159.08.059c.082,0,.188-.106.3-.295l.062-.222L3.56,8.52l-.025-.125,0-.025.076-.092.037.015.051.2L3.8,8.6l.212-.212a.753.753,0,0,0,.078-.344c0-.181.018-.233.082-.233l.043.021.034.109.058.067.195-.21.025-.08L4.455,7.6,4.36,7.408a.506.506,0,0,1,.095-.295l.11-.2c.106-.209.145-.263.182-.263l.063.076-.019.07-.033.1.061.061L4.968,6.9A2.524,2.524,0,0,1,5.2,6.808l.279-.1.169-.025L5.8,6.7,6,6.732l.145-.14-.135-.257-.043-.077.01-.033.044-.034c.057,0,.188.143.31.331.724,1.144.986,1.421,1.477,1.569s.626.267.626.563a1.108,1.108,0,0,1-.264.6,1.652,1.652,0,0,0-.455,1.061v.062l.092-.042.134-.059.21-.042.12-.173v-.02l-.025-.186V9.83l.076-.178.043-.018.07.052.133.287a.489.489,0,0,0,.3.253" transform="translate(0.352 0.577)" fill="#ffdd1f"/>
            <path id="Path_18917" data-name="Path 18917" d="M1.935,3.706l-.1.169-.016.159a1.481,1.481,0,0,0-.02.2l.082.209.185-.22.037-.2-.037-.19Z" transform="translate(0.475 0.979)" fill="#ffdd1f"/>
            <path id="Path_18918" data-name="Path 18918" d="M1.476,2.749l.119.118a1.338,1.338,0,0,1,.286.966c0,.1,0,.168-.025.435-.011.14-.018.258-.018.349,0,1.045.341,1.837.791,1.837.142,0,.234-.067.365-.271l.078-.061.039.07.019.187.015.158.016.178.025.161V6.9l-.058.08L2.977,7,2.741,7.1a.675.675,0,0,0-.219.167l-.092.195L2.376,7.5c-.048,0-.129-.086-.217-.238a.782.782,0,0,1-.124-.274l.073-.037h.018l.11.008L2.3,6.952l.077-.008.052-.061L2.4,6.833l-.379-.159a.6.6,0,0,1-.287-.279,1.143,1.143,0,0,1-.153-.379l.07-.086.058.019.109.034.061-.053L1.8,5.837a1.014,1.014,0,0,1-.5-.722l.049-.094.063.006.109.016h0L1.6,4.979,1.534,4.9,1.4,4.825l-.115-.119c-.015-.023-.062-.111-.144-.271L1.02,4.21.944,4.067.892,4l.263-.068c.116,0,.19.073.272.279.051.129.106.216.138.216l.023-.1-.035-.252-.025-.187L1.51,3.771l-.1-.052-.075-.083-.07-.193.028-.153A2.322,2.322,0,0,0,1.4,2.738l0-.072Z" transform="translate(0.236 0.704)" fill="#ffdd1f"/>
            <path id="Path_18919" data-name="Path 18919" d="M2.38,7.588,2.135,7.53l-.159-.068a.854.854,0,0,0-.324-.083.506.506,0,0,0-.35.143l.075.058.168.12.162.125.138.052a.791.791,0,0,0,.536-.288" transform="translate(0.344 1.949)" fill="#ffdd1f"/>
            <path id="Path_18920" data-name="Path 18920" d="M4.974,9.486l.169-.219c.234-.2.345-.353.345-.473V8.609l.077-.143.049.024.043.1.071.039.123-.1.086-.119L6,8.25l-.019-.1L5.92,8.018l-.034-.133L5.962,7.8l.061.025.066.083.064.03.087-.073.07-.133.025-.076L6.258,7.58l-.109-.052a.6.6,0,0,1-.254-.54L5.91,6.9l.061-.143L6,6.618,5.91,6.356,5.8,6.178c-.051-.133-.075-.171-.118-.171l-.043.011-.059.034L5.489,6.1l-.11.137L5.263,6.3l-.138.31c0,.22.023.281.314.779a1.056,1.056,0,0,1,.173.483c0,.346-.312.593-.932.741L4.293,8.7a.672.672,0,0,0-.517.6.641.641,0,0,1,.375-.071l.123,0H4.3l.2-.111.278-.234.135-.059.109-.059.034-.011.048.037-.082.144a.446.446,0,0,0-.134.325Z" transform="translate(0.997 1.587)" fill="#ffdd1f"/>
            <path id="Path_18921" data-name="Path 18921" d="M3.883,7.746l.253.228.173.119.123-.018.076-.016c.138-.027.186-.048.186-.082l-.043-.07-.091-.085-.094-.085-.278-.095a.539.539,0,0,0-.3.1" transform="translate(1.026 2.019)" fill="#ffdd1f"/>
            <path id="Path_18922" data-name="Path 18922" d="M6.045,8.173,6.1,8.164l.077-.009.076.009.035,0a.37.37,0,0,0,.368-.325L6.5,7.751c-.226,0-.37.13-.459.422" transform="translate(1.597 2.048)" fill="#ffdd1f"/>
            <path id="Path_18923" data-name="Path 18923" d="M3.571,3.613l.091.143c.037,0,.078-.092.164-.24a1.507,1.507,0,0,0,.234-.508l-.043-.064-.006,0-.095.083a.771.771,0,0,1-.287.153l-.13.142.014.07.04.119Z" transform="translate(0.924 0.777)" fill="#2f2f27"/>
            <path id="Path_18924" data-name="Path 18924" d="M3.228,3.174l.142.076.061.082-.009.054-.006.178a.142.142,0,0,1-.167.149L3.167,3.62l-.185-.21a.785.785,0,0,1-.128-.379V3.008l.051-.062L3,2.989Z" transform="translate(0.754 0.778)" fill="#2f2f27"/>
            <path id="Path_18925" data-name="Path 18925" d="M3.511,3.848H3.466l-.1-.009-.1-.059-.12-.033-.126.1a1.168,1.168,0,0,0,.111.375l.109.269c.1.238.191.339.315.339s.126-.107.2-.3c.169-.423.262-.485.262-.636L3.9,3.772l-.08-.019-.135.086Z" transform="translate(0.798 0.99)" fill="#2f2f27"/>
            <path id="Path_18926" data-name="Path 18926" d="M3.573,3.994l-.135.025H3.329l-.044.025-.015.042.04.2.034.18.129.134.142-.159.018-.187.016-.192-.025-.052-.042-.019Z" transform="translate(0.864 1.055)" fill="#ffdd1f"/>
            <path id="Path_18927" data-name="Path 18927" d="M20.646,6.607l.033.126.07.271c.1.48.195.608.429.608a.281.281,0,0,0,.279-.187l.051-.168.08-.062c.091,0,.14.1.148.307a4.053,4.053,0,0,0,.049.412,2.337,2.337,0,0,1,.034.392l-.049.24.015.1a1.559,1.559,0,0,1,.037.31,1.017,1.017,0,0,1-.1.611,1.046,1.046,0,0,1,.046.3,2.764,2.764,0,0,1-.028.3l-.035.253.01.152.033.1-.033.043-.169-.068-.185-.1-.193-.152a.71.71,0,0,1-.382.211,1.614,1.614,0,0,0-.437.153l-.118.057c-.066,0-.11-.128-.11-.312a1.409,1.409,0,0,1,.058-.516,1.125,1.125,0,0,0-.307-.076l-.124.018-.037,0-.039-.081a1.032,1.032,0,0,1,.137-.387.763.763,0,0,1,.413-.372l.3-.059c.182-.034.289-.13.289-.255s-.08-.2-.263-.267l-.354-.126-.339-.161-.183-.11-.094-.025-.12.145a.254.254,0,0,0,.245.26l.083-.018.08-.024.066.088a1.081,1.081,0,0,1-.195.536l-.1.125-.076.1a1.127,1.127,0,0,1-.456.667l-.091.067-.07.118-.167.2-.211.193-.169.152-.086.144-.064.044c-.076,0-.144-.08-.188-.212l-.121-.128-.149.024-.115.019h-.3a1.321,1.321,0,0,0-.472.085l-.086.027-.068-.13a1.55,1.55,0,0,1,.475-.934.366.366,0,0,0-.228-.288l-.154-.042-.023-.04c0-.054.059-.106.192-.169a.889.889,0,0,1,.444-.137.677.677,0,0,1,.442.18c.229.176.292.21.4.21a.365.365,0,0,0,.353-.338.781.781,0,0,0-.224-.448,1.09,1.09,0,0,1-.3-.718.8.8,0,0,1,.177-.488l.035-.09-.161-.09a.888.888,0,0,0-.354.1c-.254.118-.407.225-.407.292l.043.072.085.058.019.035-.037.066c-.015.019-.073.092-.168.22A1.921,1.921,0,0,1,17,8.4l-.086.085-.066.126a1.474,1.474,0,0,1-.364.381l-.118.092-.076.118a2.535,2.535,0,0,1-.312.44l-.226.236a1.653,1.653,0,0,0-.245.521c-.071.2-.114.3-.147.3l-.064-.052c-.163-.187-.31-.3-.383-.3l-.1.042-.229.086-.3.059a.64.64,0,0,0-.472.253l-.07.058-.049-.1.006-.073c0-.006.018-.085.043-.228a1.819,1.819,0,0,1,.169-.549l.153-.262.042-.137c0-.195-.182-.353-.458-.4l-.083-.061.169-.191a.969.969,0,0,1,.517-.219,1.088,1.088,0,0,1,.386.1l.186.076.187.043c.2,0,.388-.18.621-.582a.863.863,0,0,0,.154-.436c0-.212-.1-.341-.267-.341a.507.507,0,0,0-.359.159l-.139.271L15.026,8l0,.046-.073.1c-.064,0-.139-.062-.284-.236l-.236-.279a.961.961,0,0,1-.321-.726,1.227,1.227,0,0,1-.358-.779l.011-.173a.744.744,0,0,1-.245-.584l.051-.228a.913.913,0,0,1-.159-.327l-.042-.18-.134-.312-.086-.157c0-.086.085-.144.3-.2l.066-.016L13.5,3.762l.023-.2.061-.312.034-.276a.82.82,0,0,0-.052-.263l-.083-.195L13.432,2.4l.066-.051.086.027a3.28,3.28,0,0,1,.818.651,1.237,1.237,0,0,1,.295.861.715.715,0,0,1,.355.64.9.9,0,0,1-.167.5c-.106.158-.161.245-.169.263l-.077.286a.979.979,0,0,0,.161.5c.125.221.239.32.373.32.221,0,.422-.383.422-.8l0-.083V5.28l.028-.2.013-.244.018-.206.008-.113c0-.082-.018-.106-.276-.383a1.256,1.256,0,0,1-.423-.808.426.426,0,0,1,.43-.415l.18.033v-.1l.006-.177.052-.219c.039-.174.057-.207.12-.207l.04.013.152.135.187.118.048.051.11-.236.119-.161.083-.124.052-.078.071-.062.064.121.076.11.109.094a.607.607,0,0,1,.185.346l.169-.154.137-.075.088-.043.038.051.067.128c.109.174.119.2.119.317v.172a.46.46,0,0,1,.381.526,1.158,1.158,0,0,1-.321.724c-.147.171-.168.225-.168.355,0,.6.446.957,1.206.967l.555.009a2.727,2.727,0,0,1,.922.152,2.233,2.233,0,0,0,.636.161l.157-.1c0-.121-.2-.219-.884-.41-1.392-.393-1.983-.956-1.983-1.876A1.3,1.3,0,0,1,19.521,2.2a2.932,2.932,0,0,1,.837.143l.346.128.181.034c.119,0,.164-.075.183-.3l.1-.143c.087,0,.259.138.386.311a1.134,1.134,0,0,1,.217.566.482.482,0,0,1-.295.431.825.825,0,0,1-.734.418,2.82,2.82,0,0,1-1.163-.461.756.756,0,0,0-.4-.152.219.219,0,0,0-.249.217c0,.124.088.2.339.288.4.142.487.187.6.33a1.68,1.68,0,0,1,.885.353c.771.248,1.2.723,1.2,1.332a.9.9,0,0,1-.9.953,1.577,1.577,0,0,1-.408-.049" transform="translate(3.475 0.501)" fill="#2b2c2c"/>
            <path id="Path_18928" data-name="Path 18928" d="M21.313,10.225l-.027-.155.009-.115a2.217,2.217,0,0,0,.029-.327l-.062-.169-.1-.135-.092-.23.046-.066.038.009.078.042.082.03c.052,0,.077-.081.077-.239a.456.456,0,0,0-.169-.423L21.1,8.353l-.034-.07.061-.067.1.016.092.027.034.008L21.4,8.2l0-.03-.023-.176c-.029-.186-.058-.255-.113-.255l-.015,0-.22.04-.037,0a.771.771,0,0,1-.654-.526l-.161-.549a1.144,1.144,0,0,0-.406-.516L19.593,6.1l-.152-.018-.048-.04.092-.053a2.37,2.37,0,0,1,.747.144,1.779,1.779,0,0,0,.564.124c.422,0,.678-.22.678-.584a1.142,1.142,0,0,0-.162-.561,1.341,1.341,0,0,0-.4-.369l-.068-.028-.04.043.008.109v.011l-.056.073-.148-.168a.8.8,0,0,0-.662-.528l-.088.054.043.113.076.152.02.073-.038.024-.143-.08-.125-.135-.111-.171a.8.8,0,0,0-.338-.295l-.211-.11-.107-.034-.039.038.038.1L19,4.149l-.04.053c-.061,0-.167-.106-.316-.312a.818.818,0,0,1-.161-.475.623.623,0,0,1,.627-.632,1.309,1.309,0,0,1,.631.212l.4.245a1.054,1.054,0,0,0,.463.153.792.792,0,0,0,.238-.043l.111-.042.029-.051-.072-.051a2.439,2.439,0,0,1-.837-.33,1.987,1.987,0,0,0-.278-.161l-.114-.088.034-.021.051.009.365.134.358.128a2.19,2.19,0,0,0,.565.118.26.26,0,0,0,.273-.269L21.28,2.49,21.132,2.3l-.052.088,0,.048.011.107-.158.187L20.8,2.707l-.55-.177a2.714,2.714,0,0,0-.9-.193A1.084,1.084,0,0,0,18.19,3.381c0,.671.464,1.092,1.647,1.5,1.147.4,1.3.489,1.3.791a.343.343,0,0,1-.367.315l-.2-.018c-.048-.009-.24-.056-.571-.134a4.136,4.136,0,0,0-1.051-.119,2.11,2.11,0,0,0-1.676.532l-.254.111-.057,0-.134-.008-.238.152-.135.228-.1.051c-.086,0-.133-.058-.215-.26l-.167-.255-.18-.152-.04-.062.04-.081.076-.118.043-.1.008-.075.059-.042c.057,0,.067.037.068.245l.068.228.092.2.077.044c.087,0,.2-.206.225-.423.027-.18.044-.238.082-.238s.051.021.12.169l.1.128.1.061h.009c.07,0,.095-.044.109-.206l.01-.082-.019-.119-.01-.082.051-.087.063.035.083.083.171.085.116-.083-.083-.186-.059-.11c-.076-.143-.111-.178-.176-.178l-.087.009-.11.042-.066.019-.025-.033a.763.763,0,0,1,.142-.345,1.9,1.9,0,0,0,.144-.661l.043-.4c.025-.244.052-.329.1-.329l.033.016.025.126v.1l.028.224.142-.113.083-.169.042-.221c0-.2-.081-.279-.346-.353l-.049-.027-.01-.076V2.792l-.016-.1-.033-.085-.043-.091-.067.04a.88.88,0,0,0-.272.212l-.134.119-.043-.035.035-.144,0-.025a.629.629,0,0,0-.291-.5l-.059.07-.059.083-.1.118-.094.252v.027l0,.028-.042.091-.019-.009-.066-.085-.086-.1-.152-.094-.076-.059a.7.7,0,0,0-.085.423V3l-.067.123-.1-.042-.125-.035a.225.225,0,0,0-.212.247.734.734,0,0,0,.135.429l.192.2.027-.182L15.4,3.594l0-.064.051-.087c.047,0,.076.053.107.195l.066.312.068.4.1.336a2.045,2.045,0,0,0,.144.3l.1.163L16,5.18l-.077-.025-.1-.034-.061-.01c-.14,0-.169.113-.169.674a3.37,3.37,0,0,0,.164,1.042l.177.446.043.211A3.061,3.061,0,0,1,14.26,9.509c-.343.164-.444.335-.473.8a1.7,1.7,0,0,1,.3-.118c.248-.071.3-.1.338-.22l.033-.111c.015-.046.047-.07.219-.159l.135-.11.1-.107.037.044v.013l-.095.241-.009.059a.458.458,0,0,0,.281.416l.024-.1a.9.9,0,0,1,.085-.254l.161-.236c.058-.085.07-.14.07-.359l-.011-.265,0-.066.057-.07.057.027.027.159.08.059c.082,0,.187-.1.3-.295l.061-.2L16,8.395l0-.051.064-.067.039.015.061.2.111.11c.129,0,.263-.267.277-.55.008-.178.03-.239.085-.239l.042.021.034.109.059.067.116-.1L16.96,7.8l.024-.091-.076-.1-.094-.178a1.108,1.108,0,0,1,.2-.515c.137-.238.155-.263.188-.263l.057.072-.019.073-.033.1.066.061.154-.051.228-.094.286-.1.173-.025.148.018.195.033L18.6,6.6l-.053-.144-.076-.119-.051-.075.01-.035.047-.034c.066,0,.2.137.315.331.659,1.08.982,1.421,1.466,1.569.508.153.627.26.627.563a1.1,1.1,0,0,1-.263.6,1.775,1.775,0,0,0-.456,1.053v.07l.091-.042.137-.059.209-.042.121-.178,0-.015-.015-.186v-.03l.114-.19.066.051.134.287a.483.483,0,0,0,.295.253" transform="translate(3.642 0.577)" fill="#ffdd1f"/>
            <path id="Path_18929" data-name="Path 18929" d="M14.27,4.036l-.009.135,0,.082c0,.138.021.2.073.2l.182-.221L14.559,4l-.044-.162-.125-.134c-.071,0-.1.094-.119.329" transform="translate(3.767 0.979)" fill="#ffdd1f"/>
            <path id="Path_18930" data-name="Path 18930" d="M13.929,2.749l.119.118a1.32,1.32,0,0,1,.289.866l0,.139-.027.4L14.3,4.6c0,1.1.32,1.856.791,1.856a.5.5,0,0,0,.365-.272l.067-.061.04.07.019.187.014.158.028.178.023.164c0,.086-.014.1-.22.123l-.235.094a.883.883,0,0,0-.219.167l-.09.195-.056.043c-.051,0-.114-.076-.209-.238a.79.79,0,0,1-.123-.273l.072-.039h.018l.1.008.075-.008.068-.008.053-.064-.035-.047-.381-.159a.693.693,0,0,1-.278-.279.873.873,0,0,1-.154-.367l.064-.1.063.019.1.034.042-.018.028-.04-.067-.087a1.024,1.024,0,0,1-.507-.719l.046-.095.063.005.119.016.077-.064L13.988,4.9c-.21-.1-.263-.166-.4-.465A1.929,1.929,0,0,0,13.345,4l.264-.068c.116,0,.188.073.268.279.052.129.109.216.142.216l.023-.1-.035-.253-.027-.187-.018-.118-.092-.052-.144-.277.018-.153L13.8,3.1a1.7,1.7,0,0,0,.058-.358V2.666Z" transform="translate(3.525 0.704)" fill="#ffdd1f"/>
            <path id="Path_18931" data-name="Path 18931" d="M14.833,7.588a1.245,1.245,0,0,1-.4-.126.775.775,0,0,0-.317-.083.518.518,0,0,0-.359.143l.076.058L14,7.7l.161.125.143.052c.164,0,.3-.076.531-.288" transform="translate(3.633 1.949)" fill="#ffdd1f"/>
            <path id="Path_18932" data-name="Path 18932" d="M17.428,9.485l.169-.219c.234-.2.345-.353.345-.473V8.608l.073-.143.053.024.042.1.072.038c.061,0,.1-.043.207-.215l.062-.167-.02-.095-.059-.134-.034-.133.075-.087.063.025.066.083.044.03.107-.073.068-.133.025-.077-.068-.075L18.6,7.527A.6.6,0,0,1,18.347,7l.025-.11.052-.143.025-.14-.085-.257-.1-.178c-.048-.125-.077-.167-.12-.167l-.106.042-.086.049-.119.137-.115.058a.4.4,0,0,0-.139.316c0,.181.039.279.315.772a1.075,1.075,0,0,1,.171.479c0,.346-.349.628-.923.745-.684.142-.832.253-.91.693a.638.638,0,0,1,.375-.071l.123,0h.02l.2-.111.278-.234.134-.059.11-.059.034-.011.047.037-.081.144-.128.277Z" transform="translate(4.287 1.588)" fill="#ffdd1f"/>
            <path id="Path_18933" data-name="Path 18933" d="M16.337,7.745l.253.228.172.119.123-.018.076-.016c.144-.028.188-.048.188-.086l-.037-.066-.1-.085-.091-.085-.267-.092a.573.573,0,0,0-.316.1" transform="translate(4.316 2.019)" fill="#ffdd1f"/>
            <path id="Path_18934" data-name="Path 18934" d="M18.5,8.173l.051-.009.083-.009.07.009.046,0,.164-.037.161-.195.034-.094-.145-.091c-.231,0-.373.13-.463.422" transform="translate(4.887 2.048)" fill="#ffdd1f"/>
            <path id="Path_18935" data-name="Path 18935" d="M16.024,3.613l.092.143c.037,0,.092-.121.181-.269a1.337,1.337,0,0,0,.217-.479l-.043-.064-.008,0-.094.085-.278.152-.14.142.014.07.071.147Z" transform="translate(4.214 0.777)" fill="#2f2f27"/>
            <path id="Path_18936" data-name="Path 18936" d="M15.453,2.987l-.095-.04-.051.058v.024l.033.143a.671.671,0,0,0,.111.236l.129.212.181.118h.006l.044-.034.029-.167.039-.153.005-.037-.063-.1-.143-.077Z" transform="translate(4.044 0.778)" fill="#2f2f27"/>
            <path id="Path_18937" data-name="Path 18937" d="M15.965,3.849h-.044l-.1-.009-.1-.059L15.6,3.748l-.124.128a1.149,1.149,0,0,0,.109.353l.109.269c.094.238.191.339.316.339.11,0,.2-.09.267-.271l.094-.381.155-.249-.2-.191-.048.009-.128.086Z" transform="translate(4.089 0.989)" fill="#2f2f27"/>
            <path id="Path_18938" data-name="Path 18938" d="M16.027,3.994l-.134.025h-.1l-.044.025-.025.042.043.2.034.18.107.134.163-.159.018-.187.016-.192-.025-.052-.044-.019Z" transform="translate(4.153 1.055)" fill="#ffdd1f"/>
            <path id="Path_18939" data-name="Path 18939" d="M8.311,19.223a1.25,1.25,0,0,1,.11.4l.018.354q.019.533.353.532l.187-.059.092-.092.037-.011.091.109-.01.138a1.846,1.846,0,0,0,.035.388l.024.341a.936.936,0,0,1-.075.411,1.609,1.609,0,0,1,.092.509.675.675,0,0,1-.1.408,1.128,1.128,0,0,1,.042.288,2.041,2.041,0,0,1-.032.321,1.672,1.672,0,0,0-.034.4v.021l-.051.08-.1-.066-.121-.09c-.058,0-.077.03-.163.284a1.208,1.208,0,0,1-.2.311l-.153.245-.051.177-.051.042h-.01c-.14,0-.3-.3-.461-.86-.047-.159-.1-.23-.191-.23l-.147.095-.049.119-.046.033c-.066,0-.169-.123-.234-.277a1.075,1.075,0,0,1-.083-.391c0-.263.2-.46.785-.793a.75.75,0,0,0,.051-1.24.678.678,0,0,0-.377-.186l-.143.12.157.167c.128.047.186.091.186.15a.81.81,0,0,1-.144.3.791.791,0,0,1-.271.281.765.765,0,0,1-.4.547.947.947,0,0,1-.168.311l-.178.23-.128.26c-.018.128-.03.152-.08.152-.067,0-.2-.119-.341-.293l-.11-.282a.43.43,0,0,1-.287.1l-.228.061a.684.684,0,0,1-.195.086L5.1,23.055l-.009-.187a1.321,1.321,0,0,1,.254-.751.84.84,0,0,0-.413-.22l-.063-.028.08-.158.152-.167a.835.835,0,0,1,.489-.178,1.523,1.523,0,0,1,.483.12l.2.042.143-.167a2.253,2.253,0,0,0-.245-.779A1.546,1.546,0,0,1,6,20.025a.809.809,0,0,1,.31-.683l-.185-.052-.262.085-.193.18.068.073.073.126a.968.968,0,0,1-.412.669.736.736,0,0,1-.456.6.813.813,0,0,1-.185.391,1.446,1.446,0,0,0-.312.582l-.07.128-.193-.145-.134-.162a.821.821,0,0,1-.092-.268l-.121.019H3.714l-.083,0a1.045,1.045,0,0,0-.483.1l-.072.033c-.054,0-.1-.115-.1-.257a1.349,1.349,0,0,1,.282-.832L3.1,20.456,3.03,20.4l-.091-.049-.052-.056c0-.044.123-.163.271-.257a.776.776,0,0,1,.407-.153c.14,0,.212.038.384.187l.26.153.12-.077.043-.126a.907.907,0,0,0-.4-.574.935.935,0,0,0-.5-.161.566.566,0,0,0-.526.3l-.094.192-.082.07c-.053,0-.082-.024-.273-.247l-.219-.252-.137-.219-.042-.111-.083-.068a1.093,1.093,0,0,1-.363-.7l-.025-.111a1.392,1.392,0,0,1-.33-.837l.019-.115c-.121-.123-.135-.15-.229-.473a1.175,1.175,0,0,0-.195-.439l-.033-.064.193-.1.171-.02.168.011-.011-.23a1.625,1.625,0,0,1,.046-.386l.025-.177-.018-.144L1.4,15.04l-.018-.073.051-.042.11.037a2.242,2.242,0,0,1,.364.22,1.293,1.293,0,0,1,.518.8l0,.064-.019.125.061.137.092.126.137.331c0,.078-.018.114-.153.311a.64.64,0,0,0-.145.377,1.141,1.141,0,0,0,.169.535c.1.176.216.271.324.271.19,0,.272-.167.3-.617.015-.235.039-.446.068-.641l.009-.115-.085-.164-.253-.3c-.241-.281-.316-.426-.316-.628a.369.369,0,0,1,.374-.394l.1.011v-.066l.042-.229c.053-.182.12-.321.157-.321l.081.042.152.058.168.085a.744.744,0,0,1,.134-.295c.109-.142.234-.253.277-.253l.137.1L4.4,14.7l.095.159.033.076.1-.058L4.76,14.8l.161-.076.086-.046c.028,0,.044.052.107.331a1.925,1.925,0,0,1,.059.372.422.422,0,0,1,.4.482,1.268,1.268,0,0,1-.421.851l-.1.2c0,.747.259.981,1.193,1.081a5.994,5.994,0,0,1,1.435.3,2.822,2.822,0,0,0,.705.154c.158,0,.249-.058.249-.161,0-.157-.114-.206-.784-.349-1.565-.329-2.178-.862-2.178-1.894a1.254,1.254,0,0,1,1.283-1.287,2.049,2.049,0,0,1,1.069.363c.425.247.513.288.611.288.114,0,.159-.073.159-.255l.109-.176.26.177a.607.607,0,0,1,.195.479.578.578,0,0,1-.482.593l-.073.085a.7.7,0,0,1-.6.262,1.4,1.4,0,0,1-.75-.247l-.4-.286a.748.748,0,0,0-.425-.177.254.254,0,0,0-.276.277.383.383,0,0,0,.3.364l.379.118a1.967,1.967,0,0,1,.363.152l.188-.016a1.572,1.572,0,0,1,.712.177l.154.068.211.059a1.3,1.3,0,0,1,.868,1.193.916.916,0,0,1-1.013.966Z" transform="translate(0.226 3.812)" fill="#2b2c2c"/>
            <path id="Path_18940" data-name="Path 18940" d="M7.755,24.185l.051-.1.119-.128a.625.625,0,0,0,.154-.435l-.047-.273L8,23.1,8.08,23l.064.043.124.142.2.126.009-.116.009-.138a1,1,0,0,0-.186-.573l-.1-.167.047-.061.034.018.145.086.078-.214a.777.777,0,0,0-.173-.473l-.1-.124L8.218,21.5l.075-.061.1.042.066.025c.064,0,.09-.092.09-.344l0-.1-.01-.153c-.01-.177-.024-.21-.1-.21H8.371c-.411,0-.6-.26-.709-.962-.077-.508-.265-.866-.5-.946-.139-.046-.188-.075-.188-.114l.081-.047.158.043a2.352,2.352,0,0,0,.868.2.694.694,0,0,0,.723-.674,1.153,1.153,0,0,0-.386-.819l-.21-.126H8.2l-.044.013.018.124.033.085.009.035-.039.033L8.108,17.5l-.152-.23a.8.8,0,0,0-.578-.33l-.113.081.049.1.077.134-.008.034-.034.034H7.342c-.04,0-.059-.019-.244-.228a1.084,1.084,0,0,0-.623-.339l-.061.027-.018.033.059.094.095.129-.048.032c-.049,0-.157-.07-.359-.228a.96.96,0,0,1-.455-.752.554.554,0,0,1,.531-.583,1.037,1.037,0,0,1,.565.2l.415.311a1.1,1.1,0,0,0,.664.219l.145-.032.058-.057-.075-.038a.978.978,0,0,1-.355-.15l-.422-.321a2.912,2.912,0,0,0-.327-.228c-.224-.119-.267-.145-.267-.171l.048-.024.073.018.221.094a2.412,2.412,0,0,1,.353.21,1.687,1.687,0,0,0,.947.4.417.417,0,0,0,.437-.422l-.034-.147-.043-.085-.048-.043-.025.034-.027.178L8.5,15.52l-.061.083-.155.059c-.13,0-.276-.068-.671-.32a2.078,2.078,0,0,0-1.045-.388,1.093,1.093,0,0,0-1.1,1.095c0,.844.515,1.228,2.135,1.579.614.134.886.315.886.588,0,.252-.2.407-.522.407l-.23-.015q-.082-.017-.868-.236a4.339,4.339,0,0,0-1.126-.158,1.514,1.514,0,0,0-1.354.6l-.09.077-.071-.033-.118-.094-.3-.115-.18.072-.086.058c-.047,0-.134-.106-.2-.243a1.346,1.346,0,0,1-.144-.575l.062-.142.064.066.068.244c.037.139.115.247.172.247l.121-.1.07-.12c.053-.153.066-.176.106-.176s.075.03.107.185l.057.145.1.152.087.043c.073,0,.142-.125.142-.262V18.2l-.011-.157.044-.08.058.04.144.118.121.043.081-.043.035-.064-.119-.154a1.053,1.053,0,0,1-.169-.336l-.078-.111-.057.018-.11.043-.076.033-.028.006L4.126,17.5l.169-.2.11-.228c.006-.142.032-.254.061-.254l.024-.295a3.2,3.2,0,0,1,.126-.582l.024-.051.054.133,0,.043-.005.086.051.163.116-.148.076-.195.033-.155a.253.253,0,0,0-.234-.284l-.061.011-.053.016-.09-.106.006-.12-.006-.169-.035-.177L4.481,14.9l-.076.043-.092.076-.134.109-.111.094-.062.024c-.064,0-.072-.015-.072-.148v-.032c0-.106-.046-.191-.219-.393l-.043-.051-.034.059-.092.152-.094.236-.016.152L3.4,15.3l-.08-.058A.661.661,0,0,0,2.954,15l-.015.058-.051.178-.01.161v.121l-.046.073h0l-.052-.043-.1-.027c-.157,0-.258.085-.258.221,0,.1.035.176.19.412l.181.188.039-.121-.016-.1-.024-.129.04-.072c.075,0,.154.219.187.521l.033.314.1.338a.878.878,0,0,0,.22.312l.13.144-.046.051-.171-.061-.071-.009c-.168,0-.225.095-.225.386a1.61,1.61,0,0,0,.5,1.067l.387.314a.9.9,0,0,1,.346.606c0,.249-.271.49-.733.66l-.279.1c-.214.08-.3.219-.387.626l.231-.043h.038l.125,0,.2-.163V21l.075-.077.118-.058.094-.075.046-.019.048.051-.018.076-.044.291a.706.706,0,0,0,.138.469l.024-.109.144-.228a1.137,1.137,0,0,0,.221-.513v-.037l-.027-.195.042-.091.058-.025.086.083.059.076.125-.169.043-.177-.025-.109-.027-.1.035-.056L4.668,20l.049.016.076.051.068.027L4.98,20l.118-.241-.059-.072a.6.6,0,0,1-.278-.45l.024-.123.085-.228.07-.177.024-.01.046.064-.019.1-.038.159.09.094.14-.033a1.706,1.706,0,0,1,.58-.171l.306.11.08.035.048-.035.016-.042-.051-.11-.059-.12.046-.04c.133,0,.339.417.537,1.081.154.525.2.578.7.862a.909.909,0,0,1,.583.86,4.851,4.851,0,0,1-.322,1.5,1.411,1.411,0,0,0-.1.449,1.482,1.482,0,0,0,.083.4l.058.195Z" transform="translate(0.639 3.863)" fill="#ffdd1f"/>
            <path id="Path_18941" data-name="Path 18941" d="M5.282,22a1.373,1.373,0,0,1,.161-.288.816.816,0,0,0,.185-.412v-.135c0-.126.023-.186.073-.186L5.743,21l.043.067.061.034.095-.071.1-.3-.01-.094-.006-.095.068-.073.075.076.064.067.07-.051.067-.1.052-.076.011-.043-.063-.075a.691.691,0,0,1-.235-.6,2.677,2.677,0,0,0-.042-.464c-.005-.018-.056-.138-.153-.363l-.1-.3-.106-.1a.422.422,0,0,0-.4.455,2.1,2.1,0,0,0,.181.685,2.025,2.025,0,0,1,.2.7c0,.31-.124.446-.552.6a1.053,1.053,0,0,0-.794.87l.086-.035.118-.04.135-.035.228-.158.034-.119L5.02,21.3l.077-.034.076-.033.015.033-.033.111-.016.195A.591.591,0,0,0,5.282,22" transform="translate(1.154 4.87)" fill="#ffdd1f"/>
            <path id="Path_18942" data-name="Path 18942" d="M1.607,15.079l.018.095-.035.217-.014.171a1.358,1.358,0,0,0,.075.445L1.7,16.2l0,.035-.032.061-.086-.053-.311-.128-.144.019.04.091.128.314.178.269.183.128.052.049.027.054-.035.033-.168.006-.047.034a1.3,1.3,0,0,0,.072.252l.083.245.147.135.149.11.072.1L1.978,18l-.082.009-.044.068a.745.745,0,0,0,.169.327c.133.177.224.238.37.238h.128l.1.076-.081.076-.152.1.042.092.068.092.161.129.123-.076.273-.187c.292-.073.355-.1.355-.173l-.035-.1a.783.783,0,0,1-.125-.412l-.067-.18-.07.068-.293.18c-.291,0-.645-.458-.818-1.066a1.67,1.67,0,0,1-.062-.455A2.385,2.385,0,0,1,2,16.294c.057-.248.087-.386.092-.415l.011-.114a1,1,0,0,0-.493-.686" transform="translate(0.298 3.983)" fill="#ffdd1f"/>
            <path id="Path_18943" data-name="Path 18943" d="M2.013,16.006a1.5,1.5,0,0,0-.119.55l.073.176.046-.04.092-.169.059-.1.061-.124Z" transform="translate(0.5 4.228)" fill="#ffdd1f"/>
            <path id="Path_18944" data-name="Path 18944" d="M2.722,19.048l.042.042.067.067c.164.172.19.188.268.188l.315-.087.058-.058-.083-.092-.094-.085L3.071,18.9a.627.627,0,0,0-.349.149" transform="translate(0.719 4.992)" fill="#ffdd1f"/>
            <path id="Path_18945" data-name="Path 18945" d="M4.27,20.267l.169.085.134.085.135.016.1-.016.177-.067.169-.061.077-.063L5.138,20.2l-.125-.043a.8.8,0,0,0-.314-.095.559.559,0,0,0-.43.2" transform="translate(1.128 5.3)" fill="#ffdd1f"/>
            <path id="Path_18946" data-name="Path 18946" d="M5.969,21.75c.057-.135.1-.158.288-.168.214-.013.421-.4.421-.662l-.02-.049L6.6,20.9l-.126.075-.247.109a.574.574,0,0,0-.306.463Z" transform="translate(1.565 5.513)" fill="#ffdd1f"/>
            <path id="Path_18947" data-name="Path 18947" d="M3.111,15.849l.083.118.183.134.053-.073.033-.129.009-.14c0-.11-.048-.153-.278-.212L3.077,15.5l-.1-.051-.034.023.008.038.043.126Z" transform="translate(0.777 4.082)" fill="#2f2f27"/>
            <path id="Path_18948" data-name="Path 18948" d="M4.039,15.453l-.133.094-.171.051-.159.119.016.167.094.21.01,0,.039-.046.111-.195.185-.2.058-.142,0-.015-.037-.042Z" transform="translate(0.945 4.081)" fill="#2f2f27"/>
            <path id="Path_18949" data-name="Path 18949" d="M3.756,16.244l.134-.067.066-.019.114.138a1.11,1.11,0,0,1-.18.412c-.11.2-.195.338-.281.338-.121,0-.293-.192-.46-.515L3.086,16.3l.134-.163.1.027.076.052.215.066Z" transform="translate(0.815 4.262)" fill="#2f2f27"/>
            <path id="Path_18950" data-name="Path 18950" d="M3.5,16.384l-.094-.016H3.395l-.08.092.154.365.063.035c.054,0,.094-.1.121-.273l.025-.126,0-.023-.058-.071H3.6" transform="translate(0.876 4.323)" fill="#ffdd1f"/>
            <path id="Path_18951" data-name="Path 18951" d="M19.731,19.107a.731.731,0,0,0,.523.321l.226-.034.113-.016.058.053-.044.159-.049.149-.034.178-.082.152-.12.109-.034.035v.111a.456.456,0,0,1-.228.437L20,20.8l-.018.068a2.276,2.276,0,0,1-.083.295l-.161.236a1.512,1.512,0,0,0-.211.346l-.116.109-.18-.226-.043.051-.1.067-.162.109-.134.1-.092.094-.049.025c-.043,0-.087-.073-.128-.211l-.085-.278-.035-.272a.6.6,0,0,1,.061-.3,1.049,1.049,0,0,0-.3.059l-.073.016-.044-.052.032-.125.111-.287a.713.713,0,0,1,.576-.425l.216.046.129.027.176-.161L19.218,20c-.015-.006-.118-.037-.3-.092a.694.694,0,0,1-.372-.279c-.115-.133-.159-.171-.2-.171l-.051.058.008.113,0,.054a1.546,1.546,0,0,1-.238.765l-.236.43a1.032,1.032,0,0,0-.161.515c0,.169.073.321.168.346l.128.033L18,21.8l.024.048-.042.078-.152.193a.715.715,0,0,1-.413.312.813.813,0,0,1-.564.489l-.035.058a.684.684,0,0,1-.465.339h-.033a.649.649,0,0,1-.3.43l-.192.144-.042.075-.121.119c-.088,0-.164-.083-.217-.244l-.075.051L15.218,24a1.844,1.844,0,0,1-.3.085.792.792,0,0,0-.431.211l-.076.126-.033.015-.109-.133a2.007,2.007,0,0,1-.078-.473,1.032,1.032,0,0,1,.406-.8v-.073a.791.791,0,0,1,.879-.78h.083l.287.018h.027a.7.7,0,0,0,.455-.188c.206-.168.267-.271.267-.46a1.309,1.309,0,0,0-.082-.34,1.186,1.186,0,0,1,.541-1.416l.155-.192-.024-.035-.107.064-.2.126-.135.068-.15.059-.071.075.02.077.015.062-.042.1-.119.195a.721.721,0,0,1-.346.336c-.094.278-.23.417-.429.448-.159.322-.3.431-.582.464a1.029,1.029,0,0,1-.254.388l-.109.135-.1.126-.192-.126-.076-.1-.076-.134-.082-.063-.054,0-.185.025-.338.195-.1.152-.04.025c-.077,0-.123-.167-.123-.444a.862.862,0,0,1,.121-.52l.235-.327.051-.129-.042-.109-.134-.1-.177-.023-.044-.027.027-.058.21-.186a.932.932,0,0,1,.488-.178.828.828,0,0,1,.441.145l.244.161.119.034c.114,0,.2-.067.279-.221a.825.825,0,0,0,.11-.391.525.525,0,0,0-.542-.545.706.706,0,0,0-.437.168l-.083.092-.068.152-.061.059c-.043,0-.138-.123-.219-.279l-.118-.3a1.375,1.375,0,0,1-.071-.421l.013-.229a.838.838,0,0,1-.154-.522.939.939,0,0,1,.059-.3.641.641,0,0,1-.091-.375l.008-.107.025-.116.016-.1a1.222,1.222,0,0,1-.186-.55,1.121,1.121,0,0,0-.109-.355l-.025-.049c0-.051.116-.095.252-.095l.12.01-.037-.172.062-.335a.683.683,0,0,0,.053-.207l-.038-.258-.066-.167-.023-.086.042-.024a1.428,1.428,0,0,1,.731.413.9.9,0,0,1,.327.769l-.015.185a.748.748,0,0,1,.329.547.442.442,0,0,1-.169.346.732.732,0,0,0-.278.636c0,.449.134.689.383.689.216,0,.383-.234.411-.582l.024-.32.044-.3.025-.22c0-.114-.076-.257-.295-.513-.238-.279-.319-.427-.319-.643a.423.423,0,0,1,.423-.449l.164.047A.773.773,0,0,1,15.437,15c.063-.163.135-.277.168-.277l.051.033.11.092.085.059.075.076a.819.819,0,0,1,.262-.43l.186-.152.061.042.1.134.144.162a.439.439,0,0,1,.1.26l.085-.051L17,14.871l.1-.067.052-.027.042.061.048.193.111.22.043.216,0,.053.057,0c.167,0,.311.2.311.425a1.222,1.222,0,0,1-.551.894l-.037.224c0,.671.177.813,1.21.966a5.649,5.649,0,0,1,.691.144c.033.01.254.082.666.22a1.663,1.663,0,0,0,.5.109l.2-.1c0-.115-.171-.217-.686-.421l-.734-.286a1.456,1.456,0,0,1-1.1-1.418A1.335,1.335,0,0,1,19.282,14.9a2.806,2.806,0,0,1,1,.212,2.456,2.456,0,0,0,.619.2c.1,0,.159-.07.174-.217.014-.128.047-.178.118-.178.1,0,.215.095.3.253a1.009,1.009,0,0,1,.11.437.484.484,0,0,1-.413.516.822.822,0,0,1-.68.348c-.335,0-.5-.064-1.075-.423a.731.731,0,0,0-.444-.161.316.316,0,0,0-.349.295c0,.155.123.255.4.33a.448.448,0,0,1,.278.143l.14-.021a1.487,1.487,0,0,1,.9.393,1.438,1.438,0,0,1,.982,1.192,1,1,0,0,1-.953.987,3.313,3.313,0,0,1-.652-.1" transform="translate(3.485 3.804)" fill="#2b2c2c"/>
            <path id="Path_18952" data-name="Path 18952" d="M19.349,21.383l.034-.092.035-.118.091-.145a.674.674,0,0,0,.128-.417l-.043-.164-.027-.077.019-.039.033-.025h.006l.086.058.086.067.1-.161.015-.083-.075-.236-.025-.087.047-.054.114.075.063.033c.052,0,.09-.053.129-.187l.035-.13-.03-.039-.03,0-.1.009a.721.721,0,0,1-.475-.228l-.234-.288-.221-.278-.186-.126-.051-.068.081-.053a2.007,2.007,0,0,1,.435.155,2.641,2.641,0,0,0,.856.186.732.732,0,0,0,.734-.723,1.076,1.076,0,0,0-.334-.694l-.155-.1-.048.049.028.095.015.078-.04.059c-.052,0-.109-.086-.154-.238-.056-.19-.166-.3-.422-.43l-.267-.1-.027.038.033.1.07.161v.009l-.047.052c-.056,0-.068-.015-.191-.2a.972.972,0,0,0-.382-.288l-.14-.032h-.005l-.054.032.038.078.011.046-.04.048a.912.912,0,0,1-.331-.273.838.838,0,0,1-.219-.5.654.654,0,0,1,.652-.609l.217.043.293.152.348.228a1.372,1.372,0,0,0,.636.23.911.911,0,0,0,.267-.053l.135-.083-.005-.009-.03-.016-.185-.016a1.589,1.589,0,0,1-.522-.238l-.388-.252-.346-.144-.043-.044.039-.033.095.019.322.092a2.251,2.251,0,0,1,.388.177,1.788,1.788,0,0,0,.748.269.317.317,0,0,0,.339-.316l-.033-.241-.051-.109-.042-.033-.038.067,0,.059,0,.049c0,.155-.061.211-.234.211a2.426,2.426,0,0,1-.757-.226,2.39,2.39,0,0,0-.9-.22A1.181,1.181,0,0,0,18.04,16.19c0,.512.338.9,1.03,1.186l.718.3c.592.243.81.418.81.65,0,.192-.18.315-.458.315a1.9,1.9,0,0,1-.547-.121,4.977,4.977,0,0,0-1.492-.3,1.813,1.813,0,0,0-1.426.549l-.118.064-.12-.048-.186-.061-.2.111-.083.111-.076.051-.238-.229-.083-.22-.018-.231.008-.158.028-.167.024-.144.042-.033.062.13v.054l0,.038c0,.24.1.46.2.46.083,0,.155-.148.216-.44l.064-.091c.034,0,.054.043.08.168l.125.269.1.068c.07,0,.113-.1.148-.346l.073-.153.035.019.061.094.092.082.1.037.08-.037.058-.067-.051-.076a.81.81,0,0,1-.153-.278l-.075-.193-.043-.059-.025-.006-.049.006-.177.051-.056.009-.039-.04.068-.094a1.237,1.237,0,0,0,.388-.87.863.863,0,0,1,.168-.5l.054-.052.049.076-.028.119-.018.1v.033l.016.051.095-.034.1-.118.111-.346-.068-.192-.129-.091-.058.006-.058,0-.082-.051.014-.064.01-.092-.049-.211-.043-.1L16.987,15l-.059.042-.126.076-.1.094c-.119.145-.126.152-.176.152l-.047-.032,0-.035.025-.174a.8.8,0,0,0-.235-.493.757.757,0,0,0-.271.532v.1l-.04.058h0l-.058-.043-.1-.134-.137-.111-.066-.058-.035.067a.913.913,0,0,0-.116.4l-.039.147-.054-.019c-.129-.073-.139-.077-.195-.077a.25.25,0,0,0-.255.269l.1.281c.076.138.193.262.243.262l.019-.051v-.018l-.009-.142-.018-.113v-.014l.037-.047q.118,0,.2.67a1.315,1.315,0,0,0,.327.819l.068.09-.033.028-.11-.043-.091-.028-.2.2-.077.483-.058.674a1.8,1.8,0,0,0,.051.506,2.3,2.3,0,0,1,.059.4,1.085,1.085,0,0,1-.836,1.059l-.541.159a.749.749,0,0,0-.549.734.4.4,0,0,1,.247-.1l.159-.025.143-.042.095-.095.14-.158.135-.1.034.048-.058.139-.062.219a.519.519,0,0,0,.139.331l.033-.1.128-.177a.954.954,0,0,0,.2-.379c0-.13.014-.173.046-.173l.046.081.028.051.051.033.066-.033.135-.119.083-.152.044-.161v-.109l.027-.052.092.094.054.043h0l.076-.035.168-.316-.006-.155-.035-.128,0-.01.043-.049.137.18.076.083.153-.144.076-.109.025-.086-.025-.083-.07-.1L16.1,19.7a.822.822,0,0,1,.126-.394l.11-.214.048-.052.028.046-.008.091v.134l.073.044.087-.016.209-.076.195-.094a1.122,1.122,0,0,1,.6-.221.987.987,0,0,1,.4.12l.088.025.073-.043.025-.064-.035-.1-.051-.124.039-.038.063.046c.027.04.091.152.193.336a1.011,1.011,0,0,0,.541.516l.369.085c.116.023.147.07.147.214a.74.74,0,0,1-.338.63l-.306.195a.561.561,0,0,0-.2.426,2.351,2.351,0,0,0,.058.434l.059-.059.144-.085.126-.126.067-.185.067-.169.1-.135.046.129v.053a.645.645,0,0,0,.11.358" transform="translate(3.564 3.863)" fill="#ffdd1f"/>
            <path id="Path_18953" data-name="Path 18953" d="M14.174,22.815c0-.4.143-.576.724-.87,1.148-.583,1.766-1.116,1.766-1.522a1.88,1.88,0,0,0-.1-.454,1.443,1.443,0,0,1-.072-.367,1.031,1.031,0,0,1,.35-.645L17,18.814l.153-.267,0-.039v-.049l.12-.118.077-.006.062-.019.072.043.04.067.061.067.054.034L17.7,18.5l.1-.032.067.073a1.312,1.312,0,0,1-.3.674,1.578,1.578,0,0,0-.431.956.917.917,0,0,0,.185.573l.035.062-.061.107-.049.067-.157.137-.08-.07-.033-.091-.049-.046-.038.035-.033.094v.144l-.059.168-.118.125-.054.043-.072-.068-.052-.168-.04-.043-.059.12a.625.625,0,0,1-.1.354l-.119.109-.106.063-.054-.029-.058-.126-.038-.025c-.035,0-.058.066-.073.193a.634.634,0,0,1-.262.556.468.468,0,0,0-.209.239.542.542,0,0,1-.1-.336l.033-.162.053-.142-.029-.038-.042.034-.11.085a.325.325,0,0,0-.209.288.432.432,0,0,1-.391.378c-.283.057-.3.066-.4.161Z" transform="translate(3.744 4.838)" fill="#ffdd1f"/>
            <path id="Path_18954" data-name="Path 18954" d="M13.819,14.992V15.2l-.019.135-.033.191a.683.683,0,0,0,.119.408l.086.283-.037.053L13.9,16.25l-.067-.094c-.054-.075-.1-.094-.243-.094l-.145.009a1.912,1.912,0,0,1,.1.3c.068.274.078.3.228.431s.166.153.166.2l-.059.068-.056-.009-.033,0-.088.177.054.214.058.1.085.083.034.088-.052.076-.076-.029-.059-.015-.054.068.013.128.052.217.094.161.125.1.171.076.023.067-.056.061-.087-.016-.085-.009-.091.071.015.13.034.135c.037.143.082.22.133.22l.062-.034a1.065,1.065,0,0,1,.521-.177,1.625,1.625,0,0,1,.407.043l.081.019.028-.095.019-.152.033-.263.025-.192V18.2l-.068.058a.5.5,0,0,1-.383.177c-.386,0-.609-.436-.609-1.2a8.173,8.173,0,0,1,.133-1.265l.027-.234a.923.923,0,0,0-.483-.746" transform="translate(3.55 3.96)" fill="#ffdd1f"/>
            <path id="Path_18955" data-name="Path 18955" d="M14.244,16.158l-.018.128-.024.126-.009.126v.083l.078-.075.073-.07.114-.258-.029-.12-.119-.121Z" transform="translate(3.75 4.221)" fill="#ffdd1f"/>
            <path id="Path_18956" data-name="Path 18956" d="M13.607,19.241l.195.152a.365.365,0,0,0,.338.168l.12-.016.107-.033.085-.027.067-.043L14.35,19.3l-.2-.116-.193-.054Z" transform="translate(3.595 5.053)" fill="#ffdd1f"/>
            <path id="Path_18957" data-name="Path 18957" d="M14.508,21.2a.555.555,0,0,1,.594-.5c.163,0,.258.033.258.09,0,.042-.071.1-.229.183-.014.009-.1.053-.244.137a3.861,3.861,0,0,1-.37.185Z" transform="translate(3.833 5.469)" fill="#ffdd1f"/>
            <path id="Path_18958" data-name="Path 18958" d="M17.224,19.567l.22-.058.15.008.1-.067.116-.085c.171-.114.178-.123.178-.158s-.068-.07-.211-.07c-.265,0-.426.123-.556.43" transform="translate(4.55 5.055)" fill="#ffdd1f"/>
            <path id="Path_18959" data-name="Path 18959" d="M15.22,15.414l.119.076.169.094c.129.053.176.072.176.121l-.016.1-.025.116-.128.145c-.057,0-.115-.087-.21-.253l-.134-.339-.006-.032.037-.033" transform="translate(4.006 4.07)" fill="#2f2f27"/>
            <path id="Path_18960" data-name="Path 18960" d="M16.187,15.486,16,15.579l-.181.051-.073.094v.009l.009.143.008.143.088.085h.014l.058-.027.083-.183.195-.2.083-.142.02-.053-.049-.048Z" transform="translate(4.161 4.082)" fill="#2f2f27"/>
            <path id="Path_18961" data-name="Path 18961" d="M15.48,16.1l.128.094.11.029.2-.054.109-.049.064-.019.121.161a.889.889,0,0,1-.221.439L15.9,16.9l-.185.144c-.1,0-.147-.056-.3-.356a1.03,1.03,0,0,1-.15-.448l.113-.15Z" transform="translate(4.034 4.25)" fill="#2f2f27"/>
            <path id="Path_18962" data-name="Path 18962" d="M15.522,16.506l.009.161.123.145c.078,0,.134-.119.163-.3l.02-.118-.1-.078-.043,0h-.061l-.035,0-.075.148" transform="translate(4.1 4.311)" fill="#ffdd1f"/>
            <path id="Path_18963" data-name="Path 18963" d="M8.008,14.421h.823v1.693H9.8V14.438h2.449v1.675h.971V14.438h.826V10.064H13.1l-.034-.051a.525.525,0,0,0-.458-.257.5.5,0,0,0-.444.307h-.681a.493.493,0,0,0-.455-.307.507.507,0,0,0-.479.307H9.821a.493.493,0,0,0-.469-.3.457.457,0,0,0-.451.3H8.008Z" transform="translate(2.115 2.577)" fill="#2b2c2c"/>
            <rect id="Rectangle_9613" data-name="Rectangle 9613" width="5.365" height="3.676" transform="translate(10.476 13.002)" fill="#e43d33"/>
            <path id="Path_18964" data-name="Path 18964" d="M8.781,10.949a.255.255,0,1,0,.255.255.256.256,0,0,0-.255-.255" transform="translate(2.252 2.892)" fill="#ffdd1f"/>
            <path id="Path_18965" data-name="Path 18965" d="M8.788,11.5a.29.29,0,0,1,0-.58.29.29,0,1,1,0,.58m0-.511-.221.22.221.222.221-.222Z" transform="translate(2.245 2.885)" fill="#2b2c2c"/>
            <path id="Path_18966" data-name="Path 18966" d="M12.114,10.949a.255.255,0,1,0,.255.255.257.257,0,0,0-.255-.255" transform="translate(3.132 2.892)" fill="#ffdd1f"/>
            <path id="Path_18967" data-name="Path 18967" d="M12.121,11.5a.29.29,0,1,1,.288-.291.291.291,0,0,1-.288.291m0-.511-.222.22.222.222.22-.222Z" transform="translate(3.125 2.885)" fill="#2b2c2c"/>
            <path id="Path_18968" data-name="Path 18968" d="M8.781,12.531a.256.256,0,0,0-.255.255.26.26,0,0,0,.265.255.25.25,0,0,0,.245-.255.256.256,0,0,0-.255-.255" transform="translate(2.252 3.31)" fill="#ffdd1f"/>
            <path id="Path_18969" data-name="Path 18969" d="M8.8,13.083a.294.294,0,0,1-.3-.288.288.288,0,1,1,.576,0,.284.284,0,0,1-.278.288m-.01-.509-.221.221a.227.227,0,0,0,.231.219l.211-.219Z" transform="translate(2.245 3.303)" fill="#2b2c2c"/>
            <path id="Path_18970" data-name="Path 18970" d="M12.114,12.531a.255.255,0,1,0,.255.255.257.257,0,0,0-.255-.255" transform="translate(3.132 3.31)" fill="#ffdd1f"/>
            <path id="Path_18971" data-name="Path 18971" d="M12.121,13.083a.289.289,0,1,1,.288-.288.29.29,0,0,1-.288.288m0-.509-.222.221.222.219.22-.219Z" transform="translate(3.125 3.303)" fill="#2b2c2c"/>
            <path id="Path_18972" data-name="Path 18972" d="M9.361,12.041a1.611,1.611,0,0,0,1.322.649,1.516,1.516,0,0,0,1.248-.649,1.7,1.7,0,0,0-2.57,0" transform="translate(2.473 3.026)" fill="#ffdd1f"/>
            <path id="Path_18973" data-name="Path 18973" d="M9.562,12a1.577,1.577,0,0,1,1.029-.392,1.515,1.515,0,0,1,1.021.4,1.3,1.3,0,0,1-1.027.436A1.432,1.432,0,0,1,9.562,12" transform="translate(2.526 3.066)" fill="#2b2c2c"/>
            <path id="Path_18974" data-name="Path 18974" d="M9.906,11.881a1.032,1.032,0,0,0,.582.186,1.06,1.06,0,0,0,.618-.186,1.409,1.409,0,0,0-.611-.145,1.229,1.229,0,0,0-.589.145" transform="translate(2.617 3.1)" fill="#ffdd1f"/>
            <rect id="Rectangle_9614" data-name="Rectangle 9614" width="5.516" height="0.188" transform="translate(10.402 13.188)" fill="#2b2c2c"/>
            <path id="Path_18975" data-name="Path 18975" d="M8.241,10.447h5.493v.163H8.241Zm-.024.187h5.538v-.21H8.217Z" transform="translate(2.171 2.754)" fill="#2c2f2d"/>
            <path id="Path_18976" data-name="Path 18976" d="M8.9,10.308v.527a.221.221,0,0,0,.226.222.206.206,0,0,0,.233-.222v-.518c0-.2-.081-.325-.212-.325l-.1.028-.061.033-.051.068-.033.094" transform="translate(2.35 2.64)" fill="#ffdd1f"/>
            <path id="Path_18977" data-name="Path 18977" d="M10.208,10.743v.094a.22.22,0,0,0,.228.221.207.207,0,0,0,.233-.221v-.52c0-.2-.083-.324-.212-.324-.152,0-.248.123-.248.316" transform="translate(2.697 2.64)" fill="#ffdd1f"/>
            <path id="Path_18978" data-name="Path 18978" d="M11.48,10.308v.527a.222.222,0,0,0,.229.222.206.206,0,0,0,.231-.222v-.518c0-.2-.082-.325-.212-.325l-.1.028-.059.033-.052.068-.034.094" transform="translate(3.033 2.64)" fill="#ffdd1f"/>
            <rect id="Rectangle_9615" data-name="Rectangle 9615" width="0.501" height="0.646" transform="translate(11.127 17.396)" fill="#ffdd1f"/>
            <rect id="Rectangle_9616" data-name="Rectangle 9616" width="0.501" height="0.205" transform="translate(11.127 18.189)" fill="#ffdd1f"/>
            <rect id="Rectangle_9617" data-name="Rectangle 9617" width="0.502" height="0.646" transform="translate(14.547 17.396)" fill="#ffdd1f"/>
            <rect id="Rectangle_9618" data-name="Rectangle 9618" width="0.502" height="0.205" transform="translate(14.547 18.189)" fill="#ffdd1f"/>
            <path id="Path_18979" data-name="Path 18979" d="M7.936,43.618a5.8,5.8,0,0,1-2.76.686C2.288,44.3.6,42.317.6,39.556a4.692,4.692,0,0,1,4.776-4.9,5.239,5.239,0,0,1,2.373.5v1.187a4.779,4.779,0,0,0-2.345-.6A3.486,3.486,0,0,0,1.944,39.5c0,2.2,1.3,3.718,3.374,3.718a4.591,4.591,0,0,0,2.26-.614Z" transform="translate(0.159 9.154)" fill="#1d1e1c"/>
            <path id="Path_18980" data-name="Path 18980" d="M11.5,42.894a2.892,2.892,0,0,1-2.016.872A2.041,2.041,0,0,1,7.306,41.65,1.918,1.918,0,0,1,8.449,39.82a4.227,4.227,0,0,1,1.7-.343l1.258-.044v-.356a1.258,1.258,0,0,0-1.4-1.374,3.524,3.524,0,0,0-1.846.53l-.442-.872a4.754,4.754,0,0,1,2.445-.673,2.184,2.184,0,0,1,2.5,2.36v2.459a10.337,10.337,0,0,0,.128,2.117H11.71Zm-1.187-2.517a2.748,2.748,0,0,0-1.187.243,1.039,1.039,0,0,0-.528.958,1.092,1.092,0,0,0,1.172,1.158,2.353,2.353,0,0,0,1.645-.771V40.334Z" transform="translate(1.93 9.692)" fill="#1d1e1c"/>
            <path id="Path_18981" data-name="Path 18981" d="M13.006,36.859h1.058l.143.829a3.764,3.764,0,0,1,2.331-1,1.811,1.811,0,0,1,1.758,1.13,3.862,3.862,0,0,1,2.489-1.13c1.115,0,2.073.686,2.073,2.4v4.535H21.6V39.462c0-.929-.2-1.659-1.129-1.659a3.137,3.137,0,0,0-1.916.9c0,.115.014.244.014.358v4.562H17.31V39.476c0-.943-.2-1.672-1.13-1.672a3.14,3.14,0,0,0-1.916.9v4.92H13.006Z" transform="translate(3.436 9.692)" fill="#1d1e1c"/>
            <path id="Path_18982" data-name="Path 18982" d="M22.3,44V34.165h1.258V37.64a3.8,3.8,0,0,1,1.445-.287,3.032,3.032,0,0,1,3.1,3.361,3.557,3.557,0,0,1-3.832,3.718A4.193,4.193,0,0,1,22.3,44m4.5-3.231c0-1.387-.7-2.345-1.987-2.345a2.66,2.66,0,0,0-1.259.3V43.2a2.757,2.757,0,0,0,.915.158,2.329,2.329,0,0,0,2.331-2.589" transform="translate(5.892 9.025)" fill="#1d1e1c"/>
            <path id="Path_18983" data-name="Path 18983" d="M28.1,36.859h1.058l.143.829a2.51,2.51,0,0,1,1.9-1,1.578,1.578,0,0,1,.8.2L31.565,38a1.38,1.38,0,0,0-.659-.172,2.307,2.307,0,0,0-1.545.872v4.92H28.1Z" transform="translate(7.424 9.692)" fill="#1d1e1c"/>
            <path id="Path_18984" data-name="Path 18984" d="M31.949,35.248a.816.816,0,0,1,1.631,0,.809.809,0,0,1-.829.815.786.786,0,0,1-.8-.815m.172,2.2h1.258v6.765H32.121Z" transform="translate(8.44 9.1)" fill="#1d1e1c"/>
            <path id="Path_18985" data-name="Path 18985" d="M34.313,40.986a3.475,3.475,0,0,1,3.561-3.633,3.879,3.879,0,0,1,1.072.129V34.165H40.2v9.8a5.143,5.143,0,0,1-2.259.472,3.328,3.328,0,0,1-3.632-3.446M38.946,43.2V38.569a2.862,2.862,0,0,0-.987-.157,2.317,2.317,0,0,0-2.345,2.545,2.206,2.206,0,0,0,2.36,2.4,2.657,2.657,0,0,0,.972-.158" transform="translate(9.064 9.025)" fill="#1d1e1c"/>
            <path id="Path_18986" data-name="Path 18986" d="M39.934,45.115a1.891,1.891,0,0,1,1.244-1.7.948.948,0,0,1-.472-.843,1.753,1.753,0,0,1,.758-1.316,2.351,2.351,0,0,1-1.087-2.059,2.422,2.422,0,0,1,2.574-2.431,3.025,3.025,0,0,1,1.3.258c.072.043.1.043.158-.014a1.945,1.945,0,0,1,1.473-.559,2.5,2.5,0,0,1,.415.043l-.286.944a2.009,2.009,0,0,0-.415-.043,1.112,1.112,0,0,0-.6.157,2.406,2.406,0,0,1,.7,1.7,2.441,2.441,0,0,1-2.674,2.459,2.635,2.635,0,0,1-.858-.129,1.022,1.022,0,0,0-.315.686c0,1.3,4.461.129,4.461,2.66,0,1.259-1.229,2.145-3.36,2.145-1.844,0-3.018-.743-3.018-1.959m5.134-.057c0-1.158-2.03-.929-3.174-1.3a1.438,1.438,0,0,0-.8,1.144c0,.771.8,1.23,1.987,1.23,1.3,0,1.987-.473,1.987-1.073m-.614-5.82a1.394,1.394,0,0,0-1.43-1.473,1.348,1.348,0,0,0-1.416,1.459,1.38,1.38,0,0,0,1.43,1.487,1.352,1.352,0,0,0,1.416-1.473" transform="translate(10.549 9.629)" fill="#1d1e1c"/>
            <path id="Path_18987" data-name="Path 18987" d="M46.853,40.52a2.066,2.066,0,0,0,2.131,2.216,3.478,3.478,0,0,0,1.688-.458l.386.872a4.235,4.235,0,0,1-2.216.616c-2.245,0-3.275-1.646-3.275-3.575,0-2.061,1.13-3.5,2.861-3.5,1.772,0,2.787,1.359,2.787,3.518v.315Zm3.061-.944c-.014-.944-.472-1.887-1.487-1.887a1.7,1.7,0,0,0-1.574,1.887Z" transform="translate(12.037 9.692)" fill="#1d1e1c"/>
            <rect id="Rectangle_9619" data-name="Rectangle 9619" width="1.273" height="9.424" transform="translate(68.482 43.891)" fill="#1d1e1c"/>
            <path id="Path_18988" data-name="Path 18988" d="M57.17,36.859h1.058l.157.829a3.707,3.707,0,0,1,2.346-1c1.072,0,2.058.63,2.058,2.4v4.535H61.531V39.5c0-.957-.229-1.7-1.158-1.7a3.149,3.149,0,0,0-1.946.915v4.9H57.17Z" transform="translate(15.102 9.692)" fill="#1d1e1c"/>
            <path id="Path_18989" data-name="Path 18989" d="M64.027,42.478V38.244H62.869V37.229h1.158V35.686l1.259-.4v1.944h2.03l-.344,1.015H65.286v3.99c0,.6.243.858.686.858a2.084,2.084,0,0,0,1.086-.358l.415.872a3.206,3.206,0,0,1-1.788.53,1.512,1.512,0,0,1-1.659-1.659" transform="translate(16.608 9.321)" fill="#1d1e1c"/>
            <path id="Path_18990" data-name="Path 18990" d="M68.781,40.52a2.065,2.065,0,0,0,2.133,2.216,3.472,3.472,0,0,0,1.686-.458l.387.872a4.246,4.246,0,0,1-2.217.616c-2.244,0-3.275-1.646-3.275-3.575,0-2.061,1.13-3.5,2.861-3.5,1.774,0,2.789,1.359,2.789,3.518v.315Zm3.062-.944c-.014-.944-.472-1.887-1.488-1.887a1.7,1.7,0,0,0-1.574,1.887Z" transform="translate(17.83 9.692)" fill="#1d1e1c"/>
            <path id="Path_18991" data-name="Path 18991" d="M73.444,36.859H74.5l.143.829a2.51,2.51,0,0,1,1.9-1,1.578,1.578,0,0,1,.8.2L76.9,38a1.372,1.372,0,0,0-.657-.172A2.306,2.306,0,0,0,74.7,38.7v4.92H73.444Z" transform="translate(19.402 9.692)" fill="#1d1e1c"/>
            <path id="Path_18992" data-name="Path 18992" d="M77.56,36.859h1.058l.157.829a3.707,3.707,0,0,1,2.346-1c1.072,0,2.058.63,2.058,2.4v4.535H81.921V39.5c0-.957-.229-1.7-1.158-1.7a3.149,3.149,0,0,0-1.946.915v4.9H77.56Z" transform="translate(20.489 9.692)" fill="#1d1e1c"/>
            <path id="Path_18993" data-name="Path 18993" d="M87.63,42.894a2.892,2.892,0,0,1-2.016.872,2.041,2.041,0,0,1-2.173-2.116,1.917,1.917,0,0,1,1.144-1.831,4.216,4.216,0,0,1,1.7-.343l1.258-.044v-.356a1.258,1.258,0,0,0-1.4-1.374,3.515,3.515,0,0,0-1.843.53l-.444-.872a4.757,4.757,0,0,1,2.445-.673,2.183,2.183,0,0,1,2.5,2.36v2.459a10.34,10.34,0,0,0,.128,2.117H87.845Zm-1.187-2.517a2.749,2.749,0,0,0-1.187.243,1.039,1.039,0,0,0-.528.958A1.092,1.092,0,0,0,85.9,42.736a2.353,2.353,0,0,0,1.645-.771V40.334Z" transform="translate(22.042 9.692)" fill="#1d1e1c"/>
            <path id="Path_18994" data-name="Path 18994" d="M90.085,42.478V38.244H88.926V37.229h1.159V35.686l1.258-.4v1.944h2.032l-.344,1.015H91.343v3.99c0,.6.244.858.688.858a2.084,2.084,0,0,0,1.086-.358l.415.872a3.206,3.206,0,0,1-1.788.53,1.512,1.512,0,0,1-1.659-1.659" transform="translate(23.491 9.321)" fill="#1d1e1c"/>
            <path id="Path_18995" data-name="Path 18995" d="M93.766,35.248a.816.816,0,0,1,1.631,0,.809.809,0,0,1-.829.815.786.786,0,0,1-.8-.815m.173,2.2H95.2v6.765H93.939Z" transform="translate(24.77 9.1)" fill="#1d1e1c"/>
            <path id="Path_18996" data-name="Path 18996" d="M96.469,40.234a3.227,3.227,0,1,1,6.422,0,3.226,3.226,0,1,1-6.422,0m5.121,0c0-1.459-.717-2.5-1.9-2.5s-1.916,1.044-1.916,2.5.716,2.488,1.9,2.488,1.918-1.043,1.918-2.488" transform="translate(25.484 9.692)" fill="#1d1e1c"/>
            <path id="Path_18997" data-name="Path 18997" d="M103.018,36.859h1.058l.157.829a3.707,3.707,0,0,1,2.346-1c1.072,0,2.059.63,2.059,2.4v4.535h-1.259V39.5c0-.957-.229-1.7-1.158-1.7a3.149,3.149,0,0,0-1.946.915v4.9h-1.258Z" transform="translate(27.214 9.692)" fill="#1d1e1c"/>
            <path id="Path_18998" data-name="Path 18998" d="M113.088,42.894a2.892,2.892,0,0,1-2.016.872A2.041,2.041,0,0,1,108.9,41.65a1.917,1.917,0,0,1,1.144-1.831,4.216,4.216,0,0,1,1.7-.343L113,39.433v-.356a1.258,1.258,0,0,0-1.4-1.374,3.515,3.515,0,0,0-1.843.53l-.444-.872a4.757,4.757,0,0,1,2.445-.673,2.183,2.183,0,0,1,2.5,2.36v2.459a10.338,10.338,0,0,0,.128,2.117H113.3ZM111.9,40.377a2.753,2.753,0,0,0-1.187.243,1.039,1.039,0,0,0-.528.958,1.092,1.092,0,0,0,1.173,1.158A2.352,2.352,0,0,0,113,41.965V40.334Z" transform="translate(28.768 9.692)" fill="#1d1e1c"/>
            <path id="Path_18999" data-name="Path 18999" d="M114.915,34.165h1.258V42.6c0,.515.158.673.5.673a1.51,1.51,0,0,0,.429-.086l.259.986a2.952,2.952,0,0,1-1.045.2,1.259,1.259,0,0,1-1.4-1.416Z" transform="translate(30.357 9.025)" fill="#1d1e1c"/>
            <path id="Path_19000" data-name="Path 19000" d="M121.008,42.574a3.71,3.71,0,0,0,2.059.643c.944,0,1.8-.372,1.8-1.387,0-2.131-4.12-1.873-4.12-4.705a2.555,2.555,0,0,1,2.861-2.474,5.024,5.024,0,0,1,2.131.458v1.159a4.478,4.478,0,0,0-2.088-.53c-.786,0-1.573.329-1.573,1.258,0,2,4.133,1.789,4.133,4.734,0,1.6-1.3,2.574-3.133,2.574a4.68,4.68,0,0,1-2.6-.743Z" transform="translate(31.827 9.154)" fill="#1d1e1c"/>
            <path id="Path_19001" data-name="Path 19001" d="M126.044,40.305a3.417,3.417,0,0,1,3.432-3.618,3.533,3.533,0,0,1,1.731.429v1.1a2.867,2.867,0,0,0-1.631-.487,2.257,2.257,0,0,0-2.231,2.5c0,1.588.843,2.488,2.145,2.488a3.173,3.173,0,0,0,1.616-.47l.372.886a3.985,3.985,0,0,1-2.159.628,3.185,3.185,0,0,1-3.274-3.46" transform="translate(33.297 9.692)" fill="#1d1e1c"/>
            <path id="Path_19002" data-name="Path 19002" d="M131.257,34.165h1.258v4.176a3.575,3.575,0,0,1,2.3-.986c1.058,0,2.058.628,2.058,2.4V44.29h-1.258V40.171c0-.958-.243-1.7-1.172-1.7a3.079,3.079,0,0,0-1.932.915v4.9h-1.258Z" transform="translate(34.674 9.025)" fill="#1d1e1c"/>
            <path id="Path_19003" data-name="Path 19003" d="M136.822,40.234a3.226,3.226,0,1,1,6.419,0,3.224,3.224,0,1,1-6.419,0m5.119,0c0-1.459-.714-2.5-1.9-2.5s-1.915,1.044-1.915,2.5.714,2.488,1.9,2.488c1.2,0,1.916-1.043,1.916-2.488" transform="translate(36.144 9.692)" fill="#1d1e1c"/>
            <path id="Path_19004" data-name="Path 19004" d="M142.76,40.234a3.226,3.226,0,1,1,6.419,0,3.224,3.224,0,1,1-6.419,0m5.119,0c0-1.459-.714-2.5-1.9-2.5s-1.915,1.044-1.915,2.5.714,2.488,1.9,2.488c1.2,0,1.916-1.043,1.916-2.488" transform="translate(37.712 9.692)" fill="#1d1e1c"/>
            <path id="Path_19005" data-name="Path 19005" d="M149.025,34.165h1.258V42.6c0,.515.158.673.5.673a1.51,1.51,0,0,0,.429-.086l.258.986a2.94,2.94,0,0,1-1.044.2,1.259,1.259,0,0,1-1.4-1.416Z" transform="translate(39.367 9.025)" fill="#1d1e1c"/>
        </g>
    </g>
    <g id="Group_44704" data-name="Group 44704" transform="translate(0 0)">
        <g id="Group_44703" data-name="Group 44703" clip-path="url(#clip-path-2)">
            <line id="Line_141" data-name="Line 141" x2="190.581" transform="translate(0 36.584)" fill="none" stroke="#1d1e1c" stroke-width="0.314"/>
        </g>
    </g>
</svg>
