<svg xmlns="http://www.w3.org/2000/svg" width="88.791" height="39.643" viewBox="0 0 88.791 39.643">
    <g id="Group_44676" data-name="Group 44676" transform="translate(-1355.792 -1447.117)">
        <path id="Path_18830" data-name="Path 18830" d="M-122.122,224.481s5.351-6.1-.661-15.481c0,0,2.4,5.351-.451,9.95C-124.948,221.686-122.122,224.481-122.122,224.481Zm-7.485,20.922a6.527,6.527,0,0,0,1.052-.752,3,3,0,0,1-.661,1.2C-129.187,245.884-129.457,245.794-129.608,245.4Zm11.153.842a5.59,5.59,0,0,0,.691-.962,6.808,6.808,0,0,0-1.443-.12,6.574,6.574,0,0,1-3.036-.691A5.981,5.981,0,0,0-118.455,246.245Zm-.361-10.311s-1.533-2.766,1.8-8.177a25.592,25.592,0,0,0-4.058,8.026A2.265,2.265,0,0,1-118.816,235.934Zm-10.7,2.014c-.3,0-.6-2.074.842-4.87a13.1,13.1,0,0,0-.9,4.419A3.481,3.481,0,0,0-129.517,237.948Zm8.928-26.063c4.78,11.122-2.525,13.437-6.042,20.592a14.521,14.521,0,0,0-1.263,7.575,3.237,3.237,0,0,1-1.713.421c-1.2-.09-1.323-1.353-1.443-.842-.18,2.826.752,3.667,3.277,3.968,0,0,.421,3.367,1.593,4.6a6.672,6.672,0,0,0,3.908.271,7.106,7.106,0,0,1-2.044-2.946,6.626,6.626,0,0,1-.541-2.705c4.479-1.713,6.854-1.593,8.146-.992a6.842,6.842,0,0,0-.451-2.886c-1.323-1.323-3.517-1.2-4.75-1.022a11.83,11.83,0,0,0-3.367,1.052s-.962-4.329,4.329-10.672C-114.667,220.784-118.665,214.17-120.589,211.886Z" transform="translate(1486.864 1238.117)" fill="#ed1c26"/>
        <path id="Path_18831" data-name="Path 18831" d="M-129.827,269.547s1.082.812,1.834.6c0,0-1.052,1.172-1.2,1.112A3.922,3.922,0,0,1-129.827,269.547Zm2.224,1.683a7.267,7.267,0,0,0,1.082,2.886,5.4,5.4,0,0,1-2.074-1.744Zm8,2.585c.21-.12.421-.271.631-.421a1.815,1.815,0,0,0,.24-.24,8.688,8.688,0,0,1-4.99-3.607c-.3-.391.842,3.487,3.036,4.81C-120.3,274.176-119.967,274.026-119.606,273.815Zm-9.95-7.816a1.645,1.645,0,0,0,.782-.09,4.892,4.892,0,0,1-.842-3.337,5.677,5.677,0,0,0-.691,2.645C-130.308,265.248-129.977,265.97-129.556,266Zm3.156-9.138a12.236,12.236,0,0,0-2.315,7.786,2.893,2.893,0,0,0,.331,1.022c.18-.09.18-.541.18-.541-.271-4.78,2.224-8.207,4.509-11.453l-.03.03Zm9.619,13.708a7.046,7.046,0,0,0,.541-1.924c-1.954-.872-5.712-.06-6.824.391a.525.525,0,0,0,.271.241A8.376,8.376,0,0,0-116.781,270.569Zm-.421-6.613c-.12-.21-.24-.391-.361-.571a.661.661,0,0,0-.15-.18,3.318,3.318,0,0,0-1.653-.691,7.071,7.071,0,0,0-2.224.3,22.819,22.819,0,0,1,3.728-7.575,10.336,10.336,0,0,0,1.323-8.838,11.873,11.873,0,0,1-3.247,8.507c-4.058,4.539-3.818,7.906-3.758,8.988C-120.538,263.054-118.434,263.234-117.2,263.955Z" transform="translate(1486.332 1211.959)" fill="#012169"/>
        <path id="Path_18832" data-name="Path 18832" d="M-5.571,283.176a8.074,8.074,0,0,0,3.577-.721A4.832,4.832,0,0,0,.2,280.5,5.207,5.207,0,0,0,.922,277.8,4.238,4.238,0,0,0,.11,275.06a4.8,4.8,0,0,0-1.924-1.473,22.835,22.835,0,0,0-2.856-.932,10.06,10.06,0,0,1-2.5-.872,1.441,1.441,0,0,1-.842-1.323,1.714,1.714,0,0,1,.721-1.443,3.628,3.628,0,0,1,2.194-.541,7.826,7.826,0,0,1,4.239,1.353L.23,266.793a7.462,7.462,0,0,0-2.465-1.142,10.228,10.228,0,0,0-2.856-.391,7.849,7.849,0,0,0-3.547.721,4.91,4.91,0,0,0-2.164,1.954,5.315,5.315,0,0,0-.721,2.736,4.385,4.385,0,0,0,.812,2.766,4.621,4.621,0,0,0,1.924,1.5,22.835,22.835,0,0,0,2.856.932c.752.21,1.353.361,1.8.541a3.155,3.155,0,0,1,1.082.661,1.278,1.278,0,0,1,.421,1.022,1.558,1.558,0,0,1-.721,1.353,3.985,3.985,0,0,1-2.224.511,7.837,7.837,0,0,1-2.705-.511,7.431,7.431,0,0,1-2.345-1.323l-1.2,3.036a7.58,7.58,0,0,0,2.736,1.443A11.641,11.641,0,0,0-5.571,283.176Zm-12.385-.3h3.547V265.531h-3.547Zm-9.229-3.036H-31.3v-4.3h4.148c1.894,0,2.826.721,2.826,2.164a1.807,1.807,0,0,1-.721,1.593A3.612,3.612,0,0,1-27.185,279.84Zm-.6-11.273a3.326,3.326,0,0,1,1.984.511,1.766,1.766,0,0,1,.661,1.533,1.84,1.84,0,0,1-.661,1.533,3.326,3.326,0,0,1-1.984.511h-3.547v-4.088Zm4.208,5.291a3.767,3.767,0,0,0,1.5-1.563,4.631,4.631,0,0,0,.541-2.255,4.071,4.071,0,0,0-1.5-3.307,6.658,6.658,0,0,0-4.3-1.2H-34.85v17.345h7.936a7.324,7.324,0,0,0,4.569-1.233,4.164,4.164,0,0,0,1.563-3.517,4.559,4.559,0,0,0-.752-2.705A4.225,4.225,0,0,0-23.578,273.857Zm-21.644,5.892a4.691,4.691,0,0,1-2.465-.691A4.939,4.939,0,0,1-49.4,277.1a6.367,6.367,0,0,1-.631-2.886,6.458,6.458,0,0,1,.631-2.886,4.742,4.742,0,0,1,1.713-1.954,4.3,4.3,0,0,1,2.465-.691,4.691,4.691,0,0,1,2.465.691,4.938,4.938,0,0,1,1.713,1.954,6.368,6.368,0,0,1,.631,2.886,6.458,6.458,0,0,1-.631,2.886,4.742,4.742,0,0,1-1.713,1.954A4.691,4.691,0,0,1-45.221,279.749Zm0,3.427a8.1,8.1,0,0,0,4.3-1.172,8.167,8.167,0,0,0,3.006-3.217,9.62,9.62,0,0,0,1.082-4.6,9.7,9.7,0,0,0-1.082-4.6,8.155,8.155,0,0,0-3.006-3.217,8.024,8.024,0,0,0-4.3-1.172,8.1,8.1,0,0,0-4.3,1.172,7.959,7.959,0,0,0-3.006,3.217,9.62,9.62,0,0,0-1.082,4.6,9.7,9.7,0,0,0,1.082,4.6A8.155,8.155,0,0,0-49.52,282,8.024,8.024,0,0,0-45.221,283.176Zm-15.752,0a8.349,8.349,0,0,0,3.607-.782,7.155,7.155,0,0,0,2.705-2.315l-2.285-2.375a4.632,4.632,0,0,1-3.848,2.074,4.673,4.673,0,0,1-2.525-.691c-.752-.481-2.375-3.758-2.375-4.84a6.458,6.458,0,0,1,.631-2.886,4.6,4.6,0,0,1,1.744-1.954,4.562,4.562,0,0,1,2.525-.691,4.646,4.646,0,0,1,3.848,2.014l2.285-2.375a7.349,7.349,0,0,0-2.705-2.285,7.937,7.937,0,0,0-3.607-.782,8.247,8.247,0,0,0-4.269,1.142,8.014,8.014,0,0,0-2.976,3.186,9.741,9.741,0,0,0-1.082,4.629,9.741,9.741,0,0,0,1.082,4.629,8.014,8.014,0,0,0,2.976,3.186A8.69,8.69,0,0,0-60.973,283.176Z" transform="translate(1443.661 1198.811)" fill="#012169"/>
    </g>
</svg>
