<svg id="edexcel" xmlns="http://www.w3.org/2000/svg" width="127.803" height="33.902" viewBox="0 0 127.803 33.902">
    <rect id="Rectangle_7087" data-name="Rectangle 7087" width="127.803" height="33.902" transform="translate(0)" fill="none"/>
    <g id="Group_35672" data-name="Group 35672" transform="translate(6.356 6.356)">
        <path id="Path_18637" data-name="Path 18637" d="M258.711,306.716l-5.879-7.55,5.225-6.666h-2.978l-3.746,4.745-3.688-4.745h-2.939l5.168,6.608-5.974,7.607h2.978l4.5-5.705,4.457,5.705Z" transform="translate(-201.021 -287.351)" fill="#00314b"/>
        <g id="Group_35667" data-name="Group 35667" transform="translate(14.947 1.652)">
            <path id="Path_18638" data-name="Path 18638" d="M109.316,274.3v3.477a11.88,11.88,0,0,0-2.709-.269c-4.861,0-8.107,3.284-8.107,7.646,0,4.38,2.92,7.2,8.069,7.2a12.144,12.144,0,0,0,5.168-1.037V274.3h-2.421m0,15.733a8.952,8.952,0,0,1-2.535.364c-3.862,0-5.763-1.979-5.763-5.282,0-3.881,2.766-5.629,5.721-5.629a7.766,7.766,0,0,1,2.574.365Z" transform="translate(-98.5 -274.3)" fill="#00314b"/>
            <path id="Path_18639" data-name="Path 18639" d="M187.633,304.567l-.848-1.614a9.26,9.26,0,0,1-4.533,1.018c-3.208,0-5.686-1.96-5.744-4.994h11.468l.019-.692c.135-4.418-2.67-7.184-6.666-7.184a7.247,7.247,0,0,0-7.339,7.2c-.077,4.649,3.189,7.646,7.876,7.646a11.173,11.173,0,0,0,5.763-1.384m-11.023-7.535a4.639,4.639,0,0,1,4.687-4.015,4.11,4.11,0,0,1,4.132,4.015Z" transform="translate(-159.49 -287.873)" fill="#00314b"/>
        </g>
        <g id="Group_35668" data-name="Group 35668" transform="translate(0 4.881)">
            <path id="Path_18640" data-name="Path 18640" d="M394.433,304.567l-.848-1.614a9.26,9.26,0,0,1-4.533,1.018c-3.208,0-5.686-1.96-5.744-4.994h11.468l.019-.692c.135-4.418-2.67-7.184-6.666-7.184a7.247,7.247,0,0,0-7.339,7.2c-.077,4.649,3.208,7.646,7.876,7.646a11.272,11.272,0,0,0,5.763-1.384m-11.023-7.535a4.639,4.639,0,0,1,4.687-4.015,4.092,4.092,0,0,1,4.111,4.015Z" transform="translate(-311.617 -291.1)" fill="#00314b"/>
            <path id="Path_18641" data-name="Path 18641" d="M34.333,304.567l-.848-1.614a9.26,9.26,0,0,1-4.533,1.018c-3.208,0-5.667-1.96-5.744-4.994H34.68l.019-.692c.135-4.418-2.67-7.184-6.666-7.184a7.247,7.247,0,0,0-7.339,7.2c-.077,4.649,3.208,7.646,7.876,7.646a11.174,11.174,0,0,0,5.763-1.384m-11.027-7.535a4.639,4.639,0,0,1,4.687-4.015,4.079,4.079,0,0,1,4.111,4.015Z" transform="translate(-20.693 -291.1)" fill="#00314b"/>
        </g>
        <g id="Group_35669" data-name="Group 35669" transform="translate(56.768 4.86)">
            <path id="Path_18642" data-name="Path 18642" d="M329.088,304.486l-.922-1.672a9.517,9.517,0,0,1-4.132,1.037c-3.439,0-5.263-2.036-5.3-5.456-.038-3.265,1.979-5.379,5.4-5.379a8.231,8.231,0,0,1,3.9,1l.884-1.729A9.173,9.173,0,0,0,324.093,291c-5.648,0-7.934,3.938-7.895,7.607.038,3.612,2.267,7.242,7.684,7.242a10.628,10.628,0,0,0,5.2-1.362" transform="translate(-316.198 -290.999)" fill="#00314b"/>
        </g>
        <g id="Group_35670" data-name="Group 35670" transform="translate(84.411 0)">
            <path id="Path_18643" data-name="Path 18643" d="M463.981,290.421l.826,1.556a6.582,6.582,0,0,1-2.133.461c-1.845,0-2.574-.98-2.574-2.649V274.4h2.421v14.792c0,1.422.519,1.441,1.46,1.229" transform="translate(-460.1 -272.728)" fill="#00314b"/>
            <path id="Path_18644" data-name="Path 18644" d="M516.71,266.161a7.417,7.417,0,0,1,0,5.148,7.416,7.416,0,0,1-5.149,0,7.416,7.416,0,0,1,0-5.148,7.416,7.416,0,0,1,5.149,0" transform="translate(-501.302 -265.7)" fill="#88c6e4"/>
        </g>
        <g id="Group_35671" data-name="Group 35671" transform="translate(94.054 0.094)">
            <path id="Path_18645" data-name="Path 18645" d="M594.61,343.961a7.416,7.416,0,0,1,0,5.148,7.416,7.416,0,0,1-5.148,0,7.416,7.416,0,0,1,0-5.148,7.416,7.416,0,0,1,5.148,0" transform="translate(-573.882 -328.648)" fill="#88c6e4"/>
            <path id="Path_18646" data-name="Path 18646" d="M516.051,304.811a3.423,3.423,0,1,1-4.841,4.841,4.647,4.647,0,0,1-.711-2.421,4.476,4.476,0,0,1,.711-2.421,4.428,4.428,0,0,1,2.421-.711,4.716,4.716,0,0,1,2.421.711" transform="translate(-510.462 -296.817)" fill="#88c6e4"/>
            <path id="Path_18647" data-name="Path 18647" d="M555.151,343.811a4.581,4.581,0,0,1,0,4.841,4.476,4.476,0,0,1-2.421.711,4.427,4.427,0,0,1-2.421-.711,4.594,4.594,0,0,1-.711-2.421,4.476,4.476,0,0,1,.711-2.421,4.428,4.428,0,0,1,2.421-.711,4.379,4.379,0,0,1,2.421.711" transform="translate(-542.05 -328.326)" fill="#88c6e4"/>
            <path id="Path_18648" data-name="Path 18648" d="M556.021,266.42a18.08,18.08,0,0,1,.231,2.747,18.294,18.294,0,0,1-.231,2.747,15.892,15.892,0,0,1-2.747.231,18.058,18.058,0,0,1-2.747-.231,15.917,15.917,0,0,1-.227-2.747,18.048,18.048,0,0,1,.231-2.747,18.06,18.06,0,0,1,2.747-.231,14.083,14.083,0,0,1,2.747.231" transform="translate(-542.616 -266.188)" fill="#88c6e4"/>
            <path id="Path_18649" data-name="Path 18649" d="M595.121,305.231a18.047,18.047,0,0,1,.231,2.747,18.279,18.279,0,0,1-.231,2.747,15.9,15.9,0,0,1-2.747.231,18.271,18.271,0,0,1-2.747-.231,15.889,15.889,0,0,1-.231-2.747,18.27,18.27,0,0,1,.231-2.747,17.847,17.847,0,0,1,2.747-.231,18.05,18.05,0,0,1,2.747.231" transform="translate(-574.205 -297.544)" fill="#88c6e4"/>
            <path id="Path_18650" data-name="Path 18650" d="M555.61,305.061a7.416,7.416,0,0,1,0,5.149,7.416,7.416,0,0,1-5.148,0,7.417,7.417,0,0,1,0-5.149,7.416,7.416,0,0,1,5.148,0" transform="translate(-542.373 -297.222)" fill="#88c6e4"/>
            <rect id="Rectangle_7088" data-name="Rectangle 7088" width="5.802" height="5.802" transform="translate(15.234 0.06)" fill="#88c6e4"/>
            <path id="Path_18651" data-name="Path 18651" d="M513.489,349.178a3.178,3.178,0,1,1,2.258-.931,3.189,3.189,0,0,1-2.258.931" transform="translate(-510.3 -328.083)" fill="#88c6e4"/>
        </g>
    </g>
</svg>
