<?xml version="1.0" encoding="UTF-8"?> <svg xmlns="http://www.w3.org/2000/svg" viewBox="0 0 512 512"><defs><style> .cls-2{fill:none;stroke:#fff;stroke-linecap:round;stroke-linejoin:round;stroke-width:16px}.cls-3{fill:#fff} </style></defs><g id="core-english-language-mintgreen-sd"><circle cx="256" cy="256" r="255" style="fill:#90d5ac"></circle><g id="Icon"><path class="cls-2" d="M327.883 147.793v89.365l-38.762-25.841-38.762 25.841v-89.365"></path><path class="cls-2" d="M334.2526 113.79112H140.44168v284.256H334.2526a38.75979 38.75979 0 0 0 38.76219-38.76212V152.55331a38.75978 38.75978 0 0 0-38.76219-38.76219Z"></path><path class="cls-3" d="M194.13406 308.07336h7.0791l22.35742 52.16675h-10.50781l-4.918-11.55121h-20.94138l-4.91894 11.55121h-10.50781Zm10.13476 31.67264-6.63282-15.42642-6.63183 15.42642ZM261.84011 309.04217a14.2008 14.2008 0 0 1 4.583 2.68286 15.36412 15.36412 0 0 1 3.50293 4.62049 12.97528 12.97528 0 0 1 1.3418 5.88739 12.3146 12.3146 0 0 1-1.04395 4.9931 12.977 12.977 0 0 1-2.30957 3.7262 13.40627 13.40627 0 0 1 5.66309 5.32849 15.30889 15.30889 0 0 1 2.16113 8.01129 14.86319 14.86319 0 0 1-1.30371 6.22272 16.96838 16.96838 0 0 1-3.46582 5.03039 15.55213 15.55213 0 0 1-5.36524 3.4281 22.79679 22.79679 0 0 1-8.27246 1.26691H236.9866v-52.16675h17.73632a21.247 21.247 0 0 1 7.11719.96881Zm-7.71289 19.15265a9.36185 9.36185 0 0 0 3.57715-.52167 6.47247 6.47247 0 0 0 2.01172-1.34143 6.08392 6.08392 0 0 0 1.08105-1.71405 5.14063 5.14063 0 0 0 0-4.02429 6.0842 6.0842 0 0 0-1.08105-1.71405 6.47247 6.47247 0 0 0-2.01172-1.34143 9.36185 9.36185 0 0 0-3.57715-.52167h-7.08008v11.17859Zm7.1543 22.46893a6.948 6.948 0 0 0 2.5332-1.67675 7.03605 7.03605 0 0 0 0-9.53907 6.948 6.948 0 0 0-2.5332-1.67675 11.33914 11.33914 0 0 0-4.17383-.63349h-10.06055v14.15955h10.06055a11.33914 11.33914 0 0 0 4.17383-.63349ZM308.94167 317.687a17.60886 17.60886 0 0 0-5.51464 3.838 17.35333 17.35333 0 0 0-3.65137 5.66382 18.49874 18.49874 0 0 0-1.30371 6.96795 18.08166 18.08166 0 0 0 1.37793 7.07978 17.298 17.298 0 0 0 9.39062 9.42724 17.80564 17.80564 0 0 0 7.042 1.37873 17.20342 17.20342 0 0 0 8.79395-2.124 20.38773 20.38773 0 0 0 5.96191-5.10485l6.93067 6.18548a25.86031 25.86031 0 0 1-9.0918 7.22882 28.60932 28.60932 0 0 1-12.81836 2.75739 29.09323 29.09323 0 0 1-11.17871-2.08667 26.67728 26.67728 0 0 1-8.71875-5.70111 25.85325 25.85325 0 0 1-5.70117-8.533 27.04543 27.04543 0 0 1-2.04981-10.50788 27.47407 27.47407 0 0 1 2.0127-10.50787 25.66093 25.66093 0 0 1 5.626-8.533 26.25231 26.25231 0 0 1 8.68261-5.70111 29.0862 29.0862 0 0 1 11.17871-2.08667 27.51 27.51 0 0 1 10.65625 2.01215 27.008 27.008 0 0 1 8.42188 5.44024l-6.48438 6.8562a19.38221 19.38221 0 0 0-5.58886-3.87524 17.52528 17.52528 0 0 0-13.97364-.07452Z"></path></g></g></svg> 