<?xml version="1.0" encoding="UTF-8"?> <svg xmlns="http://www.w3.org/2000/svg" id="Layer_1" data-name="Layer 1" viewBox="0 0 512 512"><defs><style> .cls-1 { fill: #90d5ac; } .cls-2 { fill: #fff; stroke: #fff; stroke-miterlimit: 10; stroke-width: 2px; } </style></defs><circle class="cls-1" cx="256" cy="256" r="255"></circle><path class="cls-2" d="m394.57,167.64c-10.87-3.75-26.91,4.1-34.91,23.77l-3.48,8.56c-4.98-10.37-14.04-18.42-25.2-21.99,2.48-4.91,3.91-10.43,3.91-16.3v-4.09c0-20.05-16.31-36.35-36.35-36.35s-36.35,16.31-36.35,36.35v4.09c0,.78.05,1.55.1,2.32-3.11-.87-6.37-1.37-9.75-1.37s-6.65.5-9.75,1.37c.05-.77.1-1.54.1-2.32v-4.09c0-20.05-16.31-36.35-36.35-36.35s-36.35,16.31-36.35,36.35v4.09c0,5.86,1.43,11.39,3.91,16.3-11.17,3.56-20.23,11.61-25.21,21.98l-3.47-8.55c-7.99-19.67-24.03-27.53-34.91-23.77-7.68,2.65-14.14,11.54-9.26,28.54l23.41,81.65c.03.11.07.23.11.34,12.82,35.17,26.1,53.18,37.94,63.5h-14.72c-2.82,0-5.1,2.28-5.1,5.1v45.82c0,2.82,2.28,5.1,5.1,5.1h209.11c2.82,0,5.1-2.28,5.1-5.1v-45.82c0-2.82-2.28-5.1-5.1-5.1h-14.72c11.83-10.32,25.1-28.33,37.92-63.5.04-.11.08-.23.11-.34l23.43-81.65c4.88-17-1.58-25.89-9.26-28.54Zm-44.58,47.56l-13.07,32.17c-3.01-2.17-6.72-3.86-10.87-4.91-5.22-1.32-10.55-1.46-15.63-.55-4.99-10.72-14.31-18.9-25.46-22.5,2.49-4.92,3.92-10.45,3.92-16.33v-4.09c0-.79-.07-1.56-.12-2.34,3.16.89,6.44,1.37,9.77,1.37,10.27,0,19.54-4.3,26.15-11.16,13.66,2.85,23.99,14.33,25.3,28.35Zm-97.46,24.23c10.24,0,19.49-4.27,26.1-11.11,9.49,2,17.65,8.23,22.05,16.85-.91.47-1.81.96-2.67,1.51l-13.29,8.5c-12.53,8.01-25.34,16.21-32.2,32.01-6.87-15.81-19.69-24.01-32.24-32.02l-13.27-8.49c-.86-.55-1.76-1.04-2.67-1.51,4.4-8.62,12.57-14.85,22.07-16.85,6.61,6.84,15.86,11.11,26.1,11.11Zm19.85-77.75v-4.09c0-14.42,11.73-26.16,26.15-26.16s26.15,11.73,26.15,26.16v4.09c0,14.41-11.73,26.14-26.15,26.14-4.49,0-8.84-1.21-12.72-3.39-2.66-6.05-6.92-11.23-12.24-15.03-.78-2.48-1.2-5.06-1.2-7.72Zm6.3,37.31v4.09c0,14.42-11.73,26.15-26.15,26.15s-26.15-11.73-26.15-26.15v-4.09c0-14.42,11.73-26.16,26.15-26.16s26.15,11.73,26.15,26.16Zm-98.31-41.4c0-14.42,11.73-26.16,26.15-26.16s26.15,11.73,26.15,26.16v4.09c0,2.62-.42,5.21-1.2,7.72-5.32,3.8-9.58,8.97-12.24,15.02-3.88,2.19-8.23,3.39-12.72,3.39-14.42,0-26.15-11.73-26.15-26.14v-4.09Zm0,29.27c6.62,6.87,15.89,11.16,26.15,11.16,3.33,0,6.61-.48,9.77-1.37-.05.78-.12,1.55-.12,2.34v4.09c0,5.88,1.43,11.41,3.92,16.33-11.16,3.6-20.48,11.79-25.47,22.5-5.06-.9-10.39-.76-15.59.55-4.17,1.05-7.88,2.75-10.9,4.92l-13.07-32.2c1.33-14.01,11.65-25.47,25.32-28.32Zm-45.97,88l-23.36-81.48c-2.44-8.49-1.37-14.65,2.79-16.09,5.46-1.88,16.17,3.31,22.13,17.97l24.88,61.27c-3.41,8.86.82,18.58,11.34,25.37l32.81,21.18c.86.55,1.81.82,2.76.82,1.67,0,3.31-.82,4.29-2.33,1.53-2.37.85-5.52-1.52-7.05l-32.81-21.18c-2.54-1.64-10.55-7.52-6.87-14.22,0,0,0,0,0,0,1.61-2.9,5.71-5.49,10.69-6.75,7.03-1.78,14.33-.71,20,2.92l13.28,8.49c17.51,11.18,32.62,20.84,32.62,51.05v26.87h-67.07c-12.85-7.19-29.45-21.63-45.96-66.83Zm18.67,77.03h25.93s0,0,.01,0c0,0,0,0,.01,0h68.4v35.62h-94.36v-35.62Zm198.91,35.62h-94.36v-35.62h68.4s0,0,.01,0c0,0,0,0,.01,0h25.93v35.62Zm42.04-194.12l-23.38,81.48c-16.51,45.21-33.1,59.64-45.94,66.83h-67.07v-26.87c0-30.2,15.11-39.86,32.6-51.04l13.29-8.5c5.68-3.64,12.99-4.69,20.03-2.91,4.97,1.26,9.06,3.84,10.66,6.73,0,0,0,0,0,0h0c3.71,6.69-4.31,12.59-6.85,14.23l-32.82,21.18c-2.37,1.53-3.05,4.68-1.52,7.05.98,1.51,2.62,2.34,4.29,2.34.95,0,1.91-.26,2.76-.82l32.83-21.18c10.51-6.8,14.74-16.52,11.32-25.37l24.89-61.27c5.96-14.65,16.69-19.84,22.13-17.97,4.16,1.44,5.23,7.6,2.79,16.09Z"></path></svg> 