<?xml version="1.0" encoding="UTF-8"?> <svg xmlns="http://www.w3.org/2000/svg" id="Layer_2" data-name="Layer 2" viewBox="0 0 342.94 179.81"><defs><style> .cls-1 { fill: #ff6900; } .cls-1, .cls-2, .cls-3 { stroke-width: 0px; } .cls-2 { fill: #e6e6e6; } .cls-4 { isolation: isolate; } .cls-3 { fill: #bfbfbf; } .cls-5 { fill: none; stroke: #bfbfbf; stroke-width: .5px; } </style></defs><g id="Layer_1-2" data-name="Layer 1"><g id="Group_50486" data-name="Group 50486"><g id="Group_50484" data-name="Group 50484"><path id="Path_20173" data-name="Path 20173" class="cls-1" d="m52.69,64.34c2.55-1.21,5.35-1.77,8.16-1.65,4.1-.04,8.15.83,11.87,2.55,4.03,1.99,7.71,4.64,10.88,7.83l20.77-20.61c-5.25-5.36-11.65-9.45-18.71-11.96-7.84-2.86-16.13-4.28-24.48-4.2-8.9,0-16.65,1.46-23.24,4.37-6.23,2.61-11.57,7-15.33,12.61-3.63,5.5-5.44,12.04-5.44,19.62-.16,5.08.86,10.13,2.97,14.76,1.87,3.87,4.54,7.3,7.83,10.06,3.25,2.7,6.83,5,10.63,6.84,3.77,1.84,7.65,3.44,11.62,4.78,3.9,1.32,7.47,2.61,10.71,3.87,2.81,1.03,5.45,2.48,7.83,4.29,1.89,1.42,2.99,3.65,2.97,6.02.01,2.4-1.33,4.6-3.46,5.68-2.31,1.38-5.71,2.06-10.22,2.06-5.23.03-10.4-1.06-15.17-3.21-5-2.33-9.57-5.48-13.52-9.32l-20.61,20.61c5.78,6.05,12.77,10.8,20.52,13.93,7.42,2.91,16.13,4.37,26.13,4.37,15.5,0,27.51-3.27,36.02-9.81,8.52-6.54,12.78-15.8,12.78-27.78.15-5.21-.87-10.39-2.97-15.17-1.85-4-4.51-7.57-7.83-10.47-3.21-2.78-6.79-5.11-10.64-6.92-3.78-1.79-7.66-3.36-11.62-4.7-3.9-1.32-7.48-2.58-10.72-3.79-2.79-.97-5.42-2.33-7.83-4.04-1.87-1.28-2.99-3.42-2.97-5.69-.06-2.11,1.14-4.05,3.05-4.95"></path><path id="Path_20174" data-name="Path 20174" class="cls-1" d="m148.87,109.18h53.61v-26.71h-53.61v-16.81h58.73v-27.37h-91.7v117.38h92.68v-27.37h-59.71v-19.12Z"></path><path id="Path_20175" data-name="Path 20175" class="cls-2" d="m295.43,38.29v62.16l-49.98-62.16h-23.33v117.38h33.32v-60.08l48.32,60.08h24.99V38.29h-33.32Z"></path><rect id="Rectangle_10408" data-name="Rectangle 10408" class="cls-1" x="221.76" y="38.31" width="5" height="117"></rect></g><g id="Group_50485" data-name="Group 50485"><line id="Line_143-3" data-name="Line 143-3" class="cls-5" x1="293.26" y1="14.81" x2="293.26" y2="179.81"></line><line id="Line_149" data-name="Line 149" class="cls-5" x1="9.26" y1="14.81" x2="9.26" y2="179.81"></line><line id="Line_148" data-name="Line 148" class="cls-5" x1="329.26" y1="14.81" x2="329.26" y2="179.81"></line><line id="Line_150" data-name="Line 150" class="cls-5" x1="44.26" y1="14.81" x2="44.26" y2="179.81"></line><line id="Line_151" data-name="Line 151" class="cls-5" x1="80.26" y1="14.81" x2="80.26" y2="179.81"></line><line id="Line_152" data-name="Line 152" class="cls-5" x1="115.26" y1="14.81" x2="115.26" y2="179.81"></line><line id="Line_153" data-name="Line 153" class="cls-5" x1="151.26" y1="14.81" x2="151.26" y2="179.81"></line><line id="Line_154" data-name="Line 154" class="cls-5" x1="186.26" y1="14.81" x2="186.26" y2="179.81"></line><line id="Line_155" data-name="Line 155" class="cls-5" x1="222.26" y1="14.81" x2="222.26" y2="179.81"></line><line id="Line_156" data-name="Line 156" class="cls-5" x1="257.26" y1="14.81" x2="257.26" y2="179.81"></line></g><g id="_10_2" data-name=" 10 2" class="cls-4"><g class="cls-4"><path class="cls-3" d="m0,2.23v-1.09L1.82.11h.77v7.7h-1.1V1.49l-1.49.75Z"></path><path class="cls-3" d="m7.07,7.92c-1.72,0-2.81-1.49-2.81-3.96S5.36,0,7.07,0s2.8,1.49,2.8,3.96-1.09,3.96-2.8,3.96Zm0-6.88c-1.11,0-1.71,1.2-1.71,2.92s.59,2.92,1.71,2.92,1.71-1.2,1.71-2.92-.59-2.92-1.71-2.92Z"></path><path class="cls-3" d="m12.85,4.07c-1.14,0-1.98-.91-1.98-2.04s.84-2.04,1.98-2.04,1.98.91,1.98,2.04-.84,2.04-1.98,2.04Zm0-.94c.61,0,.99-.5.99-1.1s-.38-1.1-.99-1.1-.99.5-.99,1.1.39,1.1.99,1.1Zm-.38,4.68L16.96.11h.95l-4.5,7.7h-.95Zm5.06.11c-1.14,0-1.98-.91-1.98-2.04s.84-2.04,1.98-2.04,1.98.91,1.98,2.04-.84,2.04-1.98,2.04Zm0-.94c.61,0,.99-.5.99-1.1s-.38-1.1-.99-1.1-.99.5-.99,1.1.39,1.1.99,1.1Z"></path></g></g><g id="_40_3" data-name=" 40 3" class="cls-4"><g class="cls-4"><path class="cls-3" d="m104.6,5.23L108.56.11h.77v4.79h1.21v1.04h-1.21v1.87h-1.1v-1.87h-3.63v-.71Zm3.63-.33v-2.64l-2.11,2.64h2.11Z"></path><path class="cls-3" d="m114.41,7.92c-1.72,0-2.81-1.49-2.81-3.96s1.09-3.96,2.81-3.96,2.8,1.49,2.8,3.96-1.09,3.96-2.8,3.96Zm0-6.88c-1.11,0-1.71,1.2-1.71,2.92s.59,2.92,1.71,2.92,1.71-1.2,1.71-2.92-.59-2.92-1.71-2.92Z"></path><path class="cls-3" d="m120.18,4.07c-1.14,0-1.98-.91-1.98-2.04s.84-2.04,1.98-2.04,1.98.91,1.98,2.04-.84,2.04-1.98,2.04Zm0-.94c.6,0,.99-.5.99-1.1s-.39-1.1-.99-1.1-.99.5-.99,1.1.39,1.1.99,1.1Zm-.38,4.68L124.3.11h.95l-4.5,7.7h-.95Zm5.06.11c-1.14,0-1.98-.91-1.98-2.04s.84-2.04,1.98-2.04,1.98.91,1.98,2.04-.84,2.04-1.98,2.04Zm0-.94c.6,0,.99-.5.99-1.1s-.39-1.1-.99-1.1-.99.5-.99,1.1.39,1.1.99,1.1Z"></path></g></g><g class="cls-4"><g class="cls-4"><path class="cls-3" d="m212.69,7.81l3.25-6.66h-3.74V.11h5.06v.71l-3.4,6.99h-1.17Z"></path><path class="cls-3" d="m220.88,7.92c-1.72,0-2.81-1.49-2.81-3.96s1.09-3.96,2.81-3.96,2.81,1.49,2.81,3.96-1.09,3.96-2.81,3.96Zm0-6.88c-1.11,0-1.71,1.2-1.71,2.92s.59,2.92,1.71,2.92,1.71-1.2,1.71-2.92-.59-2.92-1.71-2.92Z"></path><path class="cls-3" d="m226.66,4.07c-1.14,0-1.98-.91-1.98-2.04s.84-2.04,1.98-2.04,1.98.91,1.98,2.04-.84,2.04-1.98,2.04Zm0-.94c.61,0,.99-.5.99-1.1s-.38-1.1-.99-1.1-.99.5-.99,1.1.39,1.1.99,1.1Zm-.38,4.68L230.77.11h.95l-4.5,7.7h-.95Zm5.06.11c-1.14,0-1.98-.91-1.98-2.04s.84-2.04,1.98-2.04,1.98.91,1.98,2.04-.84,2.04-1.98,2.04Zm0-.94c.61,0,.99-.5.99-1.1s-.38-1.1-.99-1.1-.99.5-.99,1.1.39,1.1.99,1.1Z"></path></g></g><g id="_20_3" data-name=" 20 3" class="cls-4"><g class="cls-4"><path class="cls-3" d="m36.59,0c1.43,0,2.49,1.09,2.49,2.42,0,1.07-.5,1.85-1.54,2.85l-1.56,1.5h3.16v1.04h-5.01v-.71l2.7-2.6c.92-.89,1.16-1.4,1.16-2.08,0-.75-.58-1.38-1.39-1.38s-1.38.59-1.55,1.48l-1.02-.26c.25-1.28,1.19-2.27,2.57-2.27Z"></path><path class="cls-3" d="m43.2,7.92c-1.72,0-2.81-1.49-2.81-3.96s1.09-3.96,2.81-3.96,2.8,1.49,2.8,3.96-1.09,3.96-2.8,3.96Zm0-6.88c-1.11,0-1.71,1.2-1.71,2.92s.59,2.92,1.71,2.92,1.71-1.2,1.71-2.92-.59-2.92-1.71-2.92Z"></path><path class="cls-3" d="m48.98,4.07c-1.14,0-1.98-.91-1.98-2.04s.84-2.04,1.98-2.04,1.98.91,1.98,2.04-.84,2.04-1.98,2.04Zm0-.94c.6,0,.99-.5.99-1.1s-.39-1.1-.99-1.1-.99.5-.99,1.1.39,1.1.99,1.1Zm-.38,4.68L53.09.11h.95l-4.5,7.7h-.95Zm5.06.11c-1.14,0-1.98-.91-1.98-2.04s.84-2.04,1.98-2.04,1.98.91,1.98,2.04-.84,2.04-1.98,2.04Zm0-.94c.6,0,.99-.5.99-1.1s-.39-1.1-.99-1.1-.99.5-.99,1.1.39,1.1.99,1.1Z"></path></g></g><g id="_50_2" data-name=" 50 2" class="cls-4"><g class="cls-4"><path class="cls-3" d="m141.92,6.11c.38.51.95.77,1.58.77.84,0,1.54-.71,1.54-1.59s-.64-1.6-1.57-1.6c-.46,0-.9.18-1.3.51l-.76-.11.5-3.97h3.85v1.04h-2.96l-.21,1.75c.31-.15.7-.24,1.07-.24,1.42,0,2.49,1.16,2.49,2.62s-1.11,2.64-2.64,2.64c-1.03,0-1.95-.5-2.42-1.23l.84-.58Z"></path><path class="cls-3" d="m150.09,7.92c-1.72,0-2.81-1.49-2.81-3.96s1.09-3.96,2.81-3.96,2.81,1.49,2.81,3.96-1.09,3.96-2.81,3.96Zm0-6.88c-1.11,0-1.71,1.2-1.71,2.92s.59,2.92,1.71,2.92,1.71-1.2,1.71-2.92-.59-2.92-1.71-2.92Z"></path><path class="cls-3" d="m155.86,4.07c-1.14,0-1.98-.91-1.98-2.04s.84-2.04,1.98-2.04,1.98.91,1.98,2.04-.84,2.04-1.98,2.04Zm0-.94c.61,0,.99-.5.99-1.1s-.38-1.1-.99-1.1-.99.5-.99,1.1.39,1.1.99,1.1Zm-.38,4.68L159.98.11h.95l-4.5,7.7h-.95Zm5.06.11c-1.14,0-1.98-.91-1.98-2.04s.84-2.04,1.98-2.04,1.98.91,1.98,2.04-.84,2.04-1.98,2.04Zm0-.94c.61,0,.99-.5.99-1.1s-.38-1.1-.99-1.1-.99.5-.99,1.1.39,1.1.99,1.1Z"></path></g></g><g class="cls-4"><g class="cls-4"><path class="cls-3" d="m248.18,3.48c-.42-.36-.68-.89-.68-1.47,0-1.1.93-2,2.15-2s2.14.9,2.14,2c0,.58-.26,1.11-.69,1.47.71.43,1.19,1.18,1.19,2.02,0,1.34-1.17,2.42-2.64,2.42s-2.64-1.08-2.64-2.42c0-.85.46-1.59,1.18-2.02Zm-.08,1.99c0,.8.66,1.41,1.54,1.41s1.54-.6,1.54-1.41-.66-1.41-1.54-1.41-1.54.61-1.54,1.41Zm.5-3.42c0,.56.44.99,1.05.99s1.04-.43,1.04-.99-.44-1-1.04-1-1.05.44-1.05,1Z"></path><path class="cls-3" d="m256.28,7.92c-1.72,0-2.81-1.49-2.81-3.96s1.09-3.96,2.81-3.96,2.8,1.49,2.8,3.96-1.09,3.96-2.8,3.96Zm0-6.88c-1.11,0-1.71,1.2-1.71,2.92s.59,2.92,1.71,2.92,1.71-1.2,1.71-2.92-.59-2.92-1.71-2.92Z"></path><path class="cls-3" d="m262.05,4.07c-1.14,0-1.98-.91-1.98-2.04s.84-2.04,1.98-2.04,1.98.91,1.98,2.04-.84,2.04-1.98,2.04Zm0-.94c.6,0,.99-.5.99-1.1s-.39-1.1-.99-1.1-.99.5-.99,1.1.38,1.1.99,1.1Zm-.38,4.68l4.5-7.7h.95l-4.5,7.7h-.95Zm5.06.11c-1.14,0-1.98-.91-1.98-2.04s.84-2.04,1.98-2.04,1.98.91,1.98,2.04-.84,2.04-1.98,2.04Zm0-.94c.6,0,.99-.5.99-1.1s-.39-1.1-.99-1.1-.99.5-.99,1.1.38,1.1.99,1.1Z"></path></g></g><g id="_30_4" data-name=" 30 4" class="cls-4"><g class="cls-4"><path class="cls-3" d="m73.15,2.75c1.13.19,1.99,1.25,1.99,2.49,0,1.45-1.07,2.68-2.7,2.68-1.08,0-2.08-.55-2.53-1.5l.91-.48c.25.41.69.93,1.62.93s1.6-.7,1.6-1.64c0-.45-.18-.86-.47-1.13-.29-.27-.68-.42-1.14-.42-.51,0-.85.12-1.02.21v-.71l1.86-2.02h-2.96V.11h4.62v.71l-1.77,1.93Z"></path><path class="cls-3" d="m79.18,7.92c-1.72,0-2.8-1.49-2.8-3.96s1.09-3.96,2.8-3.96,2.81,1.49,2.81,3.96-1.09,3.96-2.81,3.96Zm0-6.88c-1.11,0-1.71,1.2-1.71,2.92s.59,2.92,1.71,2.92,1.71-1.2,1.71-2.92-.59-2.92-1.71-2.92Z"></path><path class="cls-3" d="m84.95,4.07c-1.14,0-1.98-.91-1.98-2.04s.84-2.04,1.98-2.04,1.98.91,1.98,2.04-.84,2.04-1.98,2.04Zm0-.94c.6,0,.99-.5.99-1.1s-.39-1.1-.99-1.1-.99.5-.99,1.1.38,1.1.99,1.1Zm-.38,4.68L89.07.11h.95l-4.5,7.7h-.95Zm5.06.11c-1.14,0-1.98-.91-1.98-2.04s.84-2.04,1.98-2.04,1.98.91,1.98,2.04-.84,2.04-1.98,2.04Zm0-.94c.6,0,.99-.5.99-1.1s-.39-1.1-.99-1.1-.99.5-.99,1.1.38,1.1.99,1.1Z"></path></g></g><g class="cls-4"><g class="cls-4"><path class="cls-3" d="m178.36,2.72c.13-.03.26-.05.42-.05,1.41,0,2.62,1,2.62,2.61,0,1.5-1.16,2.65-2.7,2.65s-2.7-1.12-2.7-2.63c0-.83.44-1.59.98-2.41l1.83-2.77h1.24l-1.69,2.61Zm.34,4.17c.89,0,1.59-.69,1.59-1.6,0-.96-.7-1.61-1.59-1.61-.45,0-.84.12-1.17.31-.26.41-.44.8-.44,1.3,0,.9.69,1.6,1.61,1.6Z"></path><path class="cls-3" d="m185.24,7.92c-1.72,0-2.81-1.49-2.81-3.96s1.09-3.96,2.81-3.96,2.8,1.49,2.8,3.96-1.09,3.96-2.8,3.96Zm0-6.88c-1.11,0-1.71,1.2-1.71,2.92s.59,2.92,1.71,2.92,1.71-1.2,1.71-2.92-.59-2.92-1.71-2.92Z"></path><path class="cls-3" d="m191.02,4.07c-1.14,0-1.98-.91-1.98-2.04s.84-2.04,1.98-2.04,1.98.91,1.98,2.04-.84,2.04-1.98,2.04Zm0-.94c.6,0,.99-.5.99-1.1s-.39-1.1-.99-1.1-.99.5-.99,1.1.38,1.1.99,1.1Zm-.38,4.68L195.13.11h.95l-4.5,7.7h-.95Zm5.06.11c-1.14,0-1.98-.91-1.98-2.04s.84-2.04,1.98-2.04,1.98.91,1.98,2.04-.84,2.04-1.98,2.04Zm0-.94c.6,0,.99-.5.99-1.1s-.39-1.1-.99-1.1-.99.5-.99,1.1.38,1.1.99,1.1Z"></path></g></g><g class="cls-4"><g class="cls-4"><path class="cls-3" d="m285.93,5.2c-.13.03-.26.05-.42.05-1.41,0-2.62-1-2.62-2.61,0-1.5,1.16-2.65,2.7-2.65s2.7,1.12,2.7,2.63c0,.83-.44,1.59-.98,2.41l-1.83,2.77h-1.24l1.69-2.61Zm-.34-4.17c-.89,0-1.6.69-1.6,1.6,0,.96.7,1.61,1.6,1.61.45,0,.84-.12,1.17-.31.26-.41.44-.8.44-1.3,0-.9-.69-1.6-1.61-1.6Z"></path><path class="cls-3" d="m292.24,7.92c-1.72,0-2.81-1.49-2.81-3.96s1.09-3.96,2.81-3.96,2.8,1.49,2.8,3.96-1.09,3.96-2.8,3.96Zm0-6.88c-1.11,0-1.71,1.2-1.71,2.92s.59,2.92,1.71,2.92,1.71-1.2,1.71-2.92-.59-2.92-1.71-2.92Z"></path><path class="cls-3" d="m298.02,4.07c-1.14,0-1.98-.91-1.98-2.04s.84-2.04,1.98-2.04,1.98.91,1.98,2.04-.84,2.04-1.98,2.04Zm0-.94c.6,0,.99-.5.99-1.1s-.39-1.1-.99-1.1-.99.5-.99,1.1.38,1.1.99,1.1Zm-.38,4.68l4.5-7.7h.95l-4.5,7.7h-.95Zm5.06.11c-1.14,0-1.98-.91-1.98-2.04s.84-2.04,1.98-2.04,1.98.91,1.98,2.04-.84,2.04-1.98,2.04Zm0-.94c.6,0,.99-.5.99-1.1s-.39-1.1-.99-1.1-.99.5-.99,1.1.38,1.1.99,1.1Z"></path></g></g><g class="cls-4"><g class="cls-4"><path class="cls-3" d="m316.57,2.23v-1.09l1.82-1.03h.77v7.7h-1.1V1.49l-1.49.75Z"></path><path class="cls-3" d="m323.64,7.92c-1.72,0-2.81-1.49-2.81-3.96s1.09-3.96,2.81-3.96,2.81,1.49,2.81,3.96-1.09,3.96-2.81,3.96Zm0-6.88c-1.11,0-1.71,1.2-1.71,2.92s.59,2.92,1.71,2.92,1.71-1.2,1.71-2.92-.59-2.92-1.71-2.92Z"></path><path class="cls-3" d="m330.5,7.92c-1.72,0-2.81-1.49-2.81-3.96s1.09-3.96,2.81-3.96,2.81,1.49,2.81,3.96-1.09,3.96-2.81,3.96Zm0-6.88c-1.11,0-1.71,1.2-1.71,2.92s.59,2.92,1.71,2.92,1.71-1.2,1.71-2.92-.59-2.92-1.71-2.92Z"></path><path class="cls-3" d="m336.28,4.07c-1.14,0-1.98-.91-1.98-2.04s.84-2.04,1.98-2.04,1.98.91,1.98,2.04-.84,2.04-1.98,2.04Zm0-.94c.61,0,.99-.5.99-1.1s-.38-1.1-.99-1.1-.99.5-.99,1.1.39,1.1.99,1.1Zm-.38,4.68l4.5-7.7h.95l-4.5,7.7h-.95Zm5.06.11c-1.14,0-1.98-.91-1.98-2.04s.84-2.04,1.98-2.04,1.98.91,1.98,2.04-.84,2.04-1.98,2.04Zm0-.94c.61,0,.99-.5.99-1.1s-.38-1.1-.99-1.1-.99.5-.99,1.1.39,1.1.99,1.1Z"></path></g></g></g></g></svg> 