<?xml version="1.0" encoding="UTF-8"?> <svg xmlns="http://www.w3.org/2000/svg" id="Layer_2" data-name="Layer 2" viewBox="0 0 290.59 284.4"><defs><style> .cls-1 { fill: none; stroke: #bfbfbf; } .cls-2 { fill: #143256; } .cls-2, .cls-3, .cls-4, .cls-5, .cls-6, .cls-7, .cls-8 { stroke-width: 0px; } .cls-9 { isolation: isolate; } .cls-4 { fill: #f5f5f5; } .cls-10 { opacity: .4; } .cls-5 { fill: #bfbfbf; } .cls-6 { fill: #fdda4f; } .cls-7 { fill: #fff; } .cls-8 { fill: #1d1d1b; } </style></defs><g id="Layer_1-2" data-name="Layer 1"><g id="Group_50476" data-name="Group 50476"><rect id="Rectangle_10402" data-name="Rectangle 10402" class="cls-4" x="159.07" y="5.57" width="124.8" height="276.48"></rect><rect id="Rectangle_10403" data-name="Rectangle 10403" class="cls-4" x="34.27" y="5.57" width="125.76" height="276.48"></rect><g class="cls-9"><g class="cls-9"><path class="cls-5" d="m0,5.23L3.96.11h.77v4.79h1.21v1.04h-1.21v1.87h-1.1v-1.87H0v-.71Zm3.63-.33v-2.64l-2.11,2.64h2.11Z"></path><path class="cls-5" d="m9.81,7.92c-1.72,0-2.81-1.49-2.81-3.96s1.09-3.96,2.81-3.96,2.81,1.49,2.81,3.96-1.09,3.96-2.81,3.96Zm0-6.88c-1.11,0-1.71,1.2-1.71,2.92s.59,2.92,1.71,2.92,1.71-1.2,1.71-2.92-.59-2.92-1.71-2.92Z"></path><path class="cls-5" d="m15.59,4.07c-1.14,0-1.98-.91-1.98-2.04s.84-2.04,1.98-2.04,1.98.91,1.98,2.04-.84,2.04-1.98,2.04Zm0-.94c.61,0,.99-.5.99-1.1s-.38-1.1-.99-1.1-.99.5-.99,1.1.39,1.1.99,1.1Zm-.38,4.68L19.7.11h.95l-4.5,7.7h-.95Zm5.06.11c-1.14,0-1.98-.91-1.98-2.04s.84-2.04,1.98-2.04,1.98.91,1.98,2.04-.84,2.04-1.98,2.04Zm0-.94c.61,0,.99-.5.99-1.1s-.38-1.1-.99-1.1-.99.5-.99,1.1.39,1.1.99,1.1Z"></path></g></g><g class="cls-9"><g class="cls-9"><path class="cls-5" d="m4.28,95.87c1.13.19,1.99,1.25,1.99,2.49,0,1.45-1.07,2.68-2.7,2.68-1.08,0-2.08-.55-2.53-1.5l.91-.48c.25.41.69.93,1.62.93s1.6-.7,1.6-1.64c0-.45-.18-.86-.47-1.13-.29-.27-.68-.42-1.14-.42-.51,0-.85.12-1.02.21v-.71l1.86-2.02H1.43v-1.04h4.62v.71l-1.77,1.93Z"></path><path class="cls-5" d="m10.31,101.04c-1.72,0-2.81-1.49-2.81-3.96s1.09-3.96,2.81-3.96,2.81,1.49,2.81,3.96-1.09,3.96-2.81,3.96Zm0-6.88c-1.11,0-1.71,1.2-1.71,2.92s.59,2.92,1.71,2.92,1.71-1.2,1.71-2.92-.59-2.92-1.71-2.92Z"></path><path class="cls-5" d="m16.08,97.19c-1.14,0-1.98-.91-1.98-2.04s.84-2.04,1.98-2.04,1.98.91,1.98,2.04-.84,2.04-1.98,2.04Zm0-.94c.61,0,.99-.5.99-1.1s-.38-1.1-.99-1.1-.99.5-.99,1.1.39,1.1.99,1.1Zm-.38,4.68l4.5-7.7h.95l-4.5,7.7h-.95Zm5.06.11c-1.14,0-1.98-.91-1.98-2.04s.84-2.04,1.98-2.04,1.98.91,1.98,2.04-.84,2.04-1.98,2.04Zm0-.94c.61,0,.99-.5.99-1.1s-.38-1.1-.99-1.1-.99.5-.99,1.1.39,1.1.99,1.1Z"></path></g></g><g class="cls-9"><g class="cls-9"><path class="cls-5" d="m3.74,185.28c1.43,0,2.49,1.09,2.49,2.42,0,1.07-.5,1.85-1.54,2.85l-1.56,1.5h3.16v1.04H1.28v-.71l2.7-2.6c.92-.89,1.16-1.4,1.16-2.08,0-.75-.58-1.38-1.39-1.38s-1.38.59-1.55,1.48l-1.02-.26c.25-1.28,1.19-2.27,2.57-2.27Z"></path><path class="cls-5" d="m10.35,193.2c-1.72,0-2.81-1.49-2.81-3.96s1.09-3.96,2.81-3.96,2.81,1.49,2.81,3.96-1.09,3.96-2.81,3.96Zm0-6.88c-1.11,0-1.71,1.2-1.71,2.92s.59,2.92,1.71,2.92,1.71-1.2,1.71-2.92-.59-2.92-1.71-2.92Z"></path><path class="cls-5" d="m16.13,189.35c-1.14,0-1.98-.91-1.98-2.04s.84-2.04,1.98-2.04,1.98.91,1.98,2.04-.84,2.04-1.98,2.04Zm0-.94c.61,0,.99-.5.99-1.1s-.38-1.1-.99-1.1-.99.5-.99,1.1.39,1.1.99,1.1Zm-.38,4.68l4.5-7.7h.95l-4.5,7.7h-.95Zm5.06.11c-1.14,0-1.98-.91-1.98-2.04s.84-2.04,1.98-2.04,1.98.91,1.98,2.04-.84,2.04-1.98,2.04Zm0-.94c.61,0,.99-.5.99-1.1s-.38-1.1-.99-1.1-.99.5-.99,1.1.39,1.1.99,1.1Z"></path></g></g><g class="cls-9"><g class="cls-9"><path class="cls-5" d="m1.03,278.71v-1.09l1.82-1.03h.77v7.7h-1.1v-6.33l-1.49.75Z"></path><path class="cls-5" d="m8.1,284.4c-1.72,0-2.81-1.49-2.81-3.96s1.09-3.96,2.81-3.96,2.8,1.49,2.8,3.96-1.09,3.96-2.8,3.96Zm0-6.88c-1.11,0-1.71,1.2-1.71,2.92s.59,2.92,1.71,2.92,1.71-1.2,1.71-2.92-.59-2.92-1.71-2.92Z"></path><path class="cls-5" d="m13.87,280.55c-1.14,0-1.98-.91-1.98-2.04s.84-2.04,1.98-2.04,1.98.91,1.98,2.04-.84,2.04-1.98,2.04Zm0-.94c.61,0,.99-.5.99-1.1s-.38-1.1-.99-1.1-.99.5-.99,1.1.39,1.1.99,1.1Zm-.38,4.68l4.5-7.7h.95l-4.5,7.7h-.95Zm5.06.11c-1.14,0-1.98-.91-1.98-2.04s.84-2.04,1.98-2.04,1.98.91,1.98,2.04-.84,2.04-1.98,2.04Zm0-.94c.61,0,.99-.5.99-1.1s-.38-1.1-.99-1.1-.99.5-.99,1.1.39,1.1.99,1.1Z"></path></g></g><rect id="Rectangle_10405" data-name="Rectangle 10405" class="cls-6" x="160.03" y="143.81" width="123.84" height="138.24"></rect><rect id="Rectangle_10404" data-name="Rectangle 10404" class="cls-2" x="34.27" y="109.81" width="125.67" height="172.13"></rect><g class="cls-9"><g class="cls-9"><path class="cls-7" d="m81.56,212.81h-13.49v-2.18l7.08-6.7c2.41-2.26,2.78-3.74,2.78-5.11,0-1.97-1.42-3.42-3.22-3.42-2.15,0-3.51,1.45-4,3.97l-3.07-.75c.52-3.45,2.96-6.41,7.11-6.41,3.68,0,6.67,2.81,6.67,6.61,0,2.35-.78,4.53-3.89,7.43l-3.63,3.37h7.66v3.19Z"></path><path class="cls-7" d="m98.93,199.09c0,2.21-1.22,4.44-2.78,6.9l-4.38,6.82h-3.86l4.21-6.67c-.26.03-.58.06-.87.06-3.68,0-6.96-2.61-6.96-6.85s3.31-7.14,7.37-7.14,7.28,2.78,7.28,6.87Zm-11.17.23c0,2.2,1.65,3.89,4,3.89.9,0,1.77-.23,2.55-.58.64-.96,1.13-2.12,1.13-3.39,0-2.26-1.6-3.83-3.8-3.83s-3.89,1.57-3.89,3.92Z"></path><path class="cls-7" d="m106.61,192.22c3.08,0,5.42,2.38,5.42,5.45s-2.35,5.42-5.42,5.42-5.42-2.35-5.42-5.42,2.35-5.45,5.42-5.45Zm0,2.76c-1.42,0-2.38,1.16-2.38,2.64s.96,2.73,2.38,2.73,2.38-1.25,2.38-2.73-.96-2.64-2.38-2.64Zm1.97,17.84h-2.79l11.86-20.3h2.78l-11.86,20.3Zm11.05.29c-3.08,0-5.42-2.38-5.42-5.45s2.35-5.42,5.42-5.42,5.42,2.35,5.42,5.42-2.35,5.45-5.42,5.45Zm0-2.76c1.42,0,2.38-1.22,2.38-2.7s-.96-2.67-2.38-2.67-2.38,1.19-2.38,2.67.96,2.7,2.38,2.7Z"></path></g></g><g id="King_s_InterHigh" data-name="King s InterHigh" class="cls-9"><g class="cls-9"><path class="cls-7" d="m59,266.48v-7h1v2.95l2.91-2.95h1.29l-3.19,3.22,3.39,3.78h-1.26l-3.14-3.5v3.5h-1Z"></path><path class="cls-7" d="m65.65,259.49c.35,0,.63.28.63.63s-.28.62-.63.62-.62-.27-.62-.62.27-.63.62-.63Zm-.47,2.3h.95v4.7h-.95v-4.7Z"></path><path class="cls-7" d="m68.69,262.23c.25-.24.73-.55,1.41-.55s1.31.32,1.71.83c.3.38.46.86.46,1.67v2.3h-.95v-2.35c0-.6-.11-.88-.28-1.09-.22-.28-.58-.46-.97-.46-.62,0-1.07.33-1.35.67v3.23h-.95v-4.7h.92v.45Z"></path><path class="cls-7" d="m75.85,266.58c-.42,0-.86-.12-1.18-.31-.71-.42-1.2-1.2-1.2-2.14s.5-1.73,1.21-2.15c.32-.19.71-.3,1.15-.3.53,0,1.04.16,1.47.53v-.43h.92v4.5c0,.7-.09,1.17-.28,1.54-.39.76-1.19,1.16-2.06,1.16-1.23,0-1.96-.64-2.26-1.09l.69-.55c.34.39.79.74,1.56.74.51,0,.91-.19,1.14-.54.17-.26.26-.62.26-1.21v-.26c-.38.33-.86.51-1.42.51Zm1.42-3.33c-.29-.38-.77-.67-1.34-.67-.91,0-1.51.73-1.51,1.55s.65,1.55,1.56,1.55c.48,0,.97-.24,1.29-.67v-1.76Z"></path><path class="cls-7" d="m79.67,259.49h.95l-.15,2.6h-.65l-.15-2.6Z"></path><path class="cls-7" d="m83.37,266.58c-.75,0-1.39-.23-1.9-.65l.49-.65c.44.32.9.47,1.39.47.41,0,.82-.22.82-.59,0-.92-2.55-.36-2.55-2.06,0-.99.9-1.42,1.74-1.42.67,0,1.19.23,1.56.52l-.46.65c-.31-.21-.66-.34-1.04-.34-.46,0-.85.22-.85.59,0,.8,2.55.35,2.55,2.06,0,.88-.84,1.42-1.75,1.42Z"></path><path class="cls-7" d="m88.98,266.48v-7h1v7h-1Z"></path><path class="cls-7" d="m92.65,262.23c.25-.24.73-.55,1.41-.55s1.31.32,1.71.83c.3.38.46.86.46,1.67v2.3h-.95v-2.35c0-.6-.11-.88-.28-1.09-.22-.28-.58-.46-.97-.46-.62,0-1.07.33-1.35.67v3.23h-.95v-4.7h.92v.45Z"></path><path class="cls-7" d="m100.72,266.26c-.33.22-.67.32-1.04.32-.47,0-.91-.2-1.19-.54-.22-.27-.32-.63-.32-1.21v-2.2h-1.1v-.85h1.1v-1.51h.95v1.51h1.4v.85h-1.4v2.23c0,.37.05.52.15.64.12.14.3.21.51.21s.41-.07.57-.17l.37.72Z"></path><path class="cls-7" d="m102.27,264.33c.07.79.64,1.4,1.47,1.4.62,0,1.09-.3,1.41-.61l.56.58c-.48.55-1.16.88-2.01.88-1.38,0-2.34-1.04-2.34-2.45s.96-2.45,2.32-2.45,2.23,1.06,2.23,2.45c0,.04,0,.11-.01.2h-3.63Zm.09-.8h2.56c-.14-.6-.68-1.02-1.24-1.02-.61,0-1.16.41-1.32,1.02Z"></path><path class="cls-7" d="m109.79,262.64c-.11-.02-.2-.03-.33-.03-.55,0-1.06.3-1.37.79v3.08h-.95v-4.7h.92v.56c.23-.3.72-.61,1.41-.61.06,0,.17,0,.32.02v.89Z"></path><path class="cls-7" d="m110.97,266.48v-7h1v2.75h3.9v-2.75h1v7h-1v-3.3h-3.9v3.3h-1Z"></path><path class="cls-7" d="m119.09,259.49c.35,0,.63.28.63.63s-.28.62-.63.62-.62-.27-.62-.62.27-.63.62-.63Zm-.47,2.3h.95v4.7h-.95v-4.7Z"></path><path class="cls-7" d="m123.24,266.58c-.42,0-.86-.12-1.18-.31-.71-.42-1.2-1.2-1.2-2.14s.5-1.73,1.21-2.15c.32-.19.71-.3,1.15-.3.53,0,1.04.16,1.47.53v-.43h.92v4.5c0,.7-.09,1.17-.28,1.54-.39.76-1.19,1.16-2.06,1.16-1.23,0-1.96-.64-2.26-1.09l.69-.55c.34.39.79.74,1.56.74.51,0,.91-.19,1.14-.54.17-.26.26-.62.26-1.21v-.26c-.38.33-.86.51-1.42.51Zm1.42-3.33c-.29-.38-.77-.67-1.34-.67-.91,0-1.51.73-1.51,1.55s.65,1.55,1.56,1.55c.48,0,.97-.24,1.29-.67v-1.76Z"></path><path class="cls-7" d="m128.2,262.19c.26-.22.73-.51,1.38-.51.69,0,1.31.32,1.71.83.3.38.46.86.46,1.67v2.3h-.95v-2.35c0-.6-.11-.88-.28-1.09-.22-.28-.58-.46-.97-.46-.62,0-1.07.33-1.35.67v3.23h-.95v-7.1h.95v2.81Z"></path></g></g><g class="cls-9"><g class="cls-9"><path class="cls-3" d="m205.62,212.81h-13.49v-2.18l7.08-6.7c2.41-2.26,2.79-3.74,2.79-5.11,0-1.97-1.42-3.42-3.22-3.42-2.15,0-3.51,1.45-4,3.97l-3.08-.75c.52-3.45,2.96-6.41,7.11-6.41,3.68,0,6.67,2.81,6.67,6.61,0,2.35-.78,4.53-3.89,7.43l-3.63,3.37h7.66v3.19Z"></path><path class="cls-3" d="m222.41,212.81h-13.49v-2.18l7.08-6.7c2.41-2.26,2.79-3.74,2.79-5.11,0-1.97-1.42-3.42-3.22-3.42-2.15,0-3.51,1.45-4,3.97l-3.08-.75c.52-3.45,2.96-6.41,7.11-6.41,3.68,0,6.67,2.81,6.67,6.61,0,2.35-.78,4.53-3.89,7.43l-3.63,3.37h7.66v3.19Z"></path><path class="cls-3" d="m230.41,192.22c3.08,0,5.42,2.38,5.42,5.45s-2.35,5.42-5.42,5.42-5.42-2.35-5.42-5.42,2.35-5.45,5.42-5.45Zm0,2.76c-1.42,0-2.38,1.16-2.38,2.64s.96,2.73,2.38,2.73,2.38-1.25,2.38-2.73-.96-2.64-2.38-2.64Zm1.97,17.84h-2.79l11.86-20.3h2.78l-11.86,20.3Zm11.05.29c-3.08,0-5.42-2.38-5.42-5.45s2.35-5.42,5.42-5.42,5.42,2.35,5.42,5.42-2.35,5.45-5.42,5.45Zm0-2.76c1.42,0,2.38-1.22,2.38-2.7s-.96-2.67-2.38-2.67-2.38,1.19-2.38,2.67.96,2.7,2.38,2.7Z"></path></g></g><g id="JCQ_National" data-name="JCQ National" class="cls-9"><g class="cls-9"><path class="cls-8" d="m190.5,265.06c.18.34.53.57.95.57.31,0,.62-.16.79-.39.12-.16.19-.37.19-.79v-4.97h1v4.9c0,.55-.08.9-.24,1.19-.34.6-1,1.01-1.74,1.01-.81,0-1.52-.42-1.82-1.13l.87-.39Z"></path><path class="cls-8" d="m198.3,259.39c1,0,1.95.41,2.56,1.08l-.65.65c-.44-.44-1.13-.78-1.91-.78-1.43,0-2.54,1.14-2.54,2.65s1.14,2.65,2.63,2.65c.94,0,1.62-.53,2.03-.98l.69.63c-.6.77-1.64,1.3-2.72,1.3-2.09,0-3.63-1.53-3.63-3.6s1.52-3.6,3.54-3.6Z"></path><path class="cls-8" d="m205.15,259.39c1.98,0,3.5,1.56,3.5,3.6,0,.92-.31,1.74-.83,2.37l1.03,1.13h-1.24l-.47-.51c-.56.39-1.24.61-1.99.61-1.98,0-3.5-1.56-3.5-3.6s1.52-3.6,3.5-3.6Zm0,6.25c.5,0,.96-.14,1.34-.38l-1.68-1.87.7-.6,1.64,1.83c.31-.44.5-1,.5-1.63,0-1.51-1.07-2.65-2.5-2.65s-2.5,1.14-2.5,2.65,1.07,2.65,2.5,2.65Z"></path><path class="cls-8" d="m212.61,266.48v-7h.7l4.2,5.14v-5.14h1v7h-.7l-4.2-5.14v5.14h-1Z"></path><path class="cls-8" d="m223.66,266.05c-.38.34-.89.53-1.45.53-.42,0-.86-.12-1.18-.31-.71-.42-1.2-1.2-1.2-2.14s.5-1.73,1.21-2.15c.32-.19.71-.3,1.15-.3.53,0,1.04.16,1.47.53v-.43h.92v4.7h-.92v-.43Zm-.03-2.8c-.29-.38-.77-.67-1.34-.67-.91,0-1.51.73-1.51,1.55s.65,1.55,1.56,1.55c.48,0,.97-.24,1.29-.67v-1.76Z"></path><path class="cls-8" d="m229.27,266.26c-.33.22-.67.32-1.04.32-.47,0-.91-.2-1.19-.54-.22-.27-.32-.63-.32-1.21v-2.2h-1.1v-.85h1.1v-1.51h.95v1.51h1.4v.85h-1.4v2.23c0,.37.05.52.15.64.12.14.3.21.51.21s.41-.07.57-.17l.37.72Z"></path><path class="cls-8" d="m230.81,259.49c.35,0,.63.28.63.63s-.28.62-.63.62-.62-.27-.62-.62.27-.63.62-.63Zm-.47,2.3h.95v4.7h-.95v-4.7Z"></path><path class="cls-8" d="m235.01,261.69c1.39,0,2.43,1.05,2.43,2.45s-1.04,2.45-2.43,2.45-2.43-1.05-2.43-2.45,1.04-2.45,2.43-2.45Zm0,4c.87,0,1.48-.69,1.48-1.55s-.61-1.55-1.48-1.55-1.48.69-1.48,1.55.61,1.55,1.48,1.55Z"></path><path class="cls-8" d="m239.65,262.23c.25-.24.73-.55,1.41-.55s1.31.32,1.71.83c.3.38.46.86.46,1.67v2.3h-.95v-2.35c0-.6-.11-.88-.28-1.09-.22-.28-.58-.46-.97-.46-.62,0-1.07.33-1.35.67v3.23h-.95v-4.7h.92v.45Z"></path><path class="cls-8" d="m248.26,266.05c-.38.34-.89.53-1.45.53-.42,0-.86-.12-1.18-.31-.71-.42-1.2-1.2-1.2-2.14s.5-1.73,1.21-2.15c.32-.19.71-.3,1.15-.3.53,0,1.04.16,1.47.53v-.43h.92v4.7h-.92v-.43Zm-.03-2.8c-.29-.38-.77-.67-1.34-.67-.91,0-1.51.73-1.51,1.55s.65,1.55,1.56,1.55c.48,0,.97-.24,1.29-.67v-1.76Z"></path><path class="cls-8" d="m250.82,259.39h.95v7.1h-.95v-7.1Z"></path></g></g><g id="Group_50531" data-name="Group 50531" class="cls-10"><line id="Line_140" data-name="Line 140" class="cls-1" x1="27.55" y1="6.05" x2="290.59" y2="6.05"></line><line id="Line_141" data-name="Line 141" class="cls-1" x1="27.55" y1="98.21" x2="290.59" y2="98.21"></line><line id="Line_142" data-name="Line 142" class="cls-1" x1="27.55" y1="190.37" x2="290.59" y2="190.37"></line><line id="Line_143" data-name="Line 143" class="cls-1" x1="27.55" y1="282.53" x2="290.59" y2="282.53"></line></g></g></g></svg> 