<?xml version="1.0" encoding="UTF-8"?> <svg xmlns="http://www.w3.org/2000/svg" xmlns:xlink="http://www.w3.org/1999/xlink" id="Layer_2" data-name="Layer 2" viewBox="0 0 271.95 271.95"><defs><style> .cls-1 { fill: #68a380; } .cls-1, .cls-2, .cls-3, .cls-4, .cls-5, .cls-6, .cls-7, .cls-8, .cls-9, .cls-10, .cls-11 { stroke-width: 0px; } .cls-2 { fill: #143256; } .cls-12, .cls-4, .cls-9, .cls-10 { isolation: isolate; } .cls-3, .cls-4, .cls-9, .cls-10 { fill: #90d5ac; } .cls-4 { opacity: .2; } .cls-5 { fill: #f5f5f5; } .cls-6 { fill: none; } .cls-7 { fill: #fff; } .cls-13 { clip-path: url(#clippath); } .cls-8 { fill: #7dbd97; } .cls-9 { opacity: .8; } .cls-10 { opacity: .6; } .cls-11 { fill: #558a6b; } </style><clipPath id="clippath"><rect class="cls-6" x="7.12" y="0" width="259.9" height="266.93"></rect></clipPath></defs><g id="Layer_1-2" data-name="Layer 1"><g id="Group_50483" data-name="Group 50483"><path id="Path_20172" data-name="Path 20172" class="cls-7" d="m271.95,135.98c0,75.1-60.88,135.97-135.98,135.97C60.88,271.94,0,211.07,0,135.97,0,60.88,60.88,0,135.97,0c75.1,0,135.97,60.88,135.97,135.97h0"></path><g id="Group_50482" data-name="Group 50482"><g class="cls-13"><g id="Group_50478" data-name="Group 50478"><path id="Path_20161" data-name="Path 20161" class="cls-3" d="m88.97,204.3l-27.46,38.44c-22.32-15.96-39.02-38.55-47.73-64.57l43.96-14.67c5.84,16.56,16.78,30.84,31.24,40.8"></path><path id="Path_20162" data-name="Path 20162" class="cls-8" d="m57.73,163.5l-43.96,14.67c-4.31-12.93-6.55-26.47-6.64-40.1,0-.34-.01-.7-.01-1.04-.01-13.28,2.02-26.49,6.01-39.16l43.56,13.77c-2.41,7.89-3.64,16.1-3.63,24.35,0,.57,0,1.14.02,1.71.17,8.79,1.74,17.5,4.66,25.8"></path><path id="Path_20163" data-name="Path 20163" class="cls-9" d="m138.07,266.92c-.35,0-.7.01-1.05.01-27.08.03-53.49-8.43-75.51-24.19l27.46-38.44c13.82,9.53,30.21,14.63,47,14.6.57,0,1.14,0,1.7-.02l.4,48.04Z"></path><path id="Path_20164" data-name="Path 20164" class="cls-4" d="m260.9,176.18c-8.28,26.15-24.62,49.02-46.69,65.32l-28.79-38.97c13.81-10.26,24.09-24.56,29.42-40.91l46.06,14.56Z"></path><path id="Path_20165" data-name="Path 20165" class="cls-10" d="m214.22,241.51c-22.04,16.34-48.72,25.24-76.15,25.41l-.39-48.04c17.23-.33,33.93-6.04,47.75-16.34l28.79,38.97Z"></path><path id="Path_20166" data-name="Path 20166" class="cls-1" d="m86.87,69.16c-14.36,10.56-24.94,25.45-30.18,42.47l-43.56-13.77c4.11-13,10.24-25.27,18.18-36.35,7.94-11.08,17.55-20.86,28.51-28.97l27.05,36.61Z"></path><path id="Path_20167" data-name="Path 20167" class="cls-11" d="m136.34,53.07h-.37c-17.67-.03-34.88,5.61-49.1,16.1l-27.06-36.61c22.05-16.33,48.72-25.23,76.15-25.41l.37,45.93Z"></path><path id="Path_20168" data-name="Path 20168" class="cls-5" d="m266.91,136c-.51-71.36-58.53-128.92-129.89-128.86-.35,0-.7.01-1.04.01l1.04,129.89h0l123.89,39.16c3.99-12.67,6.02-25.87,6.01-39.16,0-.35-.01-.7-.01-1.04"></path><path id="Path_20169" data-name="Path 20169" class="cls-7" d="m218.88,135.97c0,45.79-37.12,82.91-82.91,82.9s-82.91-37.12-82.9-82.91c0-45.79,37.12-82.91,82.91-82.9,45.79,0,82.91,37.12,82.91,82.91"></path></g></g><g class="cls-12"><g class="cls-12"><path class="cls-2" d="m84.79,115.93h28.8v4.8l-17.22,37.2h-8.58l16.02-34.8h-19.02v-7.2Z"></path><path class="cls-2" d="m117.18,121.93l10.2-6h5.7v42h-8.1v-32.64l-7.8,4.32v-7.68Z"></path><path class="cls-2" d="m151.68,115.33c6.6,0,11.4,4.92,11.4,11.4s-4.8,11.4-11.4,11.4-11.4-4.92-11.4-11.4,4.8-11.4,11.4-11.4Zm0,6.6c-2.58,0-4.2,1.98-4.2,4.8s1.62,4.8,4.2,4.8,4.2-1.98,4.2-4.8-1.62-4.8-4.2-4.8Zm-1.74,36l24.54-42h6.36l-24.54,42h-6.36Zm29.16-22.2c6.6,0,11.4,4.92,11.4,11.4s-4.8,11.4-11.4,11.4-11.4-4.92-11.4-11.4,4.8-11.4,11.4-11.4Zm0,6.6c-2.58,0-4.2,1.98-4.2,4.8s1.62,4.8,4.2,4.8,4.2-1.98,4.2-4.8-1.62-4.8-4.2-4.8Z"></path></g></g></g></g></g></svg> 