<?xml version="1.0" encoding="UTF-8"?> <svg xmlns="http://www.w3.org/2000/svg" viewBox="0 0 512 512"><defs><style> .cls-2,.cls-4{fill:none;stroke:#fff;stroke-linecap:round;stroke-linejoin:round}.cls-2{stroke-width:12px}.cls-4{stroke-width:16px} </style></defs><g id="ks2-science-mintgreen-sd"><circle cx="256" cy="256" r="255" style="fill:#90d5ac"></circle><g id="Icon"><path class="cls-2" d="M247.86613 325.89874c.04871-14.35528.1388-36.62127.31161-63.98877.3707-58.69491.87189-72.91729 5.23332-92.97986 3.0014-13.80645 6.37352-18.47832 11.80552-27.813M297.18978 127.83669c-8.88818 12.47272-31.49154 11.61105-31.49154 11.61105s-8.19276-21.084.69535-33.55668c8.88818-12.47272 31.4916-11.611 31.4916-11.611s8.19281 21.08394-.69541 33.55663ZM204.35032 139.16284a27.13063 27.13063 0 0 1-7.49382-13.63876 28.13173 28.13173 0 0 1 2.02034-17.7061 23.918 23.918 0 0 0 9.94806 9.45374c8.14286 3.87883 14.24333.02747 19.35511 3.21788 3.6204 2.25969 6.89108 8.14318 5.31566 24.068-.7312.22923-17.86783 5.31108-29.14535-5.39476Z"></path><path class="cls-2" d="M233.49567 144.55763c9.93406 9.29737 15.43161 18.344 19.7153 25.97322M274.48943 232.4602h15.587M274.48943 272.4757h15.587"></path><path style="stroke-miterlimit:10;stroke-width:12px;fill:none;stroke:#fff;stroke-linecap:round" d="M274.48943 312.4912h15.587"></path><path class="cls-4" d="M298.80018 206.44284v171.01593c0 17.0883-17.90706 36.83485-39.79341 36.83485h-.00008c-21.88644 0-39.7935-19.74655-39.7935-36.83485V206.44284M224.84064 206.44284h-14.4689c-6.7241 0-12.22565-4.29547-12.22565-9.54548v-3.61055c0-5.25 5.50155-9.54547 12.22565-9.54547h11.02954M286.32276 183.74134h21.31887c6.72418 0 12.22573 4.29546 12.22573 9.54547v3.61055c0 5.25-5.50155 9.54548-12.22573 9.54548h-26.07"></path></g></g></svg> 