<?xml version="1.0" encoding="UTF-8"?> <svg xmlns="http://www.w3.org/2000/svg" xmlns:xlink="http://www.w3.org/1999/xlink" version="1.1" id="Layer_1" x="0px" y="0px" viewBox="0 0 512 512" style="enable-background:new 0 0 512 512;" xml:space="preserve"> <style type="text/css"> .st0{fill:#90D5AC;} .st1{fill:none;stroke:#FFFFFF;stroke-width:16;stroke-linecap:round;stroke-miterlimit:10;} </style> <g id="core-science-chemistry-navy-sd"> <circle class="st0" cx="256" cy="256" r="255"></circle> <g id="Icon"> <path class="st1" d="M269,260.1l-26.8-0.3c-7.7,0-14.7,4.1-18.4,10.9l-48.4,93.5"></path> <path class="st1" d="M212.1,142.6V216c0,3.9-1.1,7.8-3.3,11.1l-80.7,146.8c-4.7,7.3-2.6,17,4.6,21.7c2.5,1.6,5.5,2.5,8.5,2.5 h229.9c8.5,0,15.3-6.9,15.3-15.3c0-3-0.9-5.9-2.5-8.3l-81-147c-2.2-3.4-3.3-7.3-3.3-11.3v-73.7 M197.5,114.2l117.2,0.2"></path> </g> </g> </svg> 