<svg id="logo-wjec" xmlns="http://www.w3.org/2000/svg" width="48.737" height="48.737" viewBox="0 0 48.737 48.737">
    <path id="Path_18824" data-name="Path 18824" d="M41.777,20.19C41.613,7.935,29.189,9.725,27.166,10.1a.246.246,0,0,0-.189.319l2.632,8.028a.741.741,0,0,0,.884.487c6.271-1.582,10.2.747,11.09,1.362a.123.123,0,0,0,.194-.1Z" transform="translate(-8.191 -2.974)" fill="#bdbcbc"/>
    <path id="Path_18825" data-name="Path 18825" d="M48.752,20.19C48.915,7.935,61.338,9.725,63.362,10.1c.147.027.237.178.149.443l-2.7,8.248a.5.5,0,0,1-.557.2c-6.4-1.69-10.4.684-11.3,1.306a.123.123,0,0,1-.194-.1Z" transform="translate(-14.809 -2.974)" fill="#e65000"/>
    <path id="Path_18826" data-name="Path 18826" d="M50.486,11.481c2.875-7.621,11.119-7.351,12.82-7.211a.247.247,0,0,1,.213.324l-.842,2.57a.123.123,0,0,1-.132.084c-7.318-.812-10.62,2.545-11.843,4.347a.123.123,0,0,1-.217-.113Z" transform="translate(-15.333 -1.284)" fill="#69b3e6"/>
    <path id="Path_18827" data-name="Path 18827" d="M63.016.324l-.506,1.544a.124.124,0,0,1-.116.085,12.507,12.507,0,0,0-10.27,4.881.123.123,0,0,1-.209-.129A11.8,11.8,0,0,1,62.778,0a.247.247,0,0,1,.238.324Z" transform="translate(-15.765 0)" fill="#fabd34"/>
    <path id="Path_18828" data-name="Path 18828" d="M5.269,57.423C1.81,57.423,0,54.6,0,51.819c0-2.768,1.81-5.57,5.269-5.57a5.89,5.89,0,0,1,4.185,1.692.872.872,0,1,1-1.288,1.177,4.123,4.123,0,0,0-2.9-1.124,3.542,3.542,0,0,0-3.526,3.825c0,1.859,1.1,3.859,3.525,3.859a4.136,4.136,0,0,0,2.887-1.145A.872.872,0,0,1,9.461,55.69,5.841,5.841,0,0,1,5.27,57.423Zm34.89,0c-3.46,0-5.271-2.819-5.271-5.6,0-2.768,1.81-5.57,5.271-5.57a5.889,5.889,0,0,1,4.184,1.692.872.872,0,0,1-1.288,1.177,4.124,4.124,0,0,0-2.9-1.124,3.542,3.542,0,0,0-3.526,3.825c0,1.859,1.1,3.859,3.525,3.859a4.138,4.138,0,0,0,2.887-1.145.872.872,0,0,1,1.305,1.156A5.839,5.839,0,0,1,40.159,57.423ZM17.231,43.883a.872.872,0,0,1-.5-1.589,4.528,4.528,0,0,0,1.623-3.8V29.47a.872.872,0,0,1,1.744,0v8.961a6.248,6.248,0,0,1-2.373,5.3.865.865,0,0,1-.5.156Zm22.98-4.111c-3.46,0-5.27-2.818-5.27-5.6,0-2.768,1.81-5.57,5.27-5.57A5.892,5.892,0,0,1,44.4,30.29a.872.872,0,0,1-1.287,1.177,4.129,4.129,0,0,0-2.9-1.124,3.543,3.543,0,0,0-3.525,3.826c0,1.859,1.1,3.859,3.525,3.859A4.08,4.08,0,0,0,43.1,36.877a.872.872,0,0,1,1.3,1.163,5.851,5.851,0,0,1-4.192,1.732ZM14.059,28.6a.872.872,0,0,0-.872.872v6.344a2.227,2.227,0,0,1-2.224,2.224H10.9a2.227,2.227,0,0,1-2.224-2.224V29.467a.872.872,0,0,0-1.745,0v6.344A2.227,2.227,0,0,1,4.7,38.036H4.639a2.227,2.227,0,0,1-2.224-2.224V29.467a.872.872,0,0,0-1.745,0v6.344A3.973,3.973,0,0,0,4.638,39.78H4.7a3.962,3.962,0,0,0,3.1-1.493,3.962,3.962,0,0,0,3.1,1.493h.065a3.973,3.973,0,0,0,3.969-3.969V29.467a.871.871,0,0,0-.872-.872ZM16.222,46.24a4.351,4.351,0,0,0-2.625.808V43.01a.871.871,0,1,0-1.741,0V54.852a.865.865,0,0,0,.1.4A4.672,4.672,0,0,0,16.222,57.4a4.961,4.961,0,0,0,3.946-1.786A5.937,5.937,0,0,0,21.482,51.8a6.111,6.111,0,0,0-1.166-3.6A4.887,4.887,0,0,0,16.222,46.24Zm0,9.417a3.573,3.573,0,0,1-2.214-.671,1.056,1.056,0,0,1-.411-.845v-3.7a2.529,2.529,0,0,1,2.625-2.458A3.573,3.573,0,0,1,19.741,51.8C19.741,53.66,18.639,55.657,16.222,55.657ZM27.884,28.6a4.7,4.7,0,0,0-4.017,1.947,6.3,6.3,0,0,0-1.092,3.618,5.934,5.934,0,0,0,1.316,3.809,4.962,4.962,0,0,0,3.945,1.786,5.84,5.84,0,0,0,4.186-1.73.871.871,0,1,0-1.3-1.156,4.128,4.128,0,0,1-2.882,1.144A3.4,3.4,0,0,1,24.6,35.055h7.288a.87.87,0,0,0,.87-.87c0-2.778-1.507-5.581-4.874-5.581Zm-3.31,4.709a3.236,3.236,0,0,1,3.31-2.967c2.236,0,2.88,1.8,3.063,2.967H24.574ZM32.747,48.39a4.672,4.672,0,0,0-4.267-2.143c-3.453,0-5.261,2.8-5.261,5.564a5.934,5.934,0,0,0,1.316,3.808,4.961,4.961,0,0,0,3.945,1.786l.042,0a4.337,4.337,0,0,0,2.585-.811.87.87,0,0,0,1.739-.057V48.794a.876.876,0,0,0-.1-.4ZM31.1,53.206a2.528,2.528,0,0,1-2.623,2.458,3.572,3.572,0,0,1-3.519-3.822c0-1.855,1.1-3.853,3.519-3.853a3.573,3.573,0,0,1,2.214.671,1.058,1.058,0,0,1,.41.845v3.7Z" transform="translate(0 -8.686)" fill="#009fe3"/>
</svg>
